<?xml version="1.0" encoding="UTF-8"?>
<svg id="Layer_1" xmlns="http://www.w3.org/2000/svg" version="1.1" viewBox="0 0 720 256">
  <!-- Generator: Adobe Illustrator 29.0.1, SVG Export Plug-In . SVG Version: 2.1.0 Build 192)  -->
  <defs>
    <style>
      .st0, .st1 {
        fill: #76573e;
      }

      .st2 {
        fill: #efebe3;
      }

      .st1 {
        font-family: CenturyGothic, 'Century Gothic';
        font-size: 30.75px;
      }
    </style>
  </defs>
  <g>
    <g>
      <g>
        <path class="st0" d="M88.63,166.75c3.43-.47,12.65-3.24,19.01-11.82,6.37-8.58,14.78-15.76,16.49-17.15s5.74-6.03,4.43-8.6c-1.31-2.58-7.41.69-10.76,3.1-2.95,2.12-7.58,8.15-10.56,8.19-2.16.03-4.66-1.01-2.12-5.83,2.96-5.62,10.26-10.08,14.37-11.59s16.59-6.3,19.96-8.12c3.37-1.82,5.62-4.55,6.04-6.48.42-1.93-1.91-2.08-5.08-.49-3.17,1.6-12.43,4.6-15.56,5.35-.98.23-15.8,4.17-18.2,5.43-2.4,1.26-23.97,20.16-27.19,22.13-3.44,2.1-5.98,4.52-14.5,9.09.24,8.83.84,6.42,4.05,14.83.9.27,4.72,9.57,4.84,9.43,4.56-5.65,9.91-6.79,14.77-7.46Z"/>
        <path class="st0" d="M125.81,137.12s-1.46,1.36-3.29,2.89-3.58,3.36-3.58,3.36c10.73,1.84,14.76-1.19,15.94-2.69,1.12-1.42-.31-2.24-.84-2.3-5.3-.57-8.23-1.27-8.23-1.27Z"/>
        <path class="st0" d="M147.22,128.65c-3.45.02-6.79.23-11.23-.26-4.44-.49-7.31-.66-7.31-.66,0,0,2.91,2.07-.88,7.07,0,0,5.18-.01,8,.27,2.82.28,8.16-.23,10.79-1.87,2.23-1.39,3.9-4.57.64-4.55Z"/>
        <path class="st0" d="M149.36,116.26c-2.91.54-16.14,2.12-16.14,2.12,0,0-5.37,2.18-14.32,5.68-9.17,3.58-15.42,12.41-13.98,14.49s3.57.87,4.51.31c.94-.56,4.26-3.8,5.64-5.12,1.49-1.43,3.45-2.81,3.45-2.81,6.93-4.9,18.02-5.75,19.56-6.02,1.53-.27,6.28-.76,10.87-2.48,4.59-1.72,5.49-4.12,5.5-5.48,0-1.33-2.17-1.23-5.08-.69Z"/>
      </g>
      <g>
        <path class="st0" d="M248.4,57.93c.34.17.46-.2-.25-.86l-.87-.13,1.12.99Z"/>
        <path class="st0" d="M244.69,52.54c-1.01-.6-2.26-1.17-2.09-.3,1.17.4,1.21.74,2.52,1.14.71.65,1.02,1.35.77,1.37.33.15.93,1.17,1.54,1.32-.27-.6-.68-1.2-1.19-1.77-.5-.57-1.13-1.1-1.86-1.55-.17-.33.18-.2.31-.21Z"/>
        <path class="st0" d="M158.46,21.37h.62c-.17-.02-.38-.02-.62,0Z"/>
        <path class="st0" d="M104.28,42.9c.35-.28.47-.44.45-.49-.31.28-.56.52-.45.49Z"/>
        <path class="st0" d="M96.2,49.01c.17-.14.31-.26.46-.38-.2.12-.39.25-.46.38Z"/>
        <path class="st0" d="M158.46,21.37h-1.59c-.09.19.82.04,1.59,0Z"/>
        <path class="st0" d="M234.12,44.98c.27.18.51.31.75.41-.22-.15-.43-.29-.65-.44-.03.01-.05.03-.09.04Z"/>
        <path class="st0" d="M184.45,21.32l.48.06c.15-.04.29-.1.43-.17l-.91.11Z"/>
        <path class="st0" d="M203.96,25.78c-.42-.16-.72.23-.95.37.3-.1.65-.08,1.03,0,.04-.08.01-.2-.09-.38Z"/>
        <path class="st0" d="M231.71,40.82l.49.27c-.13-.07-.34-.19-.49-.27Z"/>
        <path class="st0" d="M170.16,20.21c-.03-.07-.11-.13-.18-.16,0,.06.07.11.18.16Z"/>
        <path class="st0" d="M260.57,76.96s.04-.03.07-.04c-.1-.08-.14-.09-.07.04Z"/>
        <path class="st0" d="M249.32,57.11l.22.23c.09-.03.18-.06.24-.12l-.46-.11Z"/>
        <path class="st0" d="M83.29,62.44s.03-.04.06-.06c.26-.42.1-.19-.06.06Z"/>
        <path class="st0" d="M106.08,214.69c-1.32-1.45,2.87,1.39.78-.67.12.31-2.58-.95-.78.67Z"/>
        <path class="st0" d="M233.76,44.61c-.21-.16-.42-.33-.63-.49.28.24.47.39.63.49Z"/>
        <path class="st0" d="M106.86,214.02h0s-.22-.21-.22-.21c.09.09.14.14.21.21Z"/>
        <path class="st0" d="M65.12,101.11c.1-.07.2-.22.3-.38-.05,0-.13.08-.3.38Z"/>
        <path class="st0" d="M77.94,72.02l-.44.65c.19-.25.33-.46.44-.65Z"/>
        <path class="st0" d="M62.98,117.52c-.07.42-.15.56-.13,1.15.03-.05.05-.1.07-.17-.05-.22-.05-.5.06-.98Z"/>
        <path class="st0" d="M62.75,134.69c.03-.09.05-.21.07-.32-.02-.17-.04-.37-.06-.54l-.02.86Z"/>
        <path class="st0" d="M273.92,125.2c.13-.37.27-.6.41-.78-.33.27-.47-2.18-.41.78Z"/>
        <path class="st0" d="M234.27,44.76c-.15.03-.3-.01-.51-.15.16.11.31.22.45.33.08-.02.13-.07.06-.18Z"/>
        <path class="st0" d="M66.59,118.54l-.29,2.62c.11-.73.21-1.69.29-2.62Z"/>
        <path class="st0" d="M214.75,221.55l.52-.31c-.22.09-.4.2-.52.31Z"/>
        <path class="st0" d="M66.21,128.99c-.16.47-.25.98-.31,1.49.04.11.07.23.12.3l.18-1.8Z"/>
        <path class="st0" d="M274.33,124.41s0,0,0,0c0,0,0,0,0,0Z"/>
        <path class="st0" d="M271.26,107.26c.49,2.46.83,1.04,1.28,1.5.64,2.95-.23,1.45-.38,2.51.23.91.53,1.7.81,2.44.25.74.45,1.44.52,2.14-.09.12-.1.39-.26.09.17.48.3,1.09.41,1.76.05.34.1.69.15,1.06.03.37.06.74.09,1.12.1,1.52.26,3.07.6,4.22-.05.17-.1.26-.15.31.3-.39.62-.46.84-.38.02,1.14.41,2.12.02,2.55,0-.7-.16-.76-.29-1.08l.19,1.19c-.56,1.08-.22-1.63-.64-1.62.11,1.16.29,2.42.42,3.61.09,1.19.12,2.32,0,3.21-.58.35-.04-4.17-.63-1.81l.15-1.37.09-1.38c-.87,2.1.04-1.67-.89.26-.02.9-.04,1.6-.05,2.2,0,.6.01,1.1.03,1.61.02,1,.12,2.02-.14,3.8.24.83.48-.23.73.6.03,1.29-.06,2.19-.21,2.85-.17.67-.41,1.1-.63,1.5-.44.79-.83,1.4-.7,3.32.22,1.01.84,1.51,0,4.09l-.46-1.02c-.34,1.71-.2,2.25-.15,2.79.06.54.07,1.11-.55,2.85-.1-.69.41-2.73.22-2.23-1.02,2.2-.02,1.71-.44,3.5l-.64.23c-.23.9-.45,1.83-.66,2.78-.22.95-.4,1.93-.68,2.89-.53,1.94-1.01,3.95-1.76,5.88-.07-.27.02-.99-.49-.16-.76,2.49-1.94,5.01-3.16,7.47-.67,1.2-1.34,2.39-2.01,3.55-.32.58-.68,1.14-1.05,1.68-.36.54-.71,1.07-1.06,1.6l-.53,1.91c-.23.38-.63.58-.45.13-1.21,1.54.21.25-.13,1.14-.57.96-1.03,1.09-.77.42-1.37,3.19-4.86,8.61-7.56,11.11l.33-.65c-1.94,2.05-1.33,3.07-3.39,4.77l.27-.44c-2.17,2.19-4.37,4.57-6.65,6.61-.56.52-1.11,1.04-1.67,1.52-.57.46-1.14.91-1.69,1.34-1.12.84-2.15,1.64-3.21,2.19-.14.54-1.4,1.41-2.59,2.25-1.17.88-2.37,1.6-2.24,2.13-1.59.79-2.2,1.01-2.94,1.34-.76.31-1.67.71-3.85,1.85-1.13.66-1.39,1.51-2.77,2.39l-.28-.43-1.69,1.53c-.44.01-.89,0-1.33-.01l-1.32.78c.56-.24,1.27-.35,1.25-.18-1.03.62-2.38,1.18-3.49,1.55-1.13.34-2.02.47-2.1.36l-2.51,1.3c-.84.43-1.71.79-2.57,1.19.05-.24.91-.63,1.56-1-2.64,1.52-.7-.32-3.12,1.07.39-.02-.09.36-.11.48-.69.11-1.79.37-2.99.71-1.2.33-2.47.82-3.58,1.15l.34-.45c-1.02.24-2.05.5-3.11.79-.53.14-1.06.29-1.6.43-.54.12-1.09.25-1.64.38-1.1.25-2.22.53-3.35.76-1.14.2-2.29.4-3.45.58,1.68-.1,1.4.57.04.84l-.62-.45c-.84.47,1.46-.02-.3.67-1.76.15-1.25-.48-.28-.76l-2.1.42c-.14-.15.35-.29.45-.5-.84.42-3.69-.11-4.9.5l-.13-.15c-1.17.07-2.17.14-3.09.21-.91.05-1.74.07-2.53.11-.8.03-1.56.07-2.37.1-.81.02-1.66-.01-2.61-.03-.09.46-1.58.31-2.75.64-1.4-.19-2.87-.45-4.41-.68-1.54-.26-3.13-.59-4.82-.78-2.39-.13-.75.28-1.85.38-.11-.45-3.44-1.02-1.66-1-2.01-.3-3.28-.59-4.68-.86-.71-.13-1.45-.26-2.33-.42-.88-.19-1.89-.41-3.15-.68.49.32,1.08.56.72.61-.92-.19-2.01-.75-1.82-.91l.25.02c-2.86-.54-5.95-1.9-8.79-3.36-1.45-.68-2.79-1.47-4.09-2.09-.65-.31-1.28-.59-1.9-.83-.6-.27-1.18-.49-1.74-.65l.25.08-2.23-.87-1.12-.44-1.09-.49c-1.87-1.15,1.3.37.02-.66-1.2-.48-2.24-.98-3.19-1.48-.92-.55-1.74-1.1-2.53-1.64-1.61-1.05-3.01-2.18-4.88-3.22-.24-.36-.57-.74-.97-1.13-.38-.41-.83-.83-1.32-1.26-.49-.43-1.04-.87-1.61-1.32-.57-.44-1.18-.89-1.75-1.39-1.17-.97-2.38-1.95-3.46-2.92-1.04-1.02-1.96-2-2.61-2.91l-.03.39c-1.02-.59-.88-1.07-1.4-1.74-.08.25.65,1.09.06.68-1.7-1.72-3.46-3.45-5-5.41-.78-.97-1.6-1.91-2.33-2.93-.72-1.02-1.45-2.04-2.18-3.07-.37-.51-.71-1.03-1.04-1.57l-1-1.6c-.66-1.07-1.34-2.12-1.93-3.23-.61-1.09-1.22-2.18-1.82-3.27-.56-1.11-1.12-2.22-1.67-3.32-.84-1.59-1.37-1.9-1.92-2.33-.55-.43-1.08-1.02-1.75-3.23l1.06.94c-.23-.39-.47-.79-.69-1.19l-.61-1.24c-.4-.83-.79-1.67-1.17-2.52-.75-1.7-1.33-3.48-1.97-5.22-.56-1.78-1.11-3.55-1.66-5.3-.47-1.78-1.02-3.51-1.55-5.23.21.39.36.37.54,1.04.03-1.56-1.13-5.47-1.46-5.44-.14-1.11.25-.31.31-1.01.01-1.53-1.12-3.68-.8-4.54.05-.14.17.41.24.68-.31-.96-.45-4.58-.81-3.59-.06-1.35-.17-2.63-.28-3.84-.1-1.21-.26-2.36-.11-3.44-.52-1.39.16-4.6-.5-5.06.76.2.72-4.69.6-6.42.18.59.36-1.45.62-.76.11-1.93.26-3.7-.18-3.42.69-1.72.7-3.52.88-5.12.15-1.6.24-3.03,1.05-3.88.77-5.72,2.15-10.93,3.83-15.87.16.11.11.5-.04,1.03-.15.52-.39,1.19-.59,1.85-.42,1.32-.82,2.59-.41,2.61.32-1.19.57-2.26.81-3.28.27-1,.53-1.94.8-2.88.5-1.89,1.21-3.7,2.3-5.9.61-1.11,0,.8-.06,1.24.81-2.33,2-4.41,3.02-6.48.57-1.01,1.14-1.99,1.67-2.98.27-.5.53-.99.78-1.49.27-.49.54-.97.79-1.46.05.05-.14.49-.33.89.45-.74,1.18-1.63.84-1.73l-.38.76c-1.17.91.98-3.47.87-3.75-.05,1.75,2.74-3.42,2.38-.8.28-.5.56-1.18.3-1.2.54-.65.81-.79.52.06.41-.66.66-1.11.83-1.45.19-.33.29-.56.38-.77.2-.43.39-.82,1.27-1.93.12.11-.18.6-.21.94.63-1.31,1.24-2.67,2.94-4.35-.02.17.26.05-.21.58,1.32-1.55,2.29-3.02,3.45-4.4.56-.7,1.15-1.41,1.8-2.13.65-.72,1.43-1.39,2.3-2.11-.48,1.43,1.28-.87,1.87-.57.53-.6,1.1-1.17,1.68-1.73l-.94.4c1.63-1.34,2.74-2.94,4.31-3.89-.37.38-.73.77-1.07,1.18.98-.89,2.04-1.68,3.06-2.52l-1.93,1.17c1.51-1.55-.67-.48,1.7-2.06-.42.41,1.69-1.31,2.84-1.6h0c.75-.75,1.54-1.53,2.92-2.29.44-.06.1.76.39.72.28-.51,1.33-1.17,2.4-1.87,1.07-.69,2.15-1.44,2.61-1.97-.32.32-.18.62-.02.6l.56-.78c.93-.35,1.09-.36,1.07-.06,2.63-1.34-1.2-.24,2.04-1.62-.23.16-.08.16-.56.49,3.2-1.47,5.99-3.26,9.08-4.29,1.11.21-2.54,1.24-1.33,1.3,4.19-1.99,8.74-4.14,13.14-5.25l-.83.15c.38-1,3.37-.44,5.48-1.37-.54.17-.6.64-.48.5,1.52-.25,3.05-.62,4.78-1.08.87-.2,1.78-.41,2.77-.64.99-.21,2.04-.5,3.2-.68l-.55.29c1.84.03,4.78-.46,6.75-.41.57-.26,1.7-.29.99-.58.77.12,1.52.17,2.26.22.74.06,1.48.09,2.2.08,1.45,0,2.88-.13,4.28-.15,1.41-.03,2.8-.14,4.17-.04,1.37.1,2.72.29,4.03.67-.64-.05-1.55.07-1.04.11,1.53.02,3.04.22,4.57.33-.31-.43-.56-.31-1.48-.73.61-.15,1.92-.15,3.06,0-2.1,0-.07.58.77.97-.13-.14.19-.22.14-.35,2.25,1.1.53-.69,3.69.35l-.21.17c1.23.09,2.39.15,3.68.49.44.56-1.32-.09-1.49.24,1.81.4,3.79-.03,5.3.9-.79-.1-1.89-.41-2.69-.45.83.45,1.3.68,1.72.85.42.16.8.26,1.45.48l-.13-.05c.98.37,1.97.7,2.94,1.09-.24-.13-.48-.25-.72-.37,1.28-.23,2.42.13,3.64.53.61.2,1.24.42,1.92.62.67.22,1.39.41,2.19.52-3.1-.44-.62.21-1.02.59.69.42,1.76,1.01,1.39,1.01.76.08,1.31.37,1.92.69.61.33,1.29.68,2.36.83.02.19,1.43.66.96.89,1.8.66-.29-.44-.06-.56,2.95.72,5.92,3.64,9.95,5.13,1.65.81,2.67,1.25,3.68,1.63.5.2,1,.39,1.56.64.55.26,1.16.6,1.9,1.04.79.88-1.11-.07-1.11-.07,1.37,1.29,2.57,2.01,4.06,2.95-.36-.11-.15.21.16.69,1.13.84,1.1.12,2.41,1.46-.36-.06-.87-.09-1.51-.36.69.45,1.41.87,2.13,1.3.7.46,1.4.93,2.09,1.44.16.51-1.06-.36-1.63-.61,1.52,1.17,3.93,3.06,4.63,3.19l-.78-.98c.52.47,0,.52-.43.24-1.48-.83-1.69-1.68-1.65-1.87l.99.73c-.16-.77-1.11-1.56-2.25-2.35-1.14-.79-2.54-1.5-3.48-2.3l1.23.09-2.34-1.12c-.32-.47-.38-1.01.65-.34-1.21-1.35-1.42-.73-2.43-1.93-.1-.15-.02-.13.12-.06l-1.54-.84c.36.08.04-.57.86.13-.58-.53-1.14-.97-1.69-1.3-.55-.33-1.07-.58-1.53-.81-.92-.45-1.62-.78-1.98-1.32l.24.1c-.94-.55-1.47-.77-1.76-.86-.29-.09-.34-.03-.37.05-.06.16-.03.43-1.58-.11l-1.29-2.18-.61.23c-.39-.23-1.16-.65-.92-.76-1.65-.45.15.32-.86.18-.85-.68-2.19-1.33-3.35-1.86-1.17-.51-2.12-.97-2.18-1.44-.86.04,1.76,1.11-.45.42-.12-.53-.75-.77-1.54-1.02-.8-.22-1.79-.43-2.63-.98.72-.2,2.38.7.69-.39-.69.14-1.57-.25-2.48-.73-.91-.47-1.88-.97-2.7-1.18-.13.27-1.01.05-2.19-.34-1.19-.37-2.71-.8-4.07-1.09.24-.19-5-1.64-7.53-2.31l.09-.09c-.31.25-1.11.23-2.08.12-.97-.12-2.11-.32-3.09-.37.13-.35.5-.46,1.57-.46-.61-.1-1.22-.17-1.83-.25-.46.14-1.04.16-2.23.08l.51-.39c-.61-.07-1.22-.12-1.85-.15-.63,0-1.27,0-1.93-.01-.66,0-1.34-.03-2.06-.08-.36-.03-.72-.06-1.09-.11-.37-.03-.75-.07-1.15-.12-.19.42,2.42,1.27-.89,1.44-.11-.23-.22-.63.65-.69-.29.02-1.02.15-1.58.04l1.34-.34c-1.42-.22-.76.3-1.9.22.03-.33-.84-.26-.67-.52.29-.02.99.17,1.44.06-1.29-.11-2.84-.36-3.36-.58.11.19,0,.44-.95.5-2.44.05-.84-.38-2.28-.54-.59.21-2.16.07-2.18.57-.71.04-.86-.18-1.14-.3-.63.16-2.11.23-3.24.39-1.13.18-1.92.35-1.19.54h.33c-.06.01-.13.03-.2.04h.01s-.01,0-.01,0c-1.02.23-2.06.39-3.11.5-1.05.13-2.12.28-3.18.38-2.14.19-4.26.52-6.25,1.04l-.03-.16c-1.19.31-2.49.72-3.72,1.08-1.22.37-2.36.71-3.14,1.16-.69.21-1.72.22-1.48-.06-1.75.7-1.91.85-4.54,1.55,1.68-.92-.7-.02,1.75-.86-2.34.71-2.97.63-5.26,1.99.67-.74-1.9.23-2.92.8l1.7-.39c-1.18.56-2.25.97-3.33,1.39l.35-.75c-1.23.34-2.3.89-3.31,1.42-1,.56-1.95,1.12-2.82,1.75-1.74,1.24-3.41,2.24-5.3,2.8-.93,1.02,2.46-1.19,1.68-.18-1.99,1.13-4.47,1.71-5.09,2.1-1.4.77-1.9,1.35-2.4,1.96-.25.3-.5.61-.87.94-.37.33-.85.7-1.53,1.17.45-.1,1.07.09-.76,1.72-1.86,1.32-2.76,1.06-1.69.05.43-.35.68-.46.7-.39.55-.51,1.28-1.17.42-.78l-.12.34c-.52.27-1.41.88-2.12,1.35-.7.48-1.2.83-1.02.45-1.22,1.27-.37.73.69-.02-1.22.84-2.11,1.59-3,2.35-.9.74-1.75,1.56-2.93,2.54.43-.25.91-.38.56-.06-1.72,1.43-2.01,1.84-2.15,2.15-.14.31-.12.52-1.13,1.63-1.41,1.02-.08-.95-2.02,1.42-1.44,1.2-.66-.07-.25-.72-.42.57-.86,1.07-1.31,1.53-.43.48-.87.91-1.29,1.31-.85.79-1.65,1.44-2.2,2.02l.85-1.22c-.51.73-1,1.26-1.46,1.83.27-.14.56-.26.85-.39-.63.6-1.06,1.2-1.18,1.07-.35.86.93-.12.11,1.48-.86.78-2.01,2.85-2.63,2.88,2.33-2.76-.68-.01,1.14-2.48-.32.5-.77,1.07-1.36,1.71-.12.07-.02-.17.11-.37-2.42,2.54-.46,1.65-2.55,4.56.01-.54-.95.37-1.19.91.79-1.22.78-.31.26.93-1.43,1.81-1.2,2.19-1.87,3.19l.83-1.1c0,.27-.16.64-.42,1.12-.25.48-.56,1.09-.93,1.8-.27,0,.58-1.33.21-.89-.4,1.8-2.51,3.18-3.28,5.58-.7.93-.54-.15-1.12.69-.94,2.64-1.67,2.55-2.6,5.35.71-.61.68-.78.19,1.24l1.7-4.49-.73,3.05c.61-1.31.99-2.9,1.46-3.63-.36,1.45-.35,1.28.22.79-.67.77-.99,1.7-1.3,2.67-.3.98-.65,1.97-1.22,2.96l-.88-.44c-.82,1.53-1.3,2.99-1.71,4.61-.19.81-.39,1.65-.64,2.55-.25.9-.58,1.85-.92,2.91.19-.44.35-.89.57-1.33.18.68-.71,2.66-.95,4.09-.28-.21-.64.62-1,1.17.25-.01-.76,3.19-.21,3.73-.28.62-.6,1.23-.85,1.86-.81,3.53.13,4.2-.4,7.6-.22-1.08-.65.45-.6-1.89-.16,1.15-.35,2.17-.13,2.22-.14.32-.15,1.13-.15,1.99.03.86.03,1.76-.17,2.27.1.5.43.68.3,1.97-.08.14-.16-.02-.16-.02.14.02.1,2.03.52.93-1.2,3.5-.19,9.87-.75,12.98.06.63.13,1.29.2,1.96.07.67.19,1.35.28,2.02.2,1.34.34,2.67.52,3.79-.12-.13-.16.01-.2-.42.19,3.16,1.21,1.78,1.46,5.35-.08.94-.24.49-.39-.05-.14-.54-.21-1.19-.23-.61-.51.34-.24,1.4.12,2.68.37,1.28.79,2.78.82,4.02l-.21-.55c.12,1.88,1.46,4.29,2.34,7.17,0,0-.13-.11-.16.03.57.91,1.17,2.28,1.87,3.72.69,1.44,1.29,3.03,1.96,4.31-.74-.67-.72-1.13-.9-.46.56,1.17.49-.6,1.61,1.73.12.86.63,2.67.36,3.07-.37-.73-.66-1.49-1-2.24-.02.69.28,1.43.67,2.13.41.69.87,1.36,1.1,1.97l-.31-.04c1.69,3.37,2.37,3.08,4.23,6.64l-.03-.46c1.63,1.59.63,1.77,2.16,3.4l-.21.91c.23.29.54.68.9,1.15.39.45.83.96,1.29,1.5.94,1.07,1.89,2.3,2.74,3.29-.66-.43-1.42-1.27-2.23-2.15-.79-.9-1.62-1.83-2.25-2.55.79,1.21,2.81,4.04,3.49,4.47-.38-.44-.92-.96-1.17-1.49,1.38,1.2,3.03,2.85,4.74,5.14-.68.21.46,1.7,1.85,3.4,1.34,1.75,3.12,3.54,3.46,4.66.48.43.94.87,1.4,1.31.48.43.94.86,1.41,1.3.93.88,1.81,1.83,2.75,2.75.96.91,1.94,1.83,2.95,2.79.5.48,1.04.94,1.6,1.39.56.45,1.13.91,1.72,1.36-1.05-2.09,1.38,1.06,1.71.02,1.12.8,1.57,1.08,1.62,1.22,1.02.97,2.03,1.95,3.07,2.91.34.39.03.26-.37.06-.38-.21-.85-.5-.86-.37,1.21.93,1.45,1.14,1.53,1.37.09.21.05.38.84,1.03-.15-.53,1.17.13,2.57,1.19l-1.81-1.71c.97.46,1.61.85,2.1,1.22.49.36.85.67,1.19.99.69.64,1.4,1.29,3.39,2.12l-1.33-.39c1.99.96,7.25,3.76,9.57,3.83.31.27.67.73-.25.4,4.8,2.23,11.19,3.44,14.99,4.9l-.45.13c.97.19,1.75.04,2.89.54-.09.09-.44.15,0,.27.53.03,2.63.16,3.87.6l-1.14.02c1.23.39,2.35.57,3.39.71,1.04.14,2,.21,2.93.26,1.88.02,3.65-.02,5.78.14-.04.36.93.69,2.17.96,1.24.27,2.74.5,3.75.57l-.08.1c1.5.07,2.88.11,4.2.08,1.32-.07,2.58-.17,3.82-.29,1.24-.09,2.46-.31,3.71-.48,1.25-.19,2.54-.32,3.9-.57.87.11,2.03.1,3.37.03,1.34-.08,2.84-.32,4.41-.54,1.57-.19,3.18-.58,4.76-.86,1.58-.26,3.08-.62,4.45-.86-.85.08,0-.59.92-.9,1.3-.14,3.27-1.5,3.28-.78l-.44.12c1.11.33,3.64-.57,5.58-1.32l.02-.94c1.38-.17,2.91-.55,4.42-1.19,1.51-.62,3.08-1.28,4.5-2.08,1.43-.78,2.8-1.47,3.98-2.08,1.17-.62,2.19-1.05,2.98-1.16,1.06-.79,2.44-1.64,3.43-2.51l.19.44c1.59-.89,2.78-1.56,3.99-2.4.61-.42,1.24-.85,1.95-1.33.35-.25.72-.51,1.12-.79.38-.3.79-.63,1.23-.98l-.53.83c2.04-1.53,1.76-2.99,3.53-4.47l.98.09c1.68-1.42,3.5-2.72,5.14-4.21.83-.73,1.67-1.46,2.43-2.26.75-.81,1.45-1.66,2.1-2.55.02.12.08.36-.4.89,1.53-1.41,5.77-5.67,4.54-5.71.56.41,2.93-3.5,4.14-5.54l.16.58c.69-1.99.59-2.13,2.08-4.5.43-.51.64-.27.04.39,1.44-1.69.57-1.68,2.23-3.79l-.29,1c1.24-1.9,1.05-1.81,1.36-3.08.54-1.33,2.24-3.66,2.76-3.77-.09-.4.17-1.66.88-2.79.22-.09.09.39.02.63.5-.81.88-1.55,1.19-2.23.3-.69.5-1.33.71-1.93.4-1.2.78-2.25,1.5-3.36.16,0,.29-.12.42-.31-1.17,2.78-2.24,4.97-2.16,4.75.38.18,1.46-2.03,1.19,0,.26-.97.57-2.29.96-3.63.35-1.35.74-2.74,1.27-3.81.08-.09.16-.18.25-.24l-.04.25c.24-.5.39-.97.48-1.43.31-.7.51-1.14.75-1.83.41-.16,1.11-2.6,1.44-3.77-.47-.04.03-1.55-.75-.22.08-.18,0,.24-.22,1.02-.04.18-.11.38-.12.51,0-.03,0-.06-.01-.09-.25.76-.57,1.75-.93,2.88.08-.99.21-2,.88-3.19-.09-.68-.22-1.43-.25-1.84.54-.7,1.11-1.8,1.61-2.77.51-.97.86-1.82,1.12-1.99.15-.92.33-1.92.52-2.94.21-1.01.31-2.07.44-3.07.12-1,.22-1.97.25-2.83,0-.87-.06-1.64-.21-2.24.03-1.06.41-1.17.6-1.54,0,.61-.1,1.33-.02,1.67.01-.53.07-1.18.13-1.87.03-.34.06-.7.1-1.05.01-.35.03-.71.04-1.05.04-1.36.02-2.53-.26-2.8.48-2.62.48,1.53.6-2.12l.17.5c.31-1.78.4-3.42.36-4.98-.1-1.56-.3-3.05-.5-4.55-.23-1.5-.52-3.01-.65-4.65-.14-1.64-.31-3.39-.19-5.41-.02.56-.02.83-.11.96-.03-.57-.05-1.13-.1-1.7-.07-.57-.14-1.13-.21-1.7-.16-1.14-.32-2.28-.51-3.42-.25-1.13-.5-2.26-.74-3.4-.13-.57-.25-1.14-.39-1.7l-.47-1.68c-.31-1.12-.62-2.24-.93-3.35-.35-1.1-.7-2.2-1.02-3.31-.17-.55-.31-1.1-.48-1.65-.17-.54-.35-1.09-.52-1.63-.34-1.08-.65-2.17-.93-3.26-.83-2.41-1.3-2.52-2.17-3.82l.24-.71c-.54-.73-1.11-1.44-1.66-2.15-.5-.8-.86-1.59-1.16-2.4-.32-.8-.61-1.6-.91-2.43-.3-.83-.64-1.69-1.08-2.57-.47-.87-1.08-1.75-1.87-2.67l.03.7c-.43-.74-1.15-1.88-1.76-2.79-.63-.9-1.08-1.63-.84-1.62-.15-.11-.61-.26-.84-.91l.19-.19c-.46-.53-.9-1.07-1.37-1.6l-1.45-1.53c-.9-1.35-.62-1.41-.47-1.6.08-.1.12-.23-.03-.58-.16-.35-.48-.93-1.26-1.84-1.23-1.3-3.83-3.36-3.53-2.73.45.55,1.05,1.5.88,1.71l-1.14-1.14c-.77.28-2.13-.1-.06,3.2l2.1,1.76.23.92c-.45-.61-.95-1.17-1.44-1.74.57,1.19,1.29,1.65,2.01,2.24-.03.29.09.68.35,1.15l2.19,1.67c-.06.44-1.17-.61-.29.93.98.82-.12-1.38,1.22.19.44,1.27-.01,1.11,1.09,2.2-.05.29-.33.09-.74-.35.47.49,1.02,1.2,1.48,1.86.46.66.9,1.25,1.25,1.44.17.69.78,1.64,1.27,2.46.47.83.78,1.53.43,1.65.35.28,1.64,1.8,2.26,2.88-.94-.79-.36.22.19,1.46.57,1.24,1.23,2.66.67,2.59.74.57,1.41,1.92,2.09,3.44.34.76.7,1.56,1.05,2.33.32.79.66,1.54,1.01,2.2-.12-.13-.35-.4-.4-.65.51,1.59.45,2.12.67,3.17.68,0,1.59,2.43,2.39,3.66,0,2.13-1.1-.97-1.49-.18.23-.12.63.68.97,1.42.32.75.61,1.44.73,1.05.01,1.61.15,1.35-.17,2.26.85.07.52,1.36,1.25,2.52.06,2.3-.63.73.11,3.1,0,1.2-.73-.9-.73-.9ZM267.66,165.29s0,0,0,0c.18-.48.32-.89.42-1.15-.09.24-.2.57-.41,1.15ZM265.76,169.9c.26-.55.58-1.23.89-1.97.21-.1.31.14.09.6.01-.29-.55.75-.98,1.37ZM272.6,161.06c-.2.79-.37,1.02-.5,1.1.11-.37.24-.8.4-1.36,0-.03-.01-.08-.02-.11.06.1.11.21.12.38Z"/>
        <path class="st0" d="M272.48,159.49c.03-.11.03-.18.07-.33-.08.15-.16.29-.25.43.02.11.03.22.05.32.04-.14.09-.28.13-.42Z"/>
        <path class="st0" d="M159.19,21.37h-.11c.09,0,.17.02.23.04-.07-.01-.07-.03-.12-.04Z"/>
        <polygon class="st0" points="219.55 218.84 219.62 218.94 219.95 218.64 219.55 218.84"/>
        <path class="st0" d="M186.79,23.8s.14.11.34.18c-.01-.03-.16-.1-.34-.18Z"/>
        <path class="st0" d="M198.37,26.48l1.57.62c-.67-.29-1.17-.48-1.57-.62Z"/>
        <path class="st0" d="M206.96,29.54c.14-.03.19-.08.24-.12h-.02s-.22.12-.22.12Z"/>
        <path class="st0" d="M80.95,73.11c-.06.1-.12.21-.17.31-.35.74-.1.25.17-.31Z"/>
        <path class="st0" d="M109.56,41.21c-.33.33-.66.65-1.02.97.66-.41,1.16-.73,1.02-.97Z"/>
        <path class="st0" d="M66.62,118.25s0,0,0,0c0,.1-.02.19-.02.29l.03-.29Z"/>
        <path class="st0" d="M106.93,43.38c.67-.39,1.17-.8,1.61-1.21-.52.36-1.14.77-1.61,1.21Z"/>
        <path class="st0" d="M240.3,50.23l.32.3s.05-.03.09-.02l-.41-.28Z"/>
        <path class="st0" d="M240.71,50.51l.39.3c-.16-.16-.3-.29-.39-.3Z"/>
        <path class="st0" d="M241.91,51.44l-.82-.63c.25.25.56.56.82.63Z"/>
        <path class="st0" d="M231.07,42.48l-.21.06c.08.02.15,0,.21-.06Z"/>
        <path class="st0" d="M228.04,40.41c.72.5,1.59,1.56,2.65,2.17l.17-.04c-.62-.12-1.95-1.91-2.82-2.12Z"/>
        <path class="st0" d="M215.64,30.98c.93.48,1.83,1.02,2.74,1.52-.41-.41-.94-.95.35-.34-3.3-2.27.55.72-3.09-1.18Z"/>
        <path class="st0" d="M206.77,26.98c1.6.53.07-.25.19-.32-1.06-.22-1.32-.25-.19.32Z"/>
        <path class="st0" d="M137.66,25.41l.04-.46c-1.23.45.04.16-.04.46Z"/>
        <path class="st0" d="M126.03,32.23c.41-.1.81-.2,1.23-.28l.39-.59c-.55.27-1.09.55-1.62.86Z"/>
        <polygon class="st0" points="117.63 33.11 118.1 32.78 116.26 33.96 117.63 33.11"/>
        <path class="st0" d="M62.15,131.65l.51-.41c-.1-.88-.7-1.05-.51.41Z"/>
        <path class="st0" d="M76.48,180.33c.02.63.63,1.95,1.32,2.57-.57-1-.99-2.08-1.32-2.57Z"/>
        <path class="st0" d="M209.2,228.31l-.91.52c.59-.27,1.19-.52,1.77-.84-.29.11-.57.23-.86.32Z"/>
      </g>
      <g>
        <path class="st0" d="M240.88,89.64c-4.72.65-17.42,4.46-26.19,16.28-8.77,11.82-20.35,21.7-22.71,23.63-2.35,1.93-7.9,8.3-6.1,11.85,1.8,3.55,10.21-.95,14.82-4.28,4.06-2.93,10.44-11.23,14.54-11.28,2.98-.04,6.42,1.39,2.92,8.03-4.08,7.74-14.14,13.88-19.8,15.96-5.66,2.08-22.85,8.67-27.49,11.18-4.64,2.51-7.74,6.26-8.32,8.92-.58,2.66,2.63,2.87,7,.67,4.37-2.2,17.11-6.33,21.43-7.36,1.34-.32,21.76-5.74,25.07-7.48,3.31-1.74,33.02-27.77,37.45-30.48,4.73-2.9,8.24-6.22,19.96-12.52-.33-12.16-1.16-8.85-5.58-20.42-1.24-.37-6.51-13.18-6.66-12.98-6.28,7.78-13.65,9.35-20.34,10.27Z"/>
        <path class="st0" d="M189.66,130.45s2.01-1.88,4.53-3.99c2.52-2.11,4.93-4.63,4.93-4.63-14.77-2.53-20.33,1.64-21.96,3.7-1.55,1.96.43,3.09,1.16,3.17,7.3.79,11.34,1.75,11.34,1.75Z"/>
        <path class="st0" d="M160.17,142.12c4.75-.03,9.35-.32,15.46.36,6.11.68,10.07.9,10.07.9,0,0-4.01-2.85,1.22-9.74,0,0-7.13.02-11.01-.37-3.88-.39-11.24.31-14.86,2.57-3.07,1.92-5.37,6.3-.88,6.27Z"/>
        <path class="st0" d="M157.23,159.18c4.01-.74,22.23-2.92,22.23-2.92,0,0,7.39-3,19.73-7.82,12.63-4.93,21.23-17.09,19.25-19.96-1.98-2.87-4.92-1.2-6.21-.43-1.29.77-5.87,5.24-7.76,7.06-2.06,1.97-4.76,3.87-4.76,3.87-9.54,6.75-24.82,7.92-26.94,8.29-2.11.37-8.65,1.05-14.97,3.41-6.32,2.37-7.57,5.68-7.57,7.54,0,1.83,2.98,1.69,7,.95Z"/>
      </g>
    </g>
    <g>
      <g>
        <path class="st0" d="M333.78,97.49v-37.56h14.06c3.18,0,5.92.51,8.21,1.53,2.29,1.02,4.05,2.49,5.29,4.4,1.23,1.91,1.85,4.23,1.85,6.95s-.62,4.93-1.85,6.84c-1.23,1.91-3,3.39-5.29,4.43-2.29,1.04-5.03,1.56-8.21,1.56h-11.86l1.77-1.88v13.74h-3.97ZM337.75,84.08l-1.77-1.93h11.75c3.76,0,6.61-.81,8.56-2.44,1.95-1.63,2.92-3.93,2.92-6.9s-.98-5.33-2.92-6.98c-1.95-1.65-4.8-2.47-8.56-2.47h-11.75l1.77-1.88v22.59Z"/>
        <path class="st0" d="M370.27,97.49v-28.17h3.65v7.73l-.59-1.45c.89-2.04,2.33-3.64,4.29-4.8,1.97-1.16,4.31-1.74,7.03-1.74,2.29,0,4.3.44,6.04,1.31,1.73.88,3.09,2.21,4.08,4,.98,1.79,1.48,4.04,1.48,6.76v16.37h-3.81v-15.99c0-2.97-.74-5.21-2.23-6.73-1.48-1.52-3.57-2.28-6.25-2.28-2,0-3.75.4-5.23,1.21-1.48.8-2.63,1.97-3.43,3.49-.8,1.52-1.21,3.35-1.21,5.5v14.81h-3.81Z"/>
        <path class="st0" d="M418.51,97.76c-2.93,0-5.51-.62-7.73-1.85-2.22-1.23-3.95-2.93-5.21-5.1-1.25-2.16-1.88-4.64-1.88-7.43s.6-5.26,1.8-7.41,2.84-3.84,4.94-5.07,4.44-1.85,7.06-1.85,5,.6,7.06,1.8c2.06,1.2,3.68,2.88,4.86,5.04,1.18,2.17,1.77,4.66,1.77,7.49,0,.18,0,.37-.03.56-.02.2-.03.4-.03.62h-24.52v-2.84h22.48l-1.5,1.13c0-2.04-.44-3.85-1.32-5.45-.88-1.59-2.07-2.83-3.57-3.73-1.5-.89-3.24-1.34-5.21-1.34s-3.67.45-5.21,1.34c-1.54.89-2.74,2.15-3.59,3.76-.86,1.61-1.29,3.45-1.29,5.53v.59c0,2.15.47,4.03,1.42,5.66.95,1.63,2.27,2.9,3.97,3.81s3.64,1.37,5.82,1.37c1.72,0,3.32-.3,4.8-.91s2.76-1.54,3.84-2.79l2.15,2.47c-1.25,1.5-2.82,2.65-4.7,3.43-1.88.79-3.94,1.18-6.2,1.18Z"/>
        <path class="st0" d="M450.6,97.76c-2.4,0-4.49-.45-6.28-1.34-1.79-.89-3.18-2.24-4.16-4.02-.98-1.79-1.48-4.02-1.48-6.71v-16.37h3.81v15.94c0,3,.74,5.27,2.23,6.79,1.48,1.52,3.57,2.28,6.25,2.28,1.97,0,3.68-.4,5.12-1.21,1.45-.8,2.56-1.98,3.33-3.51.77-1.54,1.15-3.38,1.15-5.53v-14.76h3.81v28.17h-3.65v-7.73l.59,1.4c-.89,2.08-2.28,3.69-4.16,4.86-1.88,1.16-4.07,1.74-6.57,1.74Z"/>
        <path class="st0" d="M475.01,97.49v-28.17h3.65v7.62l-.59-1.34c.86-2.04,2.24-3.64,4.16-4.8,1.91-1.16,4.18-1.74,6.79-1.74,2.75,0,5.1.69,7.03,2.07,1.93,1.38,3.18,3.44,3.76,6.2l-1.5-.59c.82-2.29,2.28-4.14,4.37-5.55,2.09-1.41,4.61-2.12,7.54-2.12,2.29,0,4.28.44,5.98,1.31,1.7.88,3.02,2.21,3.97,4,.95,1.79,1.42,4.04,1.42,6.76v16.37h-3.81v-15.99c0-2.97-.71-5.21-2.12-6.73-1.41-1.52-3.41-2.28-5.98-2.28-1.93,0-3.6.4-5.02,1.21-1.41.8-2.5,1.97-3.27,3.49-.77,1.52-1.15,3.35-1.15,5.5v14.81h-3.81v-15.99c0-2.97-.72-5.21-2.15-6.73-1.43-1.52-3.43-2.28-6.01-2.28-1.9,0-3.56.4-4.99,1.21-1.43.8-2.53,1.97-3.3,3.49-.77,1.52-1.15,3.35-1.15,5.5v14.81h-3.81Z"/>
        <path class="st0" d="M539.89,97.76c-2.11,0-3.94-.35-5.5-1.05-1.56-.7-2.75-1.66-3.57-2.9-.82-1.23-1.23-2.66-1.23-4.27,0-1.47.35-2.8,1.05-4,.7-1.2,1.84-2.16,3.43-2.9s3.73-1.1,6.41-1.1h9.71v2.84h-9.6c-2.72,0-4.61.48-5.66,1.45-1.05.97-1.58,2.17-1.58,3.6,0,1.61.62,2.9,1.88,3.86,1.25.97,3,1.45,5.26,1.45s4-.49,5.55-1.48c1.56-.98,2.69-2.41,3.41-4.27l.86,2.63c-.72,1.86-1.96,3.34-3.73,4.45-1.77,1.11-4,1.66-6.68,1.66ZM549.6,97.49v-6.22l-.16-1.02v-10.41c0-2.4-.67-4.24-2.01-5.53-1.34-1.29-3.34-1.93-5.98-1.93-1.83,0-3.56.3-5.21.91-1.65.61-3.04,1.41-4.19,2.42l-1.72-2.84c1.43-1.22,3.15-2.16,5.15-2.82,2-.66,4.11-.99,6.33-.99,3.65,0,6.47.9,8.45,2.71,1.99,1.81,2.98,4.55,2.98,8.24v17.49h-3.65Z"/>
        <path class="st0" d="M559.21,72.49v-3.17h17.44v3.17h-17.44ZM572.51,97.76c-2.65,0-4.69-.72-6.12-2.15s-2.15-3.45-2.15-6.06v-26.46h3.81v26.24c0,1.65.42,2.92,1.26,3.81.84.89,2.05,1.34,3.62,1.34,1.68,0,3.08-.48,4.19-1.45l1.34,2.74c-.75.68-1.65,1.18-2.71,1.5-1.06.32-2.14.48-3.25.48Z"/>
        <path class="st0" d="M587.32,63.1c-.79,0-1.45-.27-1.99-.8-.54-.54-.8-1.18-.8-1.93s.27-1.39.8-1.91c.54-.52,1.2-.78,1.99-.78s1.45.25,1.99.75c.54.5.8,1.13.8,1.88s-.26,1.45-.78,1.99c-.52.54-1.19.8-2.01.8ZM585.39,97.49v-28.17h3.81v28.17h-3.81Z"/>
        <path class="st0" d="M599.83,97.49v-39.82h3.81v39.82h-3.81ZM602.83,90.2l.11-4.88,17.55-15.99h4.67l-12.4,11.86-2.15,1.82-7.78,7.19ZM621.67,97.49l-11.75-14.65,2.47-2.95,13.95,17.6h-4.67Z"/>
        <path class="st0" d="M642.75,97.76c-2.93,0-5.51-.62-7.73-1.85-2.22-1.23-3.95-2.93-5.21-5.1-1.25-2.16-1.88-4.64-1.88-7.43s.6-5.26,1.8-7.41,2.84-3.84,4.94-5.07,4.44-1.85,7.06-1.85,5,.6,7.06,1.8c2.06,1.2,3.68,2.88,4.86,5.04,1.18,2.17,1.77,4.66,1.77,7.49,0,.18,0,.37-.03.56-.02.2-.03.4-.03.62h-24.52v-2.84h22.48l-1.5,1.13c0-2.04-.44-3.85-1.32-5.45-.88-1.59-2.07-2.83-3.57-3.73-1.5-.89-3.24-1.34-5.21-1.34s-3.67.45-5.21,1.34c-1.54.89-2.74,2.15-3.59,3.76-.86,1.61-1.29,3.45-1.29,5.53v.59c0,2.15.47,4.03,1.42,5.66.95,1.63,2.27,2.9,3.97,3.81s3.64,1.37,5.82,1.37c1.72,0,3.32-.3,4.8-.91s2.76-1.54,3.84-2.79l2.15,2.47c-1.25,1.5-2.82,2.65-4.7,3.43-1.88.79-3.94,1.18-6.2,1.18Z"/>
      </g>
      <g>
        <path class="st0" d="M605.43,133.96l-4.6,1.6c-9.37,1.74-18.8,3.81-28.29,4.83-57.6,6.2-112.44-8.11-169.68-5.86-6.47.25-13.04,1.32-19.5,1.79-.7.05-3.26.25-3.25-.29,8.82-1.66,17.95-3.08,26.92-3.84,61.86-5.21,121.29,11.14,183.31,4.12,5.04-.57,10.02-2,15.09-2.35Z"/>
        <g>
          <path class="st0" d="M605.49,134.75c.23-.12.08-.34-.56-.24l-.42.43.98-.19Z"/>
          <path class="st0" d="M601.06,134.55c-.73.31-1.54.79-.99,1.06.68-.5.89-.37,1.63-.94.64-.14,1.15-.04,1.06.12.22-.13,1.01-.04,1.33-.32-.87-.22-1.96-.08-3.03.35-.25-.05-.04-.18,0-.27Z"/>
          <path class="st0" d="M537.11,137.05l.41.06c-.11-.03-.25-.05-.41-.06Z"/>
          <path class="st0" d="M497.47,134.07c.3.02.43-.01.45-.05-.28,0-.51,0-.45.05Z"/>
          <path class="st0" d="M490.74,133.06c.14.02.27.04.4.06-.15-.05-.3-.08-.4-.06Z"/>
          <path class="st0" d="M537.11,137.05l-1.05-.17c-.08.12.54.12,1.05.17Z"/>
          <path class="st0" d="M592.49,137.04c.22-.05.4-.12.56-.19-.18.04-.36.08-.54.13,0,.02-.01.04-.03.07Z"/>
          <path class="st0" d="M554.61,137.21h.32c.1-.04.18-.09.27-.15l-.59.15Z"/>
          <path class="st0" d="M568.03,136.97c-.3,0-.4.34-.51.49.17-.15.39-.22.65-.26,0-.06-.04-.14-.14-.23Z"/>
          <path class="st0" d="M589.31,136.07l.37-.08c-.1.02-.26.06-.37.08Z"/>
          <path class="st0" d="M545.01,136.97s-.07-.09-.12-.12c0,.04.05.08.12.12Z"/>
          <path class="st0" d="M590.01,136.05s.01.04.01.06c.07-.05.09-.08-.01-.06Z"/>
          <path class="st0" d="M605.46,134.05l-.2.09c0,.07,0,.13.02.19l.18-.28Z"/>
          <path class="st0" d="M478.38,131.63s.03,0,.05.01c.33-.01.14-.02-.05-.01Z"/>
          <path class="st0" d="M395.65,136.45c-1.31-.17,2.04-.59.08-.72.19.11-1.7.7-.08.72Z"/>
          <path class="st0" d="M592.13,137.05c-.18.03-.37.05-.55.08.25-.02.42-.05.55-.08Z"/>
          <path class="st0" d="M395.73,135.73h0s-.2-.01-.2-.01c.08,0,.13,0,.2.01Z"/>
          <path class="st0" d="M449.73,130.09c.06.06.17.11.29.16,0-.03-.07-.08-.29-.16Z"/>
          <path class="st0" d="M471.04,131.76l-.52-.08c.21.05.38.07.52.08Z"/>
          <path class="st0" d="M438.62,130.26c-.29-.03-.38-.07-.78-.03.04.02.07.03.12.04.14-.04.33-.06.66,0Z"/>
          <path class="st0" d="M427.06,130.29c.06.02.14.04.21.06.11,0,.25-.02.37-.03l-.58-.03Z"/>
          <path class="st0" d="M555.47,140.22c.26.08.42.18.54.27-.19-.23,1.49-.39-.54-.27Z"/>
          <path class="st0" d="M592.45,136.86c-.05.09-.15.15-.32.19.13-.03.26-.05.38-.07.03-.05.03-.1-.06-.12Z"/>
          <path class="st0" d="M438.11,132.88l-1.82-.06c.51.04,1.17.06,1.82.06Z"/>
          <path class="st0" d="M473.12,136.27h.42c-.16-.02-.31-.03-.42,0Z"/>
          <path class="st0" d="M430.88,132.83c-.33-.12-.67-.2-1.03-.23-.08.03-.16.05-.21.09.41.03.83.08,1.24.14Z"/>
          <path class="st0" d="M556.02,140.49h0s0,0,0,0Z"/>
          <path class="st0" d="M567.93,138.89c-1.73.14-.77.5-1.12.78-2.06.3-.98-.24-1.7-.4-1.28.23-2.24.71-3.2.78-.08-.07-.27-.08-.05-.18-1.34.43-4.06.21-5.63.73-.12-.03-.18-.07-.21-.1.27.21.32.43.27.59-.78.04-1.44.34-1.74.07.48-.01.51-.13.73-.23l-.81.16c-.75-.38,1.11-.19,1.1-.5-1.58.21-3.43.64-4.66.57-.27-.38,2.85-.27,1.21-.55l1.89.06c-1.47-.57,1.15,0-.2-.62-2.48,0-2.76.35-5.24.25-.55.23.19.33-.36.56-3.52.44-2.79-.98-5.37-.41-.67.27-.93.8-2.77.53l.63-.45c-2.4-.07-1.38.63-3.9.29.45-.17,1.89-.12,1.53-.18-1.63-.39-1.16.24-2.41.22l-.25-.41c-2.56,0-5.39.3-8.23.22.16-.11.65-.22,0-.37-3.59.03-7.64-.33-11.07-.82l-1.34.26c-.31-.02-.56-.19-.22-.24-1.34-.22-.08.22-.74.31-.77-.02-1-.26-.51-.34-2.39.16-6.8.2-9.27-.38l.5-.07c-1.93-.29-2.25.54-4.03.08l.35-.03c-4.21-.46-8.91-.59-12.08-1.38-.66.45-4.16-.6-4.49.07-2.38-.56-1.68-.63-5.05-1.17-.9-.11-1.39.31-2.52.28v-.37s-1.55.24-1.55.24l-.77-.51h-1.06c.42.06.88.24.8.34-1.66.02-3.99-.62-4.01-.81l-3.92-.04c.1-.14.76-.13,1.28-.18-2.11.18-.34-.42-2.28-.24.25.1-.16.2-.21.27-.93-.3-3.09-.48-4.7-.53l.33-.22c-2.88-.32-6.1-.39-9.35-.62,1.16.2.86.62-.1.59l-.35-.41c-.63.19.98.22-.3.42-1.21-.13-.78-.5-.08-.57l-1.48.03c-.08-.12.27-.16.37-.3-.62.19-2.52-.57-3.42-.22l-.08-.12c-3.25-.2-4.74-.14-7.39-.28-.07.33-1.1.2-1.9.42-1.94-.24-4.09-.55-6.44-.61-1.66.11-.49.26-1.24.44-.11-.31-2.46-.36-1.23-.54-2.82-.06-3.6-.08-7.18.15.39.13.82.19.59.29-.65.04-1.47-.14-1.38-.29l.17-.03c-2,.21-4.31-.03-6.52-.25-2.21-.15-4.33-.28-5.92.07l.18-.04-3.3.4c-1.52-.02.91-.25-.23-.41-3.56.58-5.7.22-8.6.83-2.37-.67-8.01.97-11.07.64l.19.19c-.76.27-.95-.04-1.53-.05.09.16.86.12.38.27-.61.07-1.2.13-1.77.15-.28,0-.56,0-.8,0-.11,0-.22-.03-.24-.03,0,.01,0-.03-.01.03-.03.1-.07.2-.11.3-.04.16-.09.29-.18.42-.13.25-.24.29-.24.28l.08,1.33c5.45-1.02,11.2-1.58,16.73-2.15,2.48-.26,1.27-1.27,4.46-1.14l-.84.49c4.94-1.1,10.25-.87,15.15-1.59-.29.11-.29.23-.77.26,1.06.22,3.85-.24,3.86-.45.77,0,.19.2.67.31,1.05.14,2.61-.43,3.18-.16.1.04-.29.1-.48.13.68-.15,3.18-.05,2.52-.36,1.86.11,3.55-.24,5.03-.08.96-.38,3.18.19,3.48-.33-.13.53,3.25.45,4.43.21-.39.16,1.02.17.56.4,1.34,0,2.57-.09,2.34-.37,2.45.67,4.98-.36,6.34.49,1.99-.08,3.91-.13,5.78-.17,1.87,0,3.69.02,5.48.05-.16.53-3.96-.16-3.83.4,3.4-.03,5.39-.38,8.75-.07.87.12-.51.2-.81.28,3.41-.04,6.55.49,9.59.4-.01.05-.34.08-.65.1.6.02,1.38.18,1.33-.07l-.58.02c-.92-.42,2.42-.57,2.54-.74-1.06.62,2.97.39,1.3,1.15.39-.01.89-.09.82-.26.58.09.75.2.15.34,2.14.04,1.4-.28,3.33-.12-.02.12-.41.13-.62.25.99-.15,2-.3,3.62-.07-.1.06.08.17-.41.13,2.8.19,4.82-.23,7.88.26-.95.43,1.03.26,1.16.71h1.66s-.65-.26-.65-.26c1.45.13,2.75-.08,3.99.17l-1.09.09,2.72.15-1.52-.3c1.48-.1-.11-.57,1.81-.29-.4.01,1.45.12,2.18.45h0c.73-.08,1.48-.17,2.54.03.27.16-.26.47-.09.58.74-.31,3.4.18,4.33-.14-.31.07-.34.3-.25.35l.62-.25c.66.15.76.21.63.38,2.01.22-.6-.61,1.78-.18-.19.01-.1.06-.5.08,2.4.31,4.67.16,6.87.47.62.49-1.94-.04-1.22.39,3.2.16,6.64-.03,9.73.24l-.57-.08c.47-.6,2.28.45,3.86.25-.39.02-.52.32-.41.25,2.11.22,4.34.14,7.56.05l-.41.14c1.24.2,3.29.22,4.63.35.41-.14,1.18-.09.72-.34,4.13,1.14,7.95-.29,11.63.56-.44,0-1.06.12-.7.13l3.15-.1c-.25-.28-.41-.17-1.07-.4.4-.16,1.29-.26,2.07-.26-1.41.16.01.45.62.58-.1-.08.11-.18.06-.26,1.64.46.27-.55,2.52-.26l-.12.15c.84-.08,1.61-.28,2.52-.26.38.31-.89.16-.95.42,1.27-.04,2.5-.63,3.66-.33-.54.1-1.32.11-1.85.2,1.26.35,1.41.26,2.34.3h-.09s2.16.13,2.16.13l-.55-.09c1.57-.82,3.24-.29,5.36-.92-2.06.61-.33.31-.48.68.55.07,1.39.14,1.16.26,1-.34,1.71.14,3.12-.35.07.11,1.09-.04.87.26,1.31-.16-.32-.18-.22-.33,1-.26,2.21-.16,3.52-.18,1.31-.02,2.73-.06,4.17-.46,2.49-.45,2.92-.88,5.23-1.28.81.11-.6.48-.6.48,1.29.05,2.24-.05,3.42-.35-.23.13.03.18.42.26.96-.18.58-.51,1.86-.55-.19.16-.44.42-.88.62,1.12-.29,2.18-.7,3.32-1.02.34.14-.64.43-1.03.64,1.29-.33,3.32-.81,3.67-1.2l-.85.04c.47-.1.29.22-.04.35-1.06.45-1.62.19-1.71.09l.81-.23c-.97-.5-3.27.74-4.96.95l.62-.59-1.65.65c-.38-.08-.66-.32.15-.5-1.22-.09-1.04.31-2.1.13-.12-.03-.07-.06.03-.09l-1.16.25c.22-.12-.23-.33.5-.32-2.13-.09-3.36.67-4.18.38l.17-.05c-2.9.43-.25.39-2.41,1.01l-1.54-.75-.26.39c-.3.01-.9.04-.8-.11-1.1.35.2.14-.43.43-1.47-.22-4,.36-4.36-.19-.51.3,1.4.14-.14.41-.48-.6-1.79.19-3.13-.02.39-.34,1.66-.23.32-.45-.78.58-2.59,0-3.7.17-.04.46-2.43.26-4.31.42.12-.15-3.54-.19-5.29-.32l.05-.07c-.34.43-2.14.4-3.46.47.05-.26.29-.34,1-.48-.41.01-.82,0-1.23,0-.29.13-.68.2-1.48.24l.31-.32c-1.64-.01-3.31.33-5.43.07-.13.3,1.67.87-.58,1.04-.08-.17-.16-.45.43-.5-.19.02-.69.12-1.07.05l.9-.26c-.96-.14-.51.22-1.28.18.02-.23-.57-.18-.45-.36.2-.02.67.11.97.02-.87-.06-1.91-.21-2.26-.4.07.13,0,.31-.65.33-1.64-.05-.55-.3-1.51-.46-.4.15-1.45-.07-1.49.28-.48-.02-.56-.19-.75-.29-.86.12-3.97-.12-3.03.29l.22.03s-.09,0-.14,0h0s0,0,0,0c-2.81.24-5.78-.44-8.55-.48v-.12c-1.65.03-3.67-.15-4.86.03-.49-.03-1.14-.28-.92-.41-1.27,0-1.42.14-3.23-.19,1.28-.11-.42-.21,1.31-.05-1.63-.22-1.99-.44-3.77-.25.62-.25-1.21-.47-1.99-.44l1.13.3c-.88-.02-1.64-.11-2.42-.19l.45-.36c-3.31-.72-6.11.36-8.59-.66-.91.2,1.8.34.99.6-1.54-.18-3.1-.88-3.58-.92-2.09-.39-2.02.41-4.21.08.27.16.51.56-1.16.55-1.54-.18-1.85-.75-.86-.78.37.02.55.08.53.12.5,0,1.16-.01.56-.22l-.21.12c-.75-.21-2.88-.37-2.36-.56-1.18.03-.52.19.34.33-1.96-.37-3.09-.27-5.12-.57.32.1.6.29.28.27-2.97-.43-1.34.15-3.37.04-1.13-.31.46-.48-1.6-.46-1.23-.24-.23-.39.27-.47-1.88.12-3.46-.46-4.52-.59l.99-.03c-.59.02-1.07-.02-1.56-.06l.54.32c-.57-.1-1.06-.13-1.04-.25-.61.14.42.5-.78.66-.75-.2-2.34-.03-2.58-.43,2.4.32-.24-.39,1.81-.29-.4.01-.88-.03-1.45-.12-.08-.05.09-.07.25-.08-2.28-.51-1.09.32-3.48.14.32-.19-.53-.44-.92-.42.96.07.44.38-.46.48-1.52-.27-1.68,0-2.48-.07l.91.14c-.33.19-1.09.11-2.16.1-.08-.17.98-.04.6-.14-1.21.28-2.66-.57-4.33-.44-.76-.2-.05-.4-.72-.54-1.87.15-2-.4-3.96-.29.55.31.65.25-.74.45l3.22-.02-2.09.3c.97.06,2.06-.06,2.63.02-1,.18-.89.11-.44.37-1.3-.5-2.64.1-4.16-.27l.09-.69c-2.29-.44-4.11.13-7.1-.2l.96.17c-.41.24-1.85-.04-2.83.04.1-.23-.5-.34-.91-.49.04.17-2.19-.09-2.48.37l-1.33-.35c-2.42-.2-2.78.56-5.1.43.71-.24-.35-.44,1.21-.57-.78-.04-1.48-.07-1.49.09-.45-.15-2.16.3-2.87.07-.33.1-.44.34-1.31.32-.09-.05,0-.12,0-.12,0,.12-1.37.15-.61.41-2.39-.74-6.68-.02-8.77-.54-1.7.12-3.74.25-5.27.31.1-.07,0-.12.29-.1-2.13-.16-1.28.7-3.7.52-1.25-.32,1.27-.25.5-.36-.37-.78-2.91.28-4.56-.07l.39-.07c-1.26-.18-3.01.48-5.05.56,0,0,.09-.07,0-.12-1.36.47-3.97.77-5.9,1.09.58-.36.87-.24.47-.51-.87.13.3.46-1.43.72-.58-.11-1.85-.11-2.05-.41l1.64-.2c-.89-.33-2.13.25-3,.28l.09-.2c-2.51.37-2.48.83-5.18,1.17l.3.1c-1.4.66-1.27-.08-2.68.48l-.51-.4c-.95.26-3.32.98-5.03,1.36.92-.51,2.92-1.02,4.15-1.41-.96.14-3.26.56-3.72.87.38-.11.85-.3,1.24-.3-1.12.56-2.63.99-4.53,1.32.11-.6-1.9-.18-3.78.12l-.77.12v.8c0,.22.1.5.21.65.09.12.21.23.33.32.14.08.33.17.42.19.24.08.4.1.57.13.33.05.6.08.86.11.51.06.93.12,1.21.23,3.45-.56,6.83-.48,10.78-.97-1.48-.55,1.15-.14.83-.84.91-.14,1.27-.17,1.35-.13l2.82.17c.67.15-.86.23-.76.39,2-.11.87.23,2.2.32-.29-.24.67-.42,1.81-.39l-1.62-.23c2.77-.57,2.43.47,5.26.02l-.89.25c1.45-.17,5.38-.11,6.8-.73.26.08.6.27-.04.33,3.48-.02,7.77-.59,10.49-.24l-.27.17c.65-.05,1.14-.32,1.95-.14-.04.07-.27.17.04.19.35-.07,1.74-.27,2.6-.13l-.74.17c3.4.35,5.24-.3,8.11-.32-.03.51,2.64.8,3.97.97l-.05.07c3.96.31,6.76-.09,10.44,0,2.24.74,7.7.77,11.34,1.42-.55-.14.12-.4.78-.39.85.18,2.41-.16,2.23.31l-.31-.04c.61.52,2.38.55,3.76.68l.28-.6c3.53,1.23,9.48.52,11.38,1.51.88-.08,1.96.02,2.84-.05l-.08.33c2.41.31,3.61.46,6.6.65l-.63.18c1.68.18,2.21-.77,3.77-.66l.42.54c2.94.24,5.87.95,8.82.73-.05.07-.15.21-.63.19,1.38.12,5.33.75,4.88.03,0,.45,3.03.28,4.63.2l-.27.31c1.37-.31,1.42-.44,3.3-.44.44.07.37.29-.21.17,1.47.26,1.17-.24,2.96.05l-.68.17c1.52.12,1.41,0,2.26-.19.96-.07,2.88.26,3.09.57.22-.17,1.06-.36,1.96-.24.12.12-.22.17-.38.2,2.54.33,3.81-.22,5.55.18.03.11.14.17.29.21-2.03-.09-3.66-.18-3.5-.2-.01.3,1.62.43.3.79,1.33-.17,3.59-.57,5.19-.36.08.03.15.06.21.11l-.17.03c.37.05.7.03,1.01,0,.51.07.83.13,1.32.14.18.25,1.88.17,2.7.19-.06-.33,1.01-.26.01-.55.13.03-.16.04-.7.04-.12,0-.27.01-.35.03.02,0,.04-.02.06-.03-.54,0-1.24,0-2.03-.01.65-.16,1.33-.29,2.23-.09.42-.21.89-.42,1.15-.52,1.11.48,3.26.77,3.56,1.06,1.25-.08,2.72-.06,4.08-.15,1.36-.1,2.59-.26,3.38-.58.71-.09.82.17,1.08.26-.41.07-.9.06-1.12.16,1.42-.18,4.2-.11,4.53-.56,1.79.17-1,.41,1.46.31l-.33.14c2.43.32,4.39-.11,6.4-.44,2.02-.37,4.09-.63,6.79-.4-.37-.02-.56-.03-.64-.1,3.06-.07,6.19-.43,9.31-.76,3.12-.35,6.22-.83,9.25-1,1.71-.15,1.85-.46,2.85-.84l.43.29,1.69-.72c2.44-.75,4.48.06,7.52-1.1l-.45-.16c1.14-.17,3.55-.83,3.41-.52.11-.07.32-.32.79-.28l.07.18,2.71-.84c1.06-.12,1.12.04,1.2.19.14.14.32.24,1.84-.27,1.1-.46,3.02-1.62,2.56-1.59-.46.15-1.2.29-1.29.13l.99-.45c0-.58.61-1.39-2.04-.88l-1.65.93-.65-.06,1.47-.53c-.9.04-1.44.47-1.87.78-.02-.14-.33-.18-.7-.17l-1.7.86c-.26-.17.73-.57-.5-.46-.79.4.9.32-.46.74-.92-.08-.7-.33-1.69.08-.17-.11.03-.24.42-.38-.88.34-2.4.54-2.82.92-.97-.13-3.06.67-3.07.14-.26.18-1.53.71-2.36.88,1.41-.89-3.14.54-2.85-.2-1.03.76-4.04.95-6,1.56.11-.06.31-.18.49-.18-1.14.12-1.49,0-2.23,0-.08.48-1.83.83-2.75,1.22-1.44-.28.78-.64.29-1.02.12.37-2.36.65-1.86.91-1.09-.16-.93-.05-1.52-.38-.13.59-.98.18-1.84.61-1.57-.15-.45-.51-2.13-.18-.82-.11.67-.44.67-.44ZM527.41,140.79h0c.35,0,.65,0,.84.01-.17,0-.42,0-.84-.01ZM523.99,140.65c.42.02.93.05,1.48.08.12.12-.02.23-.36.21.19-.07-.61-.17-1.12-.29ZM531.16,143.22c-.55.04-.73-.03-.8-.1.26,0,.56-.01.95-.02.02-.01.05-.03.07-.04-.05.06-.11.12-.22.16Z"/>
          <path class="st0" d="M532.15,142.8c.08,0,.12-.02.22-.02-.11-.03-.22-.05-.32-.08-.07.03-.13.07-.2.1.1,0,.2,0,.29,0Z"/>
          <path class="st0" d="M537.59,137.12h-.07c.06,0,.11.02.15.04-.05-.02-.05-.03-.08-.04Z"/>
          <polygon class="st0" points="476.93 136.45 476.93 136.53 477.23 136.48 476.93 136.45"/>
          <path class="st0" d="M556.43,138.73s.11.06.25.08c-.01-.02-.12-.05-.25-.08Z"/>
          <path class="st0" d="M564.59,138.69l1.16.1c-.5-.06-.87-.09-1.16-.1Z"/>
          <path class="st0" d="M570.88,138.64c.08-.06.1-.11.12-.15h-.01s-.1.15-.1.15Z"/>
          <path class="st0" d="M471.31,134.01c-.08,0-.17,0-.24,0-.57.02-.18.03.24,0Z"/>
          <path class="st0" d="M500.92,135.62c-.32.03-.63.07-.96.08.52.07.93.11.96-.08Z"/>
          <path class="st0" d="M438.31,132.89h0c-.07,0-.13,0-.2,0h.2Z"/>
          <path class="st0" d="M498.58,135.58c.52.11.96.13,1.37.12-.43-.06-.93-.13-1.37-.12Z"/>
          <path class="st0" d="M598.03,136.08l.3-.04s0-.04.03-.06l-.32.1Z"/>
          <path class="st0" d="M598.35,135.98l.32-.1c-.15.03-.28.06-.32.1Z"/>
          <path class="st0" d="M599.35,135.67l-.67.21c.24-.04.54-.09.67-.21Z"/>
          <path class="st0" d="M589.75,137.26l-.08.13s.08-.07.08-.13Z"/>
          <path class="st0" d="M587.23,137.52c.6-.03,1.53.12,2.37-.03l.07-.1c-.38.21-1.88-.12-2.43.13Z"/>
          <path class="st0" d="M576.62,136.9h2.11c-.38-.12-.87-.26.08-.35-2.68-.24.57.26-2.19.35Z"/>
          <path class="st0" d="M570.08,137.04c1.13-.12-.02-.19.04-.26-.71.15-.88.19-.04.26Z"/>
          <path class="st0" d="M522.86,136.05l.13-.29c-.87,0-.02.12-.13.29Z"/>
          <polygon class="st0" points="513.73 136.95 514.56 137.2 514.99 136.96 513.73 136.95"/>
          <polygon class="st0" points="508.57 134.39 508.95 134.38 507.49 134.37 508.57 134.39"/>
          <path class="st0" d="M429.11,129.94l.27.37c.59-.08.71-.5-.27-.37Z"/>
          <path class="st0" d="M394.79,132.71c-.4-.13-1.38-.12-1.94.16.77-.09,1.56-.05,1.94-.16Z"/>
          <polygon class="st0" points="467.6 138.6 466.9 138.66 468.2 138.68 467.6 138.6"/>
        </g>
      </g>
      <text class="st1" transform="translate(350.41 194.78)"><tspan x="0" y="0">guided by the spirit</tspan></text>
    </g>
  </g>
</svg>