<?xml version="1.0" encoding="UTF-8"?>
<svg id="Layer_1" xmlns="http://www.w3.org/2000/svg" version="1.1" viewBox="0 0 384 256">
  <!-- Generator: Adobe Illustrator 29.0.1, SVG Export Plug-In . SVG Version: 2.1.0 Build 192)  -->
  <defs>
    <style>
      .st0 {
        fill: #D2C2A9;
      }
    </style>
  </defs>
  <g>
    <path class="st0" d="M18.67,94.69v-40.95h15.33c3.47,0,6.45.56,8.95,1.67,2.5,1.11,4.42,2.71,5.76,4.8,1.35,2.09,2.02,4.61,2.02,7.58s-.67,5.37-2.02,7.46c-1.35,2.09-3.27,3.7-5.76,4.83-2.5,1.13-5.48,1.7-8.95,1.7h-12.93l1.93-2.05v14.98h-4.33ZM23,80.07l-1.93-2.11h12.81c4.09,0,7.2-.89,9.33-2.66,2.12-1.77,3.19-4.28,3.19-7.52s-1.06-5.81-3.19-7.61c-2.13-1.79-5.24-2.69-9.33-2.69h-12.81l1.93-2.05v24.63Z"/>
    <path class="st0" d="M58.45,94.69v-30.71h3.98v8.42l-.64-1.58c.97-2.22,2.53-3.97,4.68-5.24,2.14-1.27,4.7-1.9,7.66-1.9,2.5,0,4.69.48,6.58,1.43,1.89.96,3.37,2.41,4.45,4.36,1.07,1.95,1.61,4.41,1.61,7.37v17.84h-4.15v-17.43c0-3.24-.81-5.68-2.43-7.34-1.62-1.66-3.89-2.49-6.82-2.49-2.18,0-4.09.44-5.7,1.32-1.62.88-2.87,2.15-3.74,3.8-.88,1.66-1.32,3.66-1.32,6v16.15h-4.15Z"/>
    <path class="st0" d="M111.04,94.98c-3.2,0-6.01-.67-8.42-2.02-2.42-1.35-4.31-3.2-5.67-5.56-1.37-2.36-2.05-5.06-2.05-8.1s.65-5.73,1.96-8.07c1.31-2.34,3.1-4.18,5.38-5.53,2.28-1.35,4.85-2.02,7.69-2.02s5.45.65,7.69,1.96c2.24,1.31,4.01,3.14,5.29,5.5,1.29,2.36,1.93,5.08,1.93,8.16,0,.2-.01.4-.03.61-.02.21-.03.44-.03.67h-26.73v-3.1h24.51l-1.64,1.23c0-2.22-.48-4.2-1.43-5.94-.96-1.73-2.25-3.09-3.89-4.07-1.64-.97-3.53-1.46-5.67-1.46s-4,.49-5.67,1.46c-1.68.98-2.98,2.34-3.92,4.09s-1.4,3.76-1.4,6.03v.64c0,2.34.52,4.4,1.55,6.17,1.03,1.78,2.48,3.16,4.33,4.15,1.85.99,3.97,1.49,6.35,1.49,1.87,0,3.62-.33,5.24-1,1.62-.66,3.01-1.68,4.18-3.04l2.34,2.69c-1.37,1.64-3.07,2.89-5.12,3.74-2.05.86-4.3,1.29-6.76,1.29Z"/>
    <path class="st0" d="M146.02,94.98c-2.61,0-4.9-.49-6.84-1.46-1.95-.97-3.46-2.44-4.53-4.39-1.07-1.95-1.61-4.39-1.61-7.31v-17.84h4.15v17.37c0,3.28.81,5.74,2.43,7.4,1.62,1.66,3.89,2.49,6.81,2.49,2.14,0,4.01-.44,5.59-1.32,1.58-.88,2.79-2.15,3.63-3.83.84-1.68,1.26-3.69,1.26-6.03v-16.09h4.15v30.71h-3.98v-8.42l.64,1.52c-.98,2.26-2.49,4.03-4.53,5.29s-4.44,1.9-7.17,1.9Z"/>
    <path class="st0" d="M172.64,94.69v-30.71h3.98v8.31l-.64-1.46c.94-2.22,2.45-3.97,4.53-5.24,2.09-1.27,4.55-1.9,7.4-1.9,3,0,5.56.75,7.66,2.25s3.47,3.75,4.09,6.76l-1.64-.64c.9-2.5,2.49-4.51,4.77-6.05,2.28-1.54,5.02-2.31,8.22-2.31,2.5,0,4.67.48,6.52,1.43,1.85.96,3.3,2.41,4.33,4.36,1.03,1.95,1.55,4.41,1.55,7.37v17.84h-4.15v-17.43c0-3.24-.77-5.68-2.31-7.34-1.54-1.66-3.71-2.49-6.52-2.49-2.11,0-3.93.44-5.47,1.32-1.54.88-2.73,2.15-3.57,3.8-.84,1.66-1.26,3.66-1.26,6v16.15h-4.15v-17.43c0-3.24-.78-5.68-2.34-7.34-1.56-1.66-3.74-2.49-6.55-2.49-2.07,0-3.88.44-5.44,1.32-1.56.88-2.76,2.15-3.6,3.8-.84,1.66-1.26,3.66-1.26,6v16.15h-4.15Z"/>
    <path class="st0" d="M243.36,94.98c-2.3,0-4.3-.38-6-1.14-1.7-.76-2.99-1.81-3.89-3.16-.9-1.35-1.35-2.9-1.35-4.65,0-1.6.38-3.05,1.14-4.36.76-1.31,2.01-2.36,3.74-3.16,1.73-.8,4.07-1.2,6.99-1.2h10.59v3.1h-10.47c-2.96,0-5.02.53-6.17,1.58-1.15,1.05-1.73,2.36-1.73,3.92,0,1.75.68,3.16,2.05,4.21,1.36,1.05,3.28,1.58,5.73,1.58s4.36-.54,6.05-1.61,2.93-2.62,3.71-4.65l.94,2.87c-.78,2.03-2.14,3.65-4.07,4.86s-4.36,1.81-7.28,1.81ZM253.95,94.69v-6.79l-.18-1.11v-11.35c0-2.61-.73-4.62-2.19-6.03-1.46-1.4-3.64-2.11-6.52-2.11-1.99,0-3.88.33-5.67,1-1.79.66-3.31,1.54-4.56,2.63l-1.87-3.1c1.56-1.33,3.43-2.35,5.62-3.07,2.18-.72,4.48-1.08,6.9-1.08,3.98,0,7.05.99,9.21,2.95,2.16,1.97,3.25,4.96,3.25,8.98v19.07h-3.98Z"/>
    <path class="st0" d="M264.42,67.43v-3.45h19.01v3.45h-19.01ZM278.93,94.98c-2.89,0-5.11-.78-6.67-2.34-1.56-1.56-2.34-3.76-2.34-6.61v-28.84h4.15v28.61c0,1.79.46,3.18,1.37,4.15.92.98,2.23,1.46,3.95,1.46,1.83,0,3.35-.53,4.56-1.58l1.46,2.98c-.82.74-1.8,1.29-2.95,1.64-1.15.35-2.33.53-3.54.53Z"/>
    <path class="st0" d="M295.07,57.19c-.86,0-1.58-.29-2.16-.88-.58-.58-.88-1.29-.88-2.11s.29-1.51.88-2.08c.58-.56,1.31-.85,2.16-.85s1.58.27,2.16.82c.58.55.88,1.23.88,2.05s-.28,1.58-.85,2.16c-.57.59-1.3.88-2.19.88ZM292.97,94.69v-30.71h4.15v30.71h-4.15Z"/>
    <path class="st0" d="M308.71,94.69v-43.41h4.15v43.41h-4.15ZM311.98,86.74l.12-5.32,19.13-17.43h5.09l-13.51,12.93-2.34,1.99-8.48,7.84ZM332.51,94.69l-12.81-15.97,2.69-3.22,15.21,19.19h-5.09Z"/>
    <path class="st0" d="M355.5,94.98c-3.2,0-6.01-.67-8.42-2.02-2.42-1.35-4.31-3.2-5.67-5.56-1.37-2.36-2.05-5.06-2.05-8.1s.65-5.73,1.96-8.07c1.31-2.34,3.1-4.18,5.38-5.53,2.28-1.35,4.85-2.02,7.69-2.02s5.45.65,7.69,1.96c2.24,1.31,4.01,3.14,5.29,5.5,1.29,2.36,1.93,5.08,1.93,8.16,0,.2,0,.4-.03.61-.02.21-.03.44-.03.67h-26.73v-3.1h24.51l-1.64,1.23c0-2.22-.48-4.2-1.43-5.94-.96-1.73-2.25-3.09-3.89-4.07-1.64-.97-3.53-1.46-5.67-1.46s-4,.49-5.67,1.46c-1.68.98-2.98,2.34-3.92,4.09s-1.4,3.76-1.4,6.03v.64c0,2.34.52,4.4,1.55,6.17,1.03,1.78,2.48,3.16,4.33,4.15,1.85.99,3.97,1.49,6.35,1.49,1.87,0,3.62-.33,5.24-1,1.62-.66,3.01-1.68,4.18-3.04l2.34,2.69c-1.37,1.64-3.07,2.89-5.12,3.74-2.05.86-4.3,1.29-6.76,1.29Z"/>
  </g>
  <g>
    <path class="st0" d="M314.82,134.45l-5.02,1.74c-10.21,1.9-20.49,4.15-30.84,5.26-62.8,6.76-122.58-8.85-184.98-6.39-7.05.28-14.22,1.44-21.26,1.95-.76.06-3.55.27-3.55-.32,9.62-1.81,19.57-3.36,29.35-4.18,67.44-5.68,132.23,12.15,199.84,4.5,5.49-.62,10.92-2.19,16.45-2.56Z"/>
    <g>
      <path class="st0" d="M314.88,135.31c.25-.13.08-.37-.61-.26l-.46.47,1.07-.2Z"/>
      <path class="st0" d="M310.05,135.09c-.8.34-1.68.87-1.08,1.16.75-.55.97-.41,1.77-1.03.7-.15,1.25-.04,1.15.13.24-.14,1.1-.05,1.45-.35-.95-.24-2.14-.09-3.3.38-.28-.05-.04-.2,0-.29Z"/>
      <path class="st0" d="M240.33,137.81l.45.07c-.12-.03-.28-.05-.45-.07Z"/>
      <path class="st0" d="M197.12,134.56c.33.02.47-.01.49-.05-.31,0-.56,0-.49.05Z"/>
      <path class="st0" d="M189.78,133.47c.16.02.29.04.43.07-.16-.05-.33-.09-.43-.07Z"/>
      <path class="st0" d="M240.33,137.81l-1.15-.18c-.09.14.59.13,1.15.18Z"/>
      <path class="st0" d="M300.7,137.81c.24-.06.44-.13.61-.21-.2.05-.39.09-.58.14,0,.02-.01.05-.03.07Z"/>
      <path class="st0" d="M259.41,137.99h.35c.1-.04.2-.1.29-.16l-.64.16Z"/>
      <path class="st0" d="M274.04,137.73c-.33,0-.43.37-.56.53.18-.16.42-.24.71-.28,0-.07-.04-.15-.16-.25Z"/>
      <path class="st0" d="M297.24,136.74l.4-.09c-.11.02-.28.06-.4.09Z"/>
      <path class="st0" d="M248.94,137.73c-.02-.05-.07-.1-.13-.13,0,.05.05.09.13.13Z"/>
      <path class="st0" d="M298,136.72s.01.04.01.06c.08-.05.1-.08-.01-.06Z"/>
      <path class="st0" d="M314.85,134.54l-.22.1c0,.07,0,.15.02.21l.2-.3Z"/>
      <path class="st0" d="M176.31,131.91s.04,0,.06.01c.36-.01.16-.02-.06-.01Z"/>
      <path class="st0" d="M86.11,137.16c-1.43-.18,2.23-.64.09-.79.21.12-1.85.76-.09.79Z"/>
      <path class="st0" d="M300.32,137.82c-.2.03-.4.06-.6.09.28-.03.46-.05.6-.09Z"/>
      <path class="st0" d="M86.2,136.38h0s-.22-.01-.22-.01c.09,0,.14,0,.22.01Z"/>
      <path class="st0" d="M145.07,130.23c.06.07.18.12.31.17,0-.04-.08-.09-.31-.17Z"/>
      <path class="st0" d="M168.3,132.05l-.57-.09c.23.05.41.07.57.09Z"/>
      <path class="st0" d="M132.96,130.42c-.31-.03-.42-.08-.85-.03.04.02.08.03.13.05.16-.05.36-.07.72-.01Z"/>
      <path class="st0" d="M120.36,130.44c.07.03.16.04.23.07.12,0,.27-.02.4-.03l-.63-.04Z"/>
      <path class="st0" d="M260.35,141.27c.28.09.45.19.59.3-.2-.25,1.63-.43-.59-.3Z"/>
      <path class="st0" d="M300.67,137.61c-.06.1-.16.16-.35.21.14-.03.28-.06.42-.08.03-.06.03-.11-.07-.13Z"/>
      <path class="st0" d="M132.41,133.27l-1.99-.07c.56.04,1.28.06,1.99.07Z"/>
      <path class="st0" d="M170.57,136.96h.46c-.18-.03-.34-.03-.46,0Z"/>
      <path class="st0" d="M124.52,133.22c-.36-.13-.73-.22-1.12-.25-.08.03-.18.06-.23.1.45.03.9.09,1.35.15Z"/>
      <path class="st0" d="M260.95,141.57h0s0,0,0,0Z"/>
      <path class="st0" d="M273.94,139.83c-1.88.15-.84.54-1.22.85-2.24.33-1.07-.26-1.86-.44-1.39.25-2.44.78-3.49.85-.08-.07-.29-.08-.06-.2-1.47.46-4.42.23-6.14.79-.13-.04-.2-.07-.23-.11.29.23.35.47.3.64-.85.05-1.57.38-1.9.08.52-.02.56-.14.8-.25l-.88.18c-.82-.41,1.21-.21,1.19-.54-1.73.22-3.74.7-5.07.62-.29-.41,3.11-.29,1.32-.59l2.06.07c-1.6-.62,1.25-.01-.22-.68-2.7,0-3.01.38-5.72.27-.6.25.21.36-.39.61-3.84.48-3.04-1.06-5.85-.45-.73.3-1.01.87-3.03.58l.69-.49c-2.62-.08-1.5.69-4.25.31.49-.19,2.06-.13,1.67-.19-1.78-.42-1.26.26-2.63.23l-.28-.44c-2.79,0-5.88.33-8.98.24.18-.12.71-.24,0-.4-3.91.03-8.33-.36-12.07-.89l-1.46.29c-.33-.03-.61-.21-.24-.26-1.46-.23-.09.23-.8.34-.84-.03-1.09-.29-.55-.37-2.61.18-7.42.22-10.11-.42l.54-.07c-2.11-.32-2.45.59-4.4.08l.38-.04c-4.59-.5-9.71-.64-13.17-1.5-.72.49-4.54-.65-4.9.08-2.6-.62-1.83-.68-5.51-1.27-.99-.12-1.52.34-2.75.31v-.4s-1.69.26-1.69.26l-.84-.55h-1.16c.46.06.96.26.88.37-1.81.02-4.34-.67-4.37-.88l-4.27-.05c.11-.15.82-.14,1.39-.19-2.3.2-.37-.46-2.48-.26.27.11-.17.22-.23.3-1.01-.33-3.37-.53-5.12-.57l.36-.24c-3.14-.35-6.65-.43-10.2-.68,1.26.22.93.67-.11.64l-.38-.45c-.69.21,1.07.24-.33.45-1.32-.15-.85-.54-.09-.62l-1.62.03c-.09-.13.3-.17.41-.32-.68.21-2.75-.62-3.73-.24l-.08-.13c-3.55-.22-5.16-.16-8.05-.3-.08.36-1.2.21-2.08.46-2.11-.26-4.46-.59-7.02-.66-1.81.12-.54.29-1.35.47-.12-.33-2.68-.39-1.35-.58-3.08-.06-3.93-.09-7.82.16.42.14.89.2.65.31-.71.05-1.6-.15-1.5-.31l.19-.03c-2.19.23-4.7-.04-7.11-.27-2.41-.16-4.72-.3-6.45.08l.19-.04-3.6.44c-1.66-.02.99-.27-.25-.45-3.88.63-6.22.24-9.38.91-2.58-.73-8.73,1.06-12.07.7l.21.21c-.83.3-1.04-.05-1.67-.05.1.17.94.13.42.3-.67.08-1.31.14-1.93.16-.31.01-.62.01-.87,0-.12,0-.24-.03-.26-.03,0,.01.01-.03-.01.03-.04.11-.08.22-.12.33-.05.18-.1.32-.19.46-.14.28-.27.32-.26.31l.09,1.45c5.94-1.12,12.21-1.72,18.24-2.35,2.7-.28,1.38-1.39,4.86-1.24l-.92.53c5.39-1.2,11.17-.95,16.52-1.73-.32.12-.32.25-.84.28,1.15.24,4.19-.26,4.21-.49.84,0,.2.22.73.34,1.15.15,2.85-.47,3.47-.18.1.05-.32.11-.53.14.74-.17,3.46-.05,2.74-.39,2.02.12,3.87-.26,5.48-.09,1.05-.41,3.46.21,3.8-.36-.14.58,3.55.49,4.83.23-.43.17,1.11.19.61.43,1.46,0,2.8-.1,2.55-.4,2.67.73,5.42-.39,6.91.54,2.17-.08,4.27-.14,6.31-.19,2.04,0,4.02.02,5.98.06-.17.57-4.32-.18-4.18.44,3.71-.04,5.88-.42,9.54-.07.95.13-.56.22-.88.3,3.71-.05,7.14.54,10.46.44-.01.05-.37.09-.71.11.65.03,1.5.19,1.45-.08l-.64.03c-1.01-.46,2.63-.62,2.77-.81-1.16.67,3.24.43,1.42,1.25.43-.02.98-.1.89-.28.63.1.82.22.16.37,2.33.04,1.53-.3,3.63-.13-.02.13-.45.14-.68.27,1.08-.16,2.18-.33,3.94-.08-.11.07.09.18-.45.14,3.06.21,5.26-.25,8.59.28-1.03.47,1.12.28,1.26.77h1.81s-.7-.28-.7-.28c1.58.14,3-.09,4.35.18l-1.19.1,2.97.16-1.66-.32c1.62-.11-.12-.62,1.97-.31-.43.01,1.58.14,2.38.49h0c.79-.09,1.61-.18,2.77.03.29.18-.29.51-.1.63.8-.34,3.71.19,4.72-.15-.33.07-.37.32-.27.38l.67-.27c.72.16.83.22.69.41,2.2.24-.65-.66,1.94-.19-.21.01-.11.07-.54.08,2.61.33,5.09.17,7.49.51.68.54-2.12-.04-1.33.43,3.49.18,7.24-.03,10.61.27l-.62-.09c.51-.65,2.49.49,4.21.27-.42.02-.57.35-.45.28,2.3.24,4.73.15,8.24.06l-.44.16c1.35.21,3.58.24,5.05.38.44-.16,1.28-.09.78-.37,4.5,1.24,8.67-.32,12.68.61-.48,0-1.15.13-.77.14l3.43-.1c-.27-.3-.45-.19-1.17-.43.44-.17,1.4-.29,2.25-.28-1.54.17.01.49.68.64-.11-.09.12-.19.06-.29,1.79.51.3-.6,2.75-.28l-.13.16c.92-.09,1.76-.31,2.74-.28.41.34-.97.17-1.03.46,1.39-.04,2.73-.69,3.99-.36-.59.1-1.43.12-2.02.22,1.37.39,1.53.28,2.55.33h-.1s2.36.14,2.36.14l-.6-.1c1.71-.9,3.53-.31,5.84-1-2.24.67-.36.34-.52.74.6.08,1.52.16,1.26.28,1.09-.37,1.86.16,3.4-.38.08.12,1.18-.05.95.28,1.43-.17-.35-.2-.24-.37,1.09-.28,2.4-.18,3.83-.19,1.43-.02,2.98-.07,4.54-.51,2.72-.49,3.18-.96,5.7-1.4.88.12-.65.52-.65.52,1.4.05,2.44-.05,3.73-.38-.25.15.03.2.45.28,1.04-.19.63-.55,2.03-.6-.21.18-.47.45-.96.67,1.22-.31,2.38-.77,3.62-1.11.38.15-.7.47-1.12.69,1.41-.36,3.62-.89,4-1.31l-.93.05c.51-.11.32.24-.05.38-1.16.5-1.77.21-1.86.1l.88-.25c-1.06-.55-3.57.81-5.41,1.03l.67-.65-1.8.71c-.42-.09-.72-.35.16-.55-1.33-.1-1.13.33-2.29.14-.13-.03-.08-.07.04-.1l-1.26.27c.24-.13-.25-.36.54-.35-2.32-.1-3.66.74-4.56.41l.19-.05c-3.16.47-.27.42-2.62,1.1l-1.68-.82-.28.42c-.33.02-.98.05-.87-.12-1.2.38.22.15-.47.47-1.61-.24-4.36.39-4.76-.2-.55.33,1.53.16-.15.45-.52-.65-1.95.21-3.42-.03.43-.37,1.81-.25.35-.49-.85.63-2.82.01-4.04.18-.04.5-2.65.28-4.7.45.13-.16-3.86-.21-5.77-.35l.06-.08c-.37.47-2.34.43-3.77.52.06-.29.32-.38,1.09-.52-.45.01-.9,0-1.35,0-.32.15-.74.22-1.61.26l.34-.35c-1.79-.01-3.61.36-5.92.08-.14.33,1.82.95-.63,1.13-.09-.18-.17-.49.47-.55-.21.02-.75.14-1.17.05l.98-.28c-1.05-.15-.56.24-1.4.2.02-.25-.62-.19-.49-.39.21-.02.73.12,1.05.02-.95-.06-2.09-.23-2.46-.43.08.15,0,.34-.7.36-1.79-.05-.6-.33-1.64-.5-.44.16-1.58-.07-1.62.31-.52-.02-.61-.21-.81-.32-.93.13-4.33-.13-3.3.31l.24.04s-.1,0-.15.01h0s0,0,0,0c-3.06.26-6.31-.48-9.33-.52v-.13c-1.8.03-4-.16-5.3.04-.53-.03-1.24-.31-1-.45-1.38,0-1.55.16-3.52-.21,1.4-.12-.46-.23,1.43-.06-1.78-.24-2.17-.48-4.11-.27.68-.28-1.31-.51-2.17-.48l1.23.33c-.96-.02-1.79-.12-2.64-.21l.49-.39c-3.61-.79-6.66.39-9.37-.72-.99.22,1.97.37,1.07.65-1.68-.2-3.38-.95-3.9-1-2.28-.43-2.2.45-4.59.09.3.18.55.61-1.26.6-1.68-.2-2.01-.81-.94-.85.4.02.6.09.57.14.55,0,1.27-.01.61-.24l-.23.13c-.82-.23-3.14-.4-2.57-.61-1.28.04-.56.2.37.36-2.14-.4-3.37-.29-5.58-.63.35.11.66.32.3.29-3.24-.46-1.46.17-3.67.05-1.23-.34.5-.52-1.74-.51-1.34-.27-.25-.43.3-.51-2.05.13-3.77-.5-4.92-.64l1.08-.04c-.64.02-1.17-.02-1.7-.07l.59.35c-.62-.1-1.15-.15-1.13-.27-.66.15.45.55-.85.72-.82-.22-2.56-.04-2.81-.47,2.62.35-.26-.43,1.97-.32-.43.01-.96-.03-1.58-.13-.09-.05.1-.08.27-.09-2.49-.56-1.19.35-3.8.16.35-.2-.57-.48-1-.46,1.05.08.47.42-.5.52-1.66-.3-1.83,0-2.7-.08l.99.15c-.36.2-1.19.12-2.36.11-.09-.18,1.07-.05.66-.16-1.32.31-2.9-.62-4.72-.48-.83-.21-.05-.43-.78-.59-2.04.16-2.18-.44-4.32-.32.6.34.71.27-.81.49l3.51-.02-2.27.32c1.06.06,2.24-.07,2.87.02-1.09.19-.97.12-.48.4-1.42-.54-2.88.11-4.53-.29l.09-.76c-2.5-.47-4.49.14-7.74-.22l1.04.18c-.45.27-2.02-.04-3.08.05.11-.25-.55-.37-.99-.54.05.19-2.39-.1-2.71.4l-1.45-.38c-2.64-.22-3.03.61-5.56.47.77-.26-.38-.48,1.32-.63-.85-.04-1.61-.08-1.63.1-.49-.16-2.36.33-3.13.08-.36.11-.48.38-1.43.35-.1-.05,0-.13,0-.13,0,.13-1.49.16-.66.45-2.61-.81-7.28-.02-9.56-.59-1.85.13-4.07.27-5.75.33.1-.08,0-.13.32-.11-2.32-.18-1.4.77-4.04.57-1.36-.35,1.39-.28.54-.39-.4-.86-3.17.3-4.97-.08l.43-.08c-1.37-.2-3.29.53-5.5.61,0,0,.1-.08,0-.13-1.48.51-4.33.84-6.44,1.19.63-.39.95-.27.51-.56-.95.14.33.5-1.56.79-.63-.12-2.02-.12-2.24-.45l1.79-.22c-.97-.36-2.32.27-3.27.31l.1-.21c-2.74.4-2.71.91-5.65,1.28l.32.11c-1.53.72-1.38-.09-2.93.52l-.56-.43c-1.04.28-3.62,1.06-5.49,1.48,1.01-.55,3.19-1.11,4.52-1.54-1.05.15-3.55.61-4.05.95.41-.12.92-.33,1.35-.32-1.22.61-2.87,1.08-4.94,1.44.12-.65-2.07-.2-4.12.13l-.84.13v.87c0,.24.11.55.23.71.1.13.23.25.36.35.15.09.36.19.46.21.26.09.43.11.62.14.36.06.66.09.94.12.56.06,1.01.13,1.32.26,3.76-.61,7.45-.53,11.75-1.06-1.61-.6,1.25-.16.9-.91,1-.16,1.38-.18,1.48-.14l3.08.19c.74.17-.93.25-.83.42,2.18-.12.94.25,2.4.35-.32-.26.73-.46,1.97-.42l-1.77-.25c3.02-.62,2.65.51,5.73.02l-.97.27c1.59-.18,5.86-.12,7.41-.79.28.08.66.29-.04.36,3.8-.03,8.47-.64,11.43-.26l-.29.19c.71-.05,1.24-.35,2.13-.15-.05.08-.29.19.04.2.38-.08,1.89-.29,2.83-.14l-.81.19c3.7.38,5.72-.33,8.84-.35-.03.55,2.88.87,4.33,1.06l-.05.08c4.31.34,7.37-.1,11.39,0,2.44.81,8.4.84,12.36,1.55-.6-.15.14-.43.85-.43.93.19,2.62-.17,2.43.33l-.33-.04c.66.57,2.6.6,4.1.74l.31-.66c3.84,1.34,10.34.57,12.4,1.64.96-.08,2.14.03,3.1-.06l-.08.36c2.62.33,3.93.5,7.19.71l-.69.2c1.83.19,2.41-.84,4.11-.72l.46.59c3.2.26,6.4,1.04,9.61.8-.06.08-.17.23-.69.21,1.51.13,5.81.82,5.32.03,0,.49,3.31.3,5.05.22l-.3.34c1.49-.34,1.55-.48,3.6-.47.48.08.41.31-.23.18,1.6.29,1.28-.26,3.22.05l-.74.18c1.66.13,1.53,0,2.46-.21,1.05-.08,3.14.29,3.37.63.23-.18,1.16-.39,2.13-.26.13.13-.23.19-.42.22,2.77.36,4.15-.24,6.05.19.04.12.16.19.31.23-2.21-.1-3.99-.2-3.82-.22-.02.33,1.77.46.33.86,1.45-.19,3.92-.63,5.65-.4.08.04.16.07.23.12l-.18.03c.4.05.76.03,1.1,0,.55.08.9.14,1.44.15.2.28,2.05.18,2.94.21-.07-.36,1.1-.29.01-.6.14.03-.17.04-.76.05-.13,0-.29.01-.38.03.02,0,.04-.02.06-.03-.59,0-1.35,0-2.22-.01.71-.17,1.45-.31,2.43-.1.46-.22.97-.46,1.26-.56,1.21.53,3.55.84,3.88,1.16,1.36-.08,2.97-.07,4.44-.17,1.48-.11,2.83-.28,3.68-.63.77-.1.89.18,1.18.29-.45.07-.98.07-1.22.17,1.55-.19,4.58-.12,4.94-.61,1.95.19-1.09.45,1.59.34l-.36.15c2.65.35,4.78-.12,6.98-.48,2.2-.4,4.46-.69,7.41-.44-.41-.02-.61-.04-.7-.11,3.33-.07,6.75-.47,10.15-.83,3.4-.38,6.78-.91,10.08-1.09,1.87-.16,2.02-.5,3.1-.92l.47.31,1.84-.78c2.65-.81,4.88.07,8.19-1.2l-.49-.17c1.24-.19,3.87-.91,3.72-.57.12-.07.35-.35.86-.3l.08.19,2.96-.92c1.15-.13,1.22.04,1.31.21.15.15.34.27,2.01-.29,1.2-.5,3.29-1.77,2.79-1.74-.5.16-1.3.32-1.41.14l1.08-.49c0-.64.67-1.52-2.22-.96l-1.79,1.01-.71-.06,1.61-.58c-.98.05-1.56.51-2.04.85-.02-.15-.35-.2-.76-.18l-1.85.93c-.28-.19.79-.63-.55-.5-.87.44.98.35-.51.81-1-.08-.77-.36-1.84.09-.19-.12.03-.26.46-.42-.96.37-2.62.59-3.07,1-1.06-.14-3.34.73-3.35.15-.29.19-1.67.77-2.57.96,1.54-.97-3.42.59-3.11-.22-1.13.82-4.4,1.04-6.54,1.7.12-.07.34-.2.54-.2-1.24.13-1.62,0-2.43,0-.09.53-1.99.9-2.99,1.34-1.57-.3.85-.7.31-1.11.13.41-2.58.71-2.02.99-1.19-.18-1.02-.05-1.66-.41-.14.65-1.07.2-2,.67-1.72-.16-.49-.55-2.32-.2-.9-.12.73-.48.73-.48ZM229.76,141.89h0c.38,0,.71,0,.92.01-.19,0-.45,0-.92-.01ZM226.04,141.74c.45.02,1.02.05,1.61.08.13.13-.02.25-.4.23.21-.08-.67-.18-1.22-.31ZM233.85,144.54c-.59.04-.79-.03-.87-.11.28,0,.61-.01,1.04-.03.02-.01.05-.03.07-.04-.06.07-.12.13-.24.18Z"/>
      <path class="st0" d="M234.92,144.09c.09,0,.13-.02.24-.02-.12-.03-.24-.06-.35-.09-.07.04-.15.08-.21.11.11,0,.22,0,.32,0Z"/>
      <path class="st0" d="M240.86,137.9h-.08c.06,0,.12.02.16.05-.05-.02-.05-.03-.08-.05Z"/>
      <polygon class="st0" points="174.73 137.16 174.73 137.25 175.06 137.2 174.73 137.16"/>
      <path class="st0" d="M261.39,139.65s.12.06.27.09c-.01-.02-.13-.05-.27-.09Z"/>
      <path class="st0" d="M270.3,139.61l1.26.11c-.55-.07-.94-.1-1.26-.11Z"/>
      <path class="st0" d="M277.15,139.55c.08-.07.11-.12.13-.16h-.01s-.11.16-.11.16Z"/>
      <path class="st0" d="M168.6,134.51c-.09,0-.18,0-.26,0-.62.03-.2.03.26,0Z"/>
      <path class="st0" d="M200.87,136.26c-.35.04-.69.07-1.05.09.57.07,1.02.12,1.05-.09Z"/>
      <path class="st0" d="M132.63,133.28h0c-.08,0-.14,0-.22,0h.22Z"/>
      <path class="st0" d="M198.33,136.21c.57.12,1.05.14,1.5.13-.47-.06-1.02-.15-1.5-.13Z"/>
      <path class="st0" d="M306.74,136.76l.32-.05s0-.05.03-.06l-.35.11Z"/>
      <path class="st0" d="M307.1,136.65l.35-.11c-.16.03-.31.06-.35.11Z"/>
      <path class="st0" d="M308.18,136.31l-.74.23c.26-.05.58-.1.74-.23Z"/>
      <path class="st0" d="M297.72,138.04l-.09.14c.05-.03.09-.08.09-.14Z"/>
      <path class="st0" d="M294.97,138.33c.66-.03,1.67.13,2.58-.04l.07-.11c-.41.23-2.05-.13-2.65.15Z"/>
      <path class="st0" d="M283.4,137.65h2.3c-.41-.13-.95-.29.09-.38-2.92-.26.62.29-2.39.38Z"/>
      <path class="st0" d="M276.28,137.8c1.23-.13-.02-.2.04-.28-.78.17-.96.21-.04.28Z"/>
      <path class="st0" d="M224.8,136.72l.15-.32c-.95-.01-.02.13-.15.32Z"/>
      <polygon class="st0" points="214.84 137.71 215.75 137.98 216.22 137.71 214.84 137.71"/>
      <polygon class="st0" points="209.22 134.92 209.64 134.91 208.04 134.89 209.22 134.92"/>
      <path class="st0" d="M122.6,130.07l.29.4c.65-.09.78-.55-.29-.4Z"/>
      <path class="st0" d="M85.18,133.09c-.43-.14-1.5-.13-2.11.17.84-.1,1.7-.06,2.11-.17Z"/>
      <polygon class="st0" points="164.55 139.51 163.79 139.58 165.21 139.59 164.55 139.51"/>
    </g>
  </g>
  <g>
    <path class="st0" d="M54.71,182.94h2.29v14.19c0,2.5-.22,4.33-.65,5.48-.6,1.64-1.64,2.9-3.13,3.78-1.48.88-3.27,1.33-5.35,1.33-1.53,0-2.9-.22-4.12-.65-1.22-.43-2.21-1.01-2.97-1.74-.76-.73-1.47-1.79-2.11-3.19h2.49c.68,1.18,1.55,2.05,2.62,2.62s2.4.85,3.98.85,2.88-.29,3.96-.87c1.08-.58,1.84-1.31,2.3-2.19.46-.88.69-2.3.69-4.27v-.92c-.86,1.09-1.92,1.93-3.16,2.51-1.25.58-2.57.88-3.97.88-1.64,0-3.18-.41-4.62-1.22-1.44-.81-2.56-1.91-3.34-3.28-.79-1.38-1.18-2.89-1.18-4.53s.41-3.18,1.23-4.61c.82-1.42,1.95-2.55,3.4-3.38,1.45-.83,2.97-1.24,4.58-1.24,1.33,0,2.58.28,3.73.83,1.15.55,2.26,1.46,3.33,2.73v-3.09ZM47.95,184.69c-1.3,0-2.5.31-3.62.94-1.11.63-1.99,1.5-2.62,2.6s-.95,2.31-.95,3.59c0,1.95.65,3.57,1.96,4.85,1.31,1.28,3.01,1.92,5.09,1.92s3.8-.63,5.08-1.9c1.28-1.27,1.92-2.93,1.92-4.99,0-1.34-.29-2.54-.88-3.59-.59-1.05-1.42-1.88-2.5-2.5-1.08-.61-2.24-.92-3.49-.92Z"/>
    <path class="st0" d="M61.62,182.94h2.29v8.32c0,2.03.11,3.43.33,4.19.33,1.09.95,1.95,1.88,2.59.92.63,2.02.95,3.3.95s2.36-.31,3.25-.92c.89-.62,1.51-1.43,1.84-2.43.23-.69.34-2.14.34-4.37v-8.32h2.34v8.74c0,2.46-.29,4.3-.86,5.55s-1.44,2.22-2.59,2.92-2.59,1.06-4.33,1.06-3.18-.35-4.35-1.06-2.03-1.69-2.6-2.95c-.57-1.26-.86-3.16-.86-5.69v-8.58Z"/>
    <path class="st0" d="M83.08,175.61c.52,0,.97.19,1.34.56.37.37.55.82.55,1.34s-.19.96-.55,1.33c-.37.37-.81.56-1.34.56s-.95-.19-1.32-.56c-.37-.37-.55-.81-.55-1.33s.18-.97.55-1.34c.37-.37.81-.56,1.32-.56ZM81.95,182.94h2.29v17.81h-2.29v-17.81Z"/>
    <path class="st0" d="M106.78,176.07v24.69h-2.26v-3.06c-.96,1.17-2.04,2.05-3.23,2.64-1.19.59-2.5.88-3.92.88-2.52,0-4.67-.91-6.46-2.74-1.78-1.83-2.68-4.05-2.68-6.67s.9-4.76,2.7-6.58c1.8-1.82,3.97-2.73,6.5-2.73,1.46,0,2.79.31,3.97.93s2.22,1.55,3.12,2.8v-10.15h2.26ZM97.62,184.69c-1.28,0-2.45.31-3.53.94-1.08.63-1.94,1.51-2.58,2.64s-.96,2.33-.96,3.6.32,2.45.96,3.6,1.51,2.04,2.59,2.67c1.08.64,2.25.96,3.49.96s2.44-.32,3.56-.95c1.12-.63,1.99-1.49,2.59-2.57.6-1.08.91-2.29.91-3.65,0-2.06-.68-3.78-2.04-5.17-1.36-1.38-3.03-2.08-5.01-2.08Z"/>
    <path class="st0" d="M126.96,194.84l1.93,1.01c-.63,1.24-1.37,2.25-2.2,3.01-.83.76-1.76,1.35-2.8,1.74-1.04.4-2.21.6-3.52.6-2.91,0-5.18-.95-6.82-2.86-1.64-1.9-2.46-4.06-2.46-6.46,0-2.26.69-4.27,2.08-6.04,1.76-2.25,4.11-3.37,7.06-3.37s5.46,1.15,7.27,3.45c1.29,1.63,1.94,3.66,1.97,6.09h-16.03c.04,2.07.7,3.76,1.98,5.09s2.86,1.98,4.74,1.98c.91,0,1.79-.16,2.65-.47s1.59-.73,2.19-1.26,1.25-1.36,1.95-2.53ZM126.96,190.05c-.31-1.22-.75-2.2-1.34-2.93-.58-.73-1.36-1.32-2.32-1.77-.96-.45-1.97-.67-3.03-.67-1.75,0-3.25.56-4.51,1.69-.92.82-1.61,2.05-2.08,3.68h13.28Z"/>
    <path class="st0" d="M151.53,176.07v24.69h-2.26v-3.06c-.96,1.17-2.04,2.05-3.23,2.64-1.19.59-2.5.88-3.92.88-2.52,0-4.67-.91-6.46-2.74-1.78-1.83-2.68-4.05-2.68-6.67s.9-4.76,2.7-6.58c1.8-1.82,3.97-2.73,6.5-2.73,1.46,0,2.79.31,3.97.93s2.22,1.55,3.12,2.8v-10.15h2.26ZM142.38,184.69c-1.28,0-2.45.31-3.53.94-1.08.63-1.94,1.51-2.58,2.64s-.96,2.33-.96,3.6.32,2.45.96,3.6,1.51,2.04,2.59,2.67c1.08.64,2.25.96,3.49.96s2.44-.32,3.56-.95c1.12-.63,1.99-1.49,2.59-2.57.6-1.08.91-2.29.91-3.65,0-2.06-.68-3.78-2.04-5.17-1.36-1.38-3.03-2.08-5.01-2.08Z"/>
    <path class="st0" d="M166.15,200.75v-24.69h2.29v9.94c.96-1.18,2.03-2.06,3.22-2.64,1.19-.58,2.49-.88,3.91-.88,2.52,0,4.67.91,6.45,2.74,1.78,1.83,2.67,4.05,2.67,6.65s-.9,4.77-2.7,6.6-3.96,2.73-6.49,2.73c-1.45,0-2.76-.31-3.94-.93-1.18-.62-2.22-1.56-3.12-2.8v3.27h-2.29ZM175.32,199c1.27,0,2.45-.31,3.53-.94,1.08-.63,1.94-1.51,2.57-2.64.64-1.13.96-2.33.96-3.6s-.32-2.47-.96-3.62c-.64-1.15-1.5-2.04-2.59-2.68-1.08-.64-2.24-.96-3.47-.96s-2.44.32-3.57.96c-1.13.64-1.99,1.5-2.6,2.58-.6,1.08-.91,2.3-.91,3.65,0,2.06.68,3.79,2.03,5.17,1.36,1.39,3.02,2.08,5.01,2.08Z"/>
    <path class="st0" d="M186.96,182.94h2.42l6.12,13.71,5.94-13.71h2.44l-10.62,24.33h-2.42l3.43-7.86-7.31-16.46Z"/>
    <path class="st0" d="M218.13,176.33h2.29v6.61h3.63v1.98h-3.63v15.83h-2.29v-15.83h-3.13v-1.98h3.13v-6.61Z"/>
    <path class="st0" d="M227.49,176.07h2.29v10.07c.93-1.22,1.95-2.14,3.06-2.74,1.11-.61,2.32-.91,3.62-.91s2.51.34,3.54,1.01c1.03.68,1.79,1.59,2.28,2.73.49,1.14.74,2.93.74,5.36v9.17h-2.29v-8.5c0-2.05-.08-3.42-.25-4.11-.28-1.18-.8-2.07-1.55-2.66-.75-.59-1.73-.89-2.94-.89-1.39,0-2.63.46-3.72,1.38-1.1.92-1.82,2.05-2.17,3.4-.22.87-.33,2.49-.33,4.85v6.53h-2.29v-24.69Z"/>
    <path class="st0" d="M262.93,194.84l1.93,1.01c-.63,1.24-1.37,2.25-2.2,3.01-.83.76-1.76,1.35-2.8,1.74-1.04.4-2.21.6-3.52.6-2.91,0-5.18-.95-6.82-2.86-1.64-1.9-2.46-4.06-2.46-6.46,0-2.26.69-4.27,2.08-6.04,1.76-2.25,4.11-3.37,7.06-3.37s5.46,1.15,7.27,3.45c1.29,1.63,1.94,3.66,1.97,6.09h-16.03c.04,2.07.7,3.76,1.98,5.09s2.86,1.98,4.74,1.98c.91,0,1.79-.16,2.65-.47s1.59-.73,2.19-1.26,1.25-1.36,1.95-2.53ZM262.93,190.05c-.31-1.22-.75-2.2-1.34-2.93-.58-.73-1.36-1.32-2.32-1.77-.96-.45-1.97-.67-3.03-.67-1.75,0-3.25.56-4.51,1.69-.92.82-1.61,2.05-2.08,3.68h13.28Z"/>
    <path class="st0" d="M287.96,184.89l-1.47,1.52c-1.23-1.19-2.42-1.78-3.59-1.78-.74,0-1.38.25-1.91.74-.53.49-.8,1.06-.8,1.72,0,.58.22,1.13.66,1.65.44.54,1.36,1.16,2.76,1.88,1.71.88,2.86,1.74,3.48,2.55.6.83.9,1.76.9,2.8,0,1.46-.51,2.7-1.54,3.72-1.03,1.02-2.31,1.52-3.85,1.52-1.03,0-2.01-.22-2.94-.67-.93-.45-1.71-1.06-2.32-1.85l1.44-1.64c1.17,1.32,2.41,1.98,3.72,1.98.92,0,1.7-.29,2.35-.88.65-.59.97-1.28.97-2.08,0-.66-.21-1.24-.64-1.75-.43-.5-1.39-1.13-2.89-1.9-1.61-.83-2.7-1.65-3.28-2.46s-.87-1.73-.87-2.77c0-1.35.46-2.48,1.39-3.37.92-.9,2.09-1.34,3.5-1.34,1.64,0,3.29.8,4.95,2.41Z"/>
    <path class="st0" d="M292.05,182.94h2.29v3.27c.91-1.24,1.95-2.18,3.12-2.8,1.18-.62,2.49-.93,3.94-.93,2.53,0,4.69.91,6.49,2.73,1.8,1.82,2.7,4.02,2.7,6.58s-.89,4.84-2.67,6.67c-1.78,1.83-3.93,2.74-6.45,2.74-1.42,0-2.72-.29-3.91-.88-1.19-.59-2.26-1.47-3.22-2.64v9.58h-2.29v-24.33ZM301.22,184.69c-1.98,0-3.65.69-5.01,2.08-1.36,1.38-2.03,3.11-2.03,5.17,0,1.35.3,2.57.91,3.65.6,1.08,1.47,1.93,2.6,2.57,1.13.63,2.32.95,3.57.95s2.39-.32,3.47-.96c1.08-.64,1.95-1.53,2.59-2.67.64-1.14.96-2.34.96-3.6s-.32-2.46-.96-3.6-1.49-2.01-2.57-2.64c-1.08-.63-2.25-.94-3.53-.94Z"/>
    <path class="st0" d="M315.68,175.61c.52,0,.97.19,1.34.56.37.37.55.82.55,1.34s-.19.96-.55,1.33c-.37.37-.81.56-1.34.56s-.95-.19-1.32-.56c-.37-.37-.55-.81-.55-1.33s.18-.97.55-1.34c.37-.37.81-.56,1.32-.56ZM314.54,182.94h2.29v17.81h-2.29v-17.81Z"/>
    <path class="st0" d="M320.73,182.94h2.34v2.6c.7-1.03,1.44-1.79,2.21-2.3.77-.51,1.58-.76,2.42-.76.63,0,1.31.2,2.03.61l-1.2,1.93c-.48-.21-.88-.31-1.21-.31-.76,0-1.5.31-2.21.94-.71.63-1.25,1.6-1.62,2.92-.28,1.01-.43,3.07-.43,6.15v6.02h-2.34v-17.81Z"/>
    <path class="st0" d="M332.48,175.61c.52,0,.97.19,1.34.56.37.37.55.82.55,1.34s-.19.96-.55,1.33c-.37.37-.81.56-1.34.56s-.95-.19-1.32-.56c-.37-.37-.55-.81-.55-1.33s.18-.97.55-1.34c.37-.37.81-.56,1.32-.56ZM331.34,182.94h2.29v17.81h-2.29v-17.81Z"/>
    <path class="st0" d="M340.39,176.33h2.29v6.61h3.63v1.98h-3.63v15.83h-2.29v-15.83h-3.13v-1.98h3.13v-6.61Z"/>
  </g>
</svg>