<?xml version="1.0" encoding="UTF-8"?>
<svg id="Layer_1" data-name="Layer 1" xmlns="http://www.w3.org/2000/svg" viewBox="0 0 512 512">
  <defs>
    <style>
      .cls-1, .cls-2, .cls-3 {
        fill: #76573e;
      }

      .cls-2 {
        font-family: Montserrat-Regular, Montserrat;
        font-size: 48.85px;
        font-variation-settings: 'wght' 400;
      }

      .cls-4 {
        fill: #202020;
      }

      .cls-3 {
        font-family: CenturyGothic, 'Century Gothic';
        font-size: 28px;
      }

      .cls-5 {
        letter-spacing: -.02em;
      }

      .cls-6 {
        letter-spacing: -.02em;
      }
    </style>
  </defs>
  <g>
    <g>
      <path class="cls-1" d="M138.95,228.9c4.91-.68,18.12-4.64,27.24-16.94,9.12-12.29,21.17-22.58,23.62-24.58s8.22-8.64,6.34-12.33c-1.87-3.69-10.62.99-15.42,4.45-4.23,3.04-10.86,11.68-15.13,11.74-3.1.04-6.68-1.44-3.04-8.36,4.24-8.05,14.7-14.44,20.59-16.6s23.77-9.02,28.6-11.63c4.83-2.61,8.06-6.52,8.66-9.28.6-2.76-2.74-2.98-7.28-.7-4.54,2.29-17.8,6.59-22.29,7.66-1.4.33-22.64,5.97-26.07,7.78-3.44,1.81-34.35,28.89-38.95,31.71-4.93,3.01-8.57,6.47-20.77,13.02.34,12.65,1.21,9.2,5.8,21.24,1.29.39,6.77,13.71,6.93,13.5,6.53-8.1,14.2-9.73,21.16-10.69Z"/>
      <path class="cls-1" d="M192.23,186.44s-2.09,1.95-4.71,4.15-5.13,4.82-5.13,4.82c15.37,2.63,21.15-1.71,22.84-3.85,1.61-2.04-.45-3.21-1.21-3.3-7.59-.82-11.79-1.82-11.79-1.82Z"/>
      <path class="cls-1" d="M222.91,174.3c-4.94.03-9.73.33-16.09-.38-6.36-.71-10.48-.94-10.48-.94,0,0,4.17,2.96-1.26,10.13,0,0,7.42-.02,11.46.38,4.04.4,11.7-.32,15.45-2.67,3.19-2,5.59-6.55.92-6.52Z"/>
      <path class="cls-1" d="M225.97,156.56c-4.17.77-23.12,3.04-23.12,3.04,0,0-7.69,3.12-20.52,8.13-13.13,5.13-22.09,17.78-20.03,20.76,2.06,2.99,5.12,1.25,6.46.44,1.34-.8,6.11-5.45,8.07-7.34,2.14-2.05,4.95-4.03,4.95-4.03,9.93-7.03,25.82-8.24,28.02-8.63,2.2-.38,9-1.09,15.57-3.55,6.57-2.46,7.87-5.91,7.87-7.84,0-1.9-3.1-1.76-7.28-.99Z"/>
    </g>
    <g>
      <path class="cls-1" d="M367.87,72.98c.48.24.65-.29-.36-1.23l-1.25-.18,1.61,1.41Z"/>
      <path class="cls-1" d="M362.55,65.26c-1.44-.86-3.24-1.68-3-.43,1.67.57,1.73,1.06,3.61,1.63,1.02.93,1.47,1.93,1.1,1.96.48.22,1.33,1.68,2.2,1.89-.39-.86-.97-1.72-1.7-2.53-.72-.82-1.61-1.58-2.66-2.22-.24-.48.26-.28.44-.3Z"/>
      <path class="cls-1" d="M239.01,20.6h.88c-.24-.03-.55-.02-.88,0Z"/>
      <path class="cls-1" d="M161.38,51.45c.5-.4.67-.63.65-.71-.45.4-.81.74-.65.71Z"/>
      <path class="cls-1" d="M149.8,60.21c.24-.2.44-.37.66-.55-.29.17-.56.36-.66.55Z"/>
      <path class="cls-1" d="M239.01,20.6h-2.27c-.13.27,1.17.06,2.27,0Z"/>
      <path class="cls-1" d="M347.4,54.42c.39.26.73.44,1.07.58-.32-.21-.62-.42-.94-.63-.04.02-.08.04-.13.05Z"/>
      <path class="cls-1" d="M276.24,20.52l.68.09c.21-.06.42-.14.61-.24l-1.3.15Z"/>
      <path class="cls-1" d="M304.19,26.91c-.61-.23-1.03.33-1.36.53.43-.15.93-.12,1.48.01.05-.12.02-.29-.13-.54Z"/>
      <path class="cls-1" d="M343.95,48.46l.71.39c-.18-.1-.49-.27-.71-.39Z"/>
      <path class="cls-1" d="M255.77,18.94c-.05-.1-.15-.19-.26-.24,0,.08.1.16.26.24Z"/>
      <path class="cls-1" d="M385.31,100.24c.05,0,.06-.05.1-.06-.14-.11-.2-.13-.1.06Z"/>
      <path class="cls-1" d="M369.18,71.81l.32.33c.13-.05.25-.09.35-.17l-.67-.15Z"/>
      <path class="cls-1" d="M131.31,79.44s.05-.05.08-.09c.38-.6.14-.28-.08.09Z"/>
      <path class="cls-1" d="M163.96,297.59c-1.9-2.08,4.11,1.99,1.12-.96.17.44-3.7-1.35-1.12.96Z"/>
      <path class="cls-1" d="M346.89,53.9c-.3-.23-.6-.47-.9-.71.4.34.67.56.9.71Z"/>
      <path class="cls-1" d="M165.08,296.63h0s-.31-.3-.31-.3c.13.13.2.2.31.3Z"/>
      <path class="cls-1" d="M105.27,134.84c.14-.09.28-.31.43-.54-.07,0-.18.12-.43.54Z"/>
      <path class="cls-1" d="M123.64,93.16l-.64.93c.27-.36.47-.66.64-.93Z"/>
      <path class="cls-1" d="M102.21,158.37c-.1.61-.21.81-.19,1.65.04-.07.07-.15.1-.25-.07-.31-.07-.72.09-1.4Z"/>
      <path class="cls-1" d="M101.87,182.96c.04-.13.07-.31.11-.46-.03-.24-.06-.53-.08-.78l-.03,1.24Z"/>
      <path class="cls-1" d="M404.43,169.37c.18-.53.39-.86.59-1.12-.47.38-.68-3.12-.59,1.12Z"/>
      <path class="cls-1" d="M347.63,54.12c-.21.05-.43-.02-.74-.21.22.16.44.32.65.47.12-.04.19-.1.09-.25Z"/>
      <path class="cls-1" d="M107.38,159.82l-.42,3.76c.15-1.05.3-2.41.42-3.76Z"/>
      <path class="cls-1" d="M319.66,307.42l.75-.45c-.31.13-.58.28-.75.45Z"/>
      <path class="cls-1" d="M106.83,174.79c-.23.68-.36,1.4-.44,2.14.05.16.1.33.18.43l.26-2.58Z"/>
      <path class="cls-1" d="M405.03,168.24s0,0,0,0c0,0,0,0,0,0Z"/>
      <path class="cls-1" d="M400.62,143.66c.71,3.52,1.19,1.49,1.84,2.15.92,4.23-.33,2.08-.54,3.6.32,1.31.76,2.44,1.16,3.5.36,1.06.65,2.06.74,3.06-.13.17-.14.56-.37.12.25.69.43,1.56.59,2.53.07.49.14.99.21,1.52.04.53.08,1.06.12,1.61.15,2.17.37,4.39.86,6.05-.07.25-.15.38-.21.44.43-.55.88-.65,1.2-.55.03,1.64.59,3.04.02,3.66,0-1-.23-1.09-.41-1.55l.27,1.71c-.81,1.55-.31-2.34-.92-2.32.15,1.66.41,3.46.61,5.17.13,1.71.17,3.33.01,4.61-.83.5-.06-5.98-.9-2.59l.22-1.97.13-1.97c-1.24,3,.06-2.39-1.27.37-.03,1.29-.05,2.29-.07,3.15,0,.86.02,1.58.04,2.3.03,1.44.17,2.89-.21,5.44.35,1.19.69-.33,1.05.86.05,1.85-.09,3.13-.3,4.09-.24.95-.59,1.58-.9,2.15-.63,1.14-1.19,2.01-1.01,4.75.32,1.45,1.2,2.16,0,5.87l-.66-1.46c-.49,2.45-.29,3.22-.21,4,.09.78.11,1.58-.79,4.08-.14-1,.59-3.91.32-3.19-1.47,3.15-.04,2.46-.63,5.01l-.92.32c-.33,1.29-.64,2.62-.95,3.98-.32,1.36-.57,2.76-.97,4.14-.76,2.77-1.45,5.66-2.52,8.43-.1-.39.03-1.42-.71-.23-1.09,3.57-2.78,7.18-4.52,10.71-.95,1.73-1.93,3.43-2.89,5.09-.47.84-.97,1.63-1.5,2.41-.51.78-1.02,1.54-1.51,2.29l-.75,2.73c-.32.55-.9.84-.64.19-1.73,2.21.3.35-.19,1.63-.82,1.37-1.47,1.56-1.11.6-1.97,4.57-6.97,12.34-10.84,15.91l.47-.93c-2.78,2.94-1.9,4.4-4.86,6.83l.39-.63c-3.11,3.14-6.27,6.55-9.53,9.48-.81.74-1.59,1.48-2.39,2.18-.82.67-1.63,1.31-2.42,1.92-1.6,1.2-3.08,2.34-4.6,3.13-.2.78-2.01,2.01-3.71,3.23-1.67,1.25-3.39,2.29-3.21,3.05-2.28,1.14-3.15,1.44-4.22,1.92-1.08.45-2.39,1.01-5.51,2.66-1.62.95-1.99,2.16-3.98,3.42l-.4-.62-2.42,2.2c-.62.02-1.27,0-1.91-.02l-1.89,1.12c.8-.34,1.82-.51,1.79-.26-1.47.89-3.41,1.69-5.01,2.21-1.61.49-2.89.67-3,.52l-3.6,1.86c-1.2.62-2.45,1.13-3.68,1.71.07-.34,1.3-.9,2.24-1.44-3.79,2.18-1-.46-4.47,1.54.55-.02-.12.51-.16.68-.99.16-2.57.53-4.28,1.02-1.72.47-3.54,1.17-5.13,1.65l.48-.65c-1.45.34-2.94.72-4.45,1.13-.76.2-1.52.41-2.29.62-.78.18-1.56.36-2.35.54-1.58.36-3.18.76-4.8,1.09-1.63.29-3.28.57-4.94.83,2.41-.14,2.01.81.06,1.2l-.89-.65c-1.2.67,2.09-.03-.43.96-2.52.21-1.79-.68-.39-1.09l-3,.6c-.2-.21.49-.41.64-.72-1.2.6-5.29-.16-7.02.71l-.19-.22c-1.67.1-3.11.2-4.42.3-1.31.08-2.49.1-3.63.15-1.14.05-2.24.09-3.4.14-1.16.04-2.37-.02-3.74-.05-.13.67-2.26.44-3.93.92-2.01-.28-4.12-.64-6.32-.97-2.2-.37-4.49-.84-6.9-1.12-3.42-.19-1.07.41-2.65.55-.15-.65-4.93-1.46-2.38-1.44-2.88-.43-4.69-.85-6.71-1.24-1.01-.18-2.07-.37-3.34-.6-1.25-.27-2.71-.58-4.52-.97.7.46,1.54.81,1.04.88-1.32-.27-2.88-1.08-2.6-1.31l.36.04c-4.1-.77-8.53-2.72-12.6-4.82-2.07-.97-4-2.11-5.86-2.99-.93-.45-1.84-.85-2.72-1.19-.86-.38-1.69-.7-2.5-.93l.36.11-3.2-1.25-1.6-.63-1.57-.7c-2.68-1.65,1.86.54.02-.95-1.72-.69-3.21-1.41-4.57-2.13-1.32-.79-2.49-1.57-3.63-2.35-2.31-1.5-4.31-3.13-6.99-4.61-.35-.52-.82-1.06-1.39-1.62-.55-.58-1.18-1.19-1.89-1.8-.71-.62-1.48-1.25-2.3-1.89-.82-.64-1.68-1.28-2.51-1.99-1.67-1.4-3.42-2.79-4.96-4.19-1.49-1.46-2.81-2.87-3.74-4.17l-.04.55c-1.47-.85-1.26-1.53-2-2.49-.12.35.94,1.56.08.98-2.43-2.47-4.96-4.94-7.16-7.75-1.12-1.39-2.29-2.73-3.34-4.19-1.04-1.46-2.08-2.93-3.12-4.4-.53-.73-1.02-1.48-1.49-2.25l-1.43-2.29c-.95-1.53-1.92-3.04-2.76-4.63-.87-1.56-1.74-3.13-2.61-4.69-.8-1.59-1.6-3.18-2.4-4.76-1.21-2.28-1.96-2.72-2.75-3.34-.78-.62-1.55-1.46-2.51-4.63l1.52,1.35c-.33-.56-.67-1.13-.99-1.71l-.87-1.77c-.57-1.19-1.13-2.4-1.67-3.61-1.07-2.44-1.9-4.98-2.83-7.48-.8-2.54-1.59-5.08-2.37-7.59-.67-2.55-1.47-5.03-2.23-7.5.3.56.52.53.77,1.5.05-2.23-1.61-7.83-2.09-7.79-.2-1.59.36-.44.44-1.45.02-2.19-1.61-5.27-1.14-6.5.07-.21.24.58.34.97-.44-1.37-.64-6.56-1.15-5.14-.09-1.93-.24-3.76-.41-5.5-.14-1.74-.38-3.39-.16-4.93-.74-2,.23-6.6-.71-7.25,1.09.29,1.04-6.72.85-9.19.26.84.51-2.08.88-1.09.16-2.77.37-5.31-.26-4.9.98-2.46,1.01-5.04,1.26-7.34.22-2.29.35-4.34,1.51-5.56,1.1-8.2,3.09-15.66,5.49-22.74.23.16.16.72-.05,1.47-.22.75-.56,1.7-.85,2.65-.6,1.89-1.17,3.72-.58,3.74.45-1.7.82-3.24,1.16-4.7.38-1.44.76-2.78,1.15-4.12.72-2.7,1.74-5.3,3.29-8.45.88-1.6,0,1.14-.08,1.77,1.17-3.34,2.86-6.32,4.33-9.29.82-1.44,1.63-2.86,2.4-4.28.38-.71.76-1.42,1.11-2.13.38-.7.77-1.39,1.13-2.09.08.07-.2.7-.47,1.28.64-1.06,1.68-2.34,1.2-2.49l-.54,1.09c-1.67,1.31,1.41-4.97,1.24-5.37-.07,2.51,3.92-4.9,3.42-1.15.4-.72.8-1.68.43-1.72.78-.93,1.16-1.13.74.09.59-.94.94-1.59,1.19-2.08.27-.47.41-.8.55-1.11.28-.62.56-1.18,1.82-2.76.18.16-.26.85-.3,1.35.9-1.87,1.78-3.83,4.22-6.23-.03.25.37.07-.3.83,1.9-2.22,3.29-4.33,4.94-6.31.81-1.01,1.64-2.02,2.57-3.05.93-1.04,2.05-1.99,3.29-3.02-.69,2.04,1.83-1.25,2.68-.82.76-.87,1.58-1.67,2.41-2.47l-1.34.57c2.34-1.92,3.93-4.21,6.18-5.58-.53.54-1.04,1.1-1.53,1.69,1.4-1.28,2.92-2.4,4.38-3.61l-2.77,1.68c2.17-2.22-.95-.69,2.43-2.95-.6.58,2.42-1.88,4.07-2.29h0c1.08-1.07,2.2-2.2,4.19-3.29.64-.09.15,1.09.56,1.03.41-.73,1.91-1.68,3.44-2.69,1.53-.99,3.08-2.06,3.73-2.83-.46.46-.26.88-.03.87l.8-1.12c1.33-.51,1.56-.52,1.54-.09,3.77-1.93-1.72-.35,2.93-2.33-.32.23-.12.22-.8.7,4.58-2.11,8.59-4.67,13.01-6.15,1.6.3-3.64,1.78-1.91,1.86,6-2.85,12.53-5.94,18.82-7.52l-1.19.21c.54-1.43,4.83-.64,7.86-1.96-.77.25-.87.91-.69.72,2.18-.36,4.38-.88,6.84-1.55,1.24-.29,2.56-.59,3.97-.91,1.42-.3,2.92-.72,4.59-.97l-.79.41c2.63.04,6.84-.66,9.67-.59.81-.37,2.43-.42,1.42-.83,1.1.17,2.18.25,3.24.31,1.07.09,2.12.12,3.16.12,2.08,0,4.12-.19,6.13-.22,2.01-.05,4.01-.2,5.97-.05,1.96.14,3.89.42,5.77.96-.92-.07-2.22.1-1.49.16,2.19.03,4.36.31,6.55.47-.44-.61-.81-.44-2.13-1.05.87-.21,2.76-.22,4.38,0-3.01-.01-.09.84,1.1,1.39-.18-.2.28-.31.2-.5,3.22,1.58.76-.99,5.28.5l-.3.24c1.77.13,3.42.21,5.27.7.62.8-1.9-.13-2.13.35,2.59.58,5.43-.04,7.59,1.29-1.14-.14-2.71-.59-3.86-.65,1.19.64,1.86.98,2.47,1.22.61.23,1.15.37,2.07.69l-.18-.07c1.41.53,2.83,1.01,4.22,1.57-.34-.19-.69-.36-1.03-.53,1.84-.33,3.47.19,5.22.76.87.29,1.78.61,2.75.89.96.32,1.99.59,3.14.75-4.44-.63-.88.29-1.46.84.99.6,2.52,1.44,1.99,1.45,1.09.12,1.87.53,2.75.98.87.48,1.85.97,3.38,1.19.03.27,2.05.94,1.37,1.28,2.58.95-.42-.63-.09-.8,4.23,1.03,8.48,5.22,14.26,7.35,2.37,1.16,3.82,1.79,5.27,2.34.72.28,1.43.56,2.24.92.79.38,1.66.86,2.72,1.49,1.14,1.27-1.59-.09-1.59-.09,1.96,1.85,3.68,2.88,5.81,4.23-.52-.15-.21.31.23.99,1.61,1.2,1.58.17,3.45,2.09-.52-.08-1.24-.12-2.16-.52.99.65,2.02,1.25,3.05,1.86,1,.66,2,1.33,3,2.06.22.73-1.52-.51-2.34-.88,2.18,1.67,5.63,4.39,6.63,4.58l-1.12-1.4c.75.68,0,.75-.62.34-2.11-1.18-2.42-2.41-2.37-2.68l1.42,1.04c-.22-1.1-1.6-2.23-3.23-3.37-1.64-1.14-3.64-2.15-4.98-3.29l1.77.14-3.35-1.6c-.46-.67-.55-1.45.93-.49-1.74-1.94-2.03-1.04-3.49-2.77-.15-.21-.03-.18.17-.09l-2.2-1.2c.52.11.06-.82,1.23.19-.84-.76-1.64-1.39-2.42-1.87-.79-.47-1.53-.84-2.19-1.16-1.32-.65-2.32-1.12-2.84-1.9l.35.15c-1.35-.78-2.1-1.11-2.52-1.23-.41-.13-.49-.05-.54.07-.09.23-.04.62-2.27-.16l-1.84-3.12-.88.34c-.55-.32-1.66-.94-1.32-1.09-2.36-.64.21.46-1.23.25-1.22-.98-3.14-1.91-4.8-2.67-1.67-.73-3.04-1.4-3.13-2.07-1.23.05,2.52,1.59-.64.6-.18-.76-1.07-1.1-2.21-1.46-1.15-.32-2.56-.62-3.76-1.4,1.04-.28,3.41,1.01.99-.55-1,.19-2.25-.36-3.55-1.05-1.31-.68-2.7-1.4-3.86-1.69-.19.39-1.45.07-3.14-.48-1.7-.53-3.88-1.15-5.83-1.57.34-.28-7.16-2.35-10.78-3.3l.14-.12c-.44.36-1.59.34-2.99.18-1.39-.17-3.02-.46-4.42-.53.18-.5.71-.66,2.25-.66-.87-.14-1.74-.24-2.61-.36-.66.2-1.49.23-3.19.11l.74-.56c-.87-.1-1.75-.17-2.65-.22-.9,0-1.82-.01-2.77-.02-.95-.01-1.93-.04-2.95-.12-.51-.04-1.03-.09-1.56-.16-.53-.04-1.08-.1-1.64-.17-.27.6,3.46,1.82-1.27,2.06-.16-.34-.31-.91.93-1-.41.03-1.46.22-2.27.05l1.92-.49c-2.04-.32-1.09.42-2.72.31.05-.47-1.2-.38-.96-.74.42-.03,1.42.25,2.06.08-1.84-.16-4.08-.51-4.82-.82.16.27,0,.63-1.36.71-3.5.08-1.21-.55-3.26-.77-.84.3-3.1.11-3.12.81-1.02.06-1.23-.26-1.64-.42-.9.22-3.02.32-4.64.57-1.62.25-2.75.51-1.7.77h.47c-.09.02-.19.04-.29.06h.01s-.01,0-.01,0c-1.46.33-2.95.56-4.46.72-1.51.19-3.03.4-4.56.55-3.07.27-6.11.75-8.96,1.49l-.04-.23c-1.7.45-3.57,1.04-5.33,1.54-1.75.53-3.39,1.01-4.5,1.66-.99.31-2.46.31-2.12-.08-2.51,1-2.74,1.22-6.51,2.22,2.41-1.31-1-.02,2.51-1.23-3.35,1.02-4.25.91-7.53,2.84.96-1.06-2.72.32-4.19,1.14l2.43-.56c-1.69.81-3.22,1.39-4.77,2l.51-1.07c-1.76.48-3.29,1.27-4.74,2.04-1.44.8-2.8,1.6-4.03,2.5-2.49,1.77-4.88,3.21-7.6,4.01-1.34,1.47,3.53-1.7,2.4-.25-2.85,1.62-6.4,2.45-7.29,3.01-2,1.1-2.72,1.94-3.44,2.8-.36.43-.72.87-1.25,1.35-.53.48-1.22,1-2.2,1.67.65-.14,1.54.13-1.09,2.46-2.67,1.89-3.95,1.51-2.43.07.62-.5.98-.66,1.01-.56.79-.73,1.83-1.67.6-1.12l-.17.49c-.74.38-2.01,1.27-3.03,1.93-1,.68-1.72,1.18-1.47.65-1.75,1.82-.52,1.05.98-.03-1.75,1.21-3.03,2.28-4.3,3.37-1.29,1.07-2.51,2.24-4.19,3.64.61-.36,1.31-.55.8-.08-2.46,2.06-2.88,2.64-3.07,3.08-.19.44-.17.74-1.62,2.34-2.02,1.46-.12-1.36-2.9,2.03-2.07,1.72-.94-.1-.36-1.03-.6.81-1.24,1.54-1.88,2.2-.62.69-1.24,1.31-1.85,1.87-1.22,1.13-2.36,2.06-3.15,2.89l1.22-1.74c-.73,1.05-1.43,1.81-2.1,2.62.39-.2.81-.37,1.21-.56-.91.85-1.51,1.72-1.7,1.54-.5,1.23,1.33-.17.16,2.13-1.23,1.12-2.88,4.08-3.77,4.12,3.34-3.96-.98-.01,1.64-3.55-.45.72-1.1,1.53-1.94,2.45-.18.1-.03-.24.16-.53-3.46,3.64-.65,2.36-3.65,6.53.02-.78-1.35.52-1.71,1.3,1.13-1.75,1.12-.44.37,1.33-2.05,2.59-1.72,3.14-2.67,4.57l1.19-1.57c0,.39-.23.92-.6,1.61-.36.69-.8,1.56-1.33,2.58-.38,0,.83-1.91.3-1.28-.58,2.58-3.6,4.55-4.7,7.99-1,1.33-.78-.22-1.61.98-1.34,3.78-2.39,3.66-3.72,7.67,1.02-.88.97-1.12.28,1.78l2.44-6.44-1.05,4.36c.87-1.87,1.42-4.15,2.09-5.2-.52,2.08-.5,1.84.31,1.14-.96,1.1-1.42,2.44-1.87,3.83-.43,1.4-.93,2.82-1.75,4.24l-1.27-.62c-1.17,2.19-1.86,4.29-2.44,6.61-.28,1.16-.56,2.37-.92,3.66-.35,1.29-.83,2.65-1.32,4.17.27-.63.51-1.28.82-1.9.26.97-1.01,3.81-1.36,5.86-.4-.31-.92.89-1.44,1.68.36-.02-1.09,4.57-.3,5.34-.4.88-.86,1.76-1.21,2.66-1.16,5.06.19,6.02-.57,10.88-.31-1.54-.94.65-.86-2.7-.22,1.64-.5,3.12-.18,3.18-.2.46-.22,1.62-.21,2.85.04,1.23.05,2.52-.24,3.26.15.71.62.98.43,2.82-.11.2-.23-.02-.23-.02.2.02.15,2.91.74,1.33-1.72,5.01-.27,14.15-1.07,18.6.09.9.19,1.84.28,2.8.11.96.27,1.93.4,2.9.28,1.93.49,3.82.74,5.43-.17-.19-.23.02-.28-.6.28,4.53,1.74,2.54,2.1,7.66-.11,1.35-.35.7-.55-.08-.2-.78-.31-1.7-.33-.87-.73.49-.34,2.01.17,3.84.53,1.83,1.13,3.99,1.17,5.76l-.3-.79c.17,2.7,2.1,6.15,3.35,10.28,0,0-.19-.16-.23.05.81,1.3,1.67,3.26,2.67,5.33.98,2.07,1.85,4.34,2.8,6.18-1.06-.96-1.03-1.61-1.29-.66.8,1.68.71-.86,2.3,2.47.17,1.23.91,3.82.51,4.4-.53-1.05-.95-2.14-1.43-3.21-.03.99.39,2.05.96,3.06.58.99,1.25,1.95,1.58,2.82l-.44-.05c2.42,4.84,3.39,4.41,6.06,9.51l-.04-.66c2.33,2.28.9,2.53,3.1,4.87l-.3,1.31c.32.41.77.98,1.29,1.64.55.64,1.19,1.38,1.85,2.15,1.35,1.54,2.71,3.3,3.92,4.71-.94-.61-2.04-1.82-3.19-3.08-1.14-1.28-2.32-2.62-3.23-3.65,1.14,1.73,4.02,5.79,5,6.41-.54-.63-1.32-1.37-1.67-2.13,1.98,1.72,4.34,4.09,6.79,7.36-.97.3.66,2.43,2.65,4.88,1.92,2.5,4.46,5.07,4.95,6.68.69.61,1.35,1.24,2.01,1.88.68.61,1.35,1.23,2.01,1.87,1.33,1.26,2.6,2.62,3.95,3.95,1.38,1.3,2.78,2.63,4.23,4,.72.69,1.48,1.35,2.29,1.99.8.65,1.62,1.3,2.47,1.95-1.5-2.99,1.98,1.51,2.45.03,1.6,1.15,2.24,1.54,2.32,1.74,1.46,1.38,2.91,2.8,4.39,4.17.48.56.04.38-.52.09-.55-.31-1.22-.72-1.24-.53,1.73,1.33,2.08,1.63,2.19,1.96.13.31.08.54,1.2,1.48-.22-.76,1.68.19,3.68,1.7l-2.6-2.46c1.39.66,2.31,1.22,3.01,1.75.71.52,1.21.96,1.7,1.42.99.92,2,1.85,4.86,3.04l-1.91-.56c2.84,1.38,10.39,5.38,13.71,5.48.44.38.96,1.05-.35.58,6.88,3.2,16.03,4.92,21.48,7.02l-.64.19c1.39.27,2.51.06,4.14.78-.12.12-.64.22,0,.38.76.05,3.77.23,5.54.85l-1.63.03c1.76.56,3.37.82,4.85,1.02,1.49.2,2.86.3,4.2.37,2.69.03,5.23-.03,8.28.2-.06.52,1.33.99,3.11,1.37,1.78.39,3.93.72,5.38.82l-.11.14c2.14.1,4.13.16,6.02.12,1.89-.1,3.69-.25,5.47-.41,1.78-.13,3.52-.44,5.31-.69,1.79-.27,3.63-.46,5.58-.81,1.24.15,2.91.15,4.82.05,1.91-.12,4.06-.46,6.31-.77,2.26-.27,4.56-.84,6.81-1.23,2.26-.38,4.42-.89,6.38-1.23-1.22.12-.01-.84,1.31-1.29,1.87-.2,4.69-2.14,4.69-1.12l-.64.18c1.6.47,5.22-.82,8-1.88l.03-1.35c1.97-.24,4.17-.79,6.33-1.7,2.16-.89,4.42-1.83,6.45-2.98,2.05-1.11,4.02-2.11,5.7-2.98,1.68-.88,3.14-1.51,4.27-1.66,1.52-1.14,3.5-2.36,4.92-3.6l.27.63c2.27-1.28,3.98-2.24,5.71-3.44.87-.59,1.77-1.21,2.79-1.91.5-.36,1.03-.73,1.61-1.13.55-.43,1.13-.9,1.76-1.4l-.76,1.18c2.92-2.19,2.52-4.29,5.06-6.4l1.4.13c2.41-2.04,5.01-3.89,7.37-6.03,1.19-1.05,2.39-2.1,3.48-3.24,1.07-1.17,2.08-2.38,3-3.66.04.18.12.51-.57,1.28,2.19-2.02,8.26-8.12,6.51-8.18.8.58,4.2-5.01,5.93-7.94l.22.83c.99-2.85.85-3.06,2.97-6.44.61-.73.92-.38.05.55,2.07-2.42.82-2.41,3.19-5.42l-.41,1.43c1.78-2.72,1.5-2.6,1.95-4.41.78-1.9,3.2-5.24,3.95-5.4-.12-.57.25-2.38,1.27-4,.32-.13.13.56.03.9.72-1.16,1.26-2.22,1.71-3.19.42-.98.72-1.91,1.02-2.76.58-1.72,1.12-3.22,2.15-4.81.23.01.42-.17.6-.44-1.68,3.99-3.21,7.12-3.1,6.81.55.26,2.09-2.9,1.71,0,.37-1.39.82-3.29,1.38-5.2.51-1.94,1.06-3.93,1.82-5.46.12-.13.23-.26.36-.35l-.06.35c.34-.71.55-1.39.69-2.05.44-1,.73-1.63,1.07-2.62.58-.23,1.6-3.72,2.06-5.41-.68-.06.04-2.22-1.07-.32.12-.25,0,.34-.31,1.46-.06.25-.15.55-.17.73,0-.04-.01-.08-.02-.13-.35,1.09-.81,2.51-1.33,4.12.12-1.42.3-2.86,1.26-4.57-.13-.98-.31-2.05-.36-2.64.77-1.01,1.59-2.58,2.31-3.97.74-1.38,1.23-2.61,1.6-2.86.21-1.32.48-2.75.75-4.21.29-1.45.44-2.96.63-4.4.17-1.44.31-2.82.35-4.05,0-1.24-.09-2.34-.29-3.21.04-1.51.58-1.67.85-2.21.01.88-.14,1.91-.03,2.4.02-.76.09-1.7.18-2.68.05-.49.09-1,.14-1.51.02-.51.04-1.01.06-1.5.06-1.95.03-3.62-.38-4.01.69-3.76.68,2.19.86-3.03l.24.72c.44-2.55.57-4.9.52-7.13-.14-2.24-.43-4.37-.72-6.51-.32-2.15-.74-4.32-.93-6.66-.2-2.35-.45-4.86-.28-7.75-.02.8-.03,1.2-.16,1.37-.04-.81-.08-1.63-.15-2.44-.1-.81-.2-1.62-.31-2.44-.22-1.63-.46-3.27-.74-4.9-.35-1.62-.71-3.24-1.07-4.87-.19-.81-.35-1.63-.56-2.43l-.67-2.41c-.44-1.6-.89-3.21-1.33-4.8-.51-1.58-1-3.16-1.46-4.74-.24-.79-.45-1.58-.69-2.36-.25-.78-.5-1.56-.75-2.33-.48-1.55-.93-3.12-1.34-4.68-1.18-3.46-1.86-3.61-3.11-5.48l.35-1.02c-.77-1.05-1.59-2.06-2.38-3.08-.72-1.14-1.23-2.28-1.66-3.44-.45-1.15-.87-2.29-1.3-3.49-.44-1.19-.91-2.42-1.54-3.69-.67-1.25-1.54-2.51-2.67-3.82l.05,1c-.61-1.06-1.64-2.69-2.53-4-.9-1.3-1.55-2.33-1.21-2.32-.21-.16-.87-.38-1.2-1.31l.27-.28c-.66-.76-1.29-1.54-1.97-2.29l-2.07-2.2c-1.3-1.93-.89-2.02-.67-2.3.11-.14.18-.33-.04-.83-.22-.49-.69-1.33-1.8-2.63-1.76-1.86-5.49-4.81-5.06-3.92.64.79,1.5,2.14,1.26,2.44l-1.63-1.63c-1.11.41-3.06-.14-.08,4.58l3.01,2.52.33,1.32c-.64-.87-1.36-1.68-2.07-2.5.81,1.71,1.85,2.36,2.88,3.22-.04.42.13.97.51,1.65l3.14,2.39c-.09.63-1.68-.88-.42,1.34,1.4,1.18-.17-1.97,1.75.27.63,1.82-.02,1.6,1.56,3.15-.07.41-.48.13-1.06-.51.67.7,1.45,1.72,2.12,2.66.66.95,1.29,1.79,1.8,2.06.24.98,1.12,2.35,1.82,3.52.67,1.19,1.12,2.2.62,2.37.51.4,2.34,2.58,3.23,4.12-1.34-1.13-.52.31.27,2.1.82,1.77,1.76,3.81.96,3.71,1.06.82,2.02,2.75,2.99,4.93.49,1.09,1,2.23,1.5,3.34.46,1.13.94,2.21,1.45,3.15-.17-.19-.5-.57-.57-.94.73,2.27.65,3.03.97,4.53.98-.01,2.28,3.48,3.43,5.24,0,3.05-1.58-1.39-2.13-.26.34-.18.91.97,1.4,2.04.46,1.08.87,2.06,1.05,1.5.02,2.31.22,1.94-.24,3.24,1.22.1.75,1.95,1.79,3.62.09,3.29-.9,1.04.16,4.44,0,1.71-1.05-1.28-1.05-1.28ZM395.46,226.81s-.01,0-.01,0c.25-.69.47-1.27.6-1.65-.12.34-.29.82-.59,1.65ZM392.75,233.41c.37-.79.84-1.76,1.28-2.82.3-.15.45.21.13.86.02-.42-.8,1.07-1.41,1.96ZM402.55,220.74c-.28,1.13-.53,1.46-.71,1.57.16-.52.35-1.14.57-1.95-.01-.04-.02-.11-.03-.16.09.14.16.3.17.54Z"/>
      <path class="cls-1" d="M402.37,218.5c.04-.16.04-.26.09-.47-.12.21-.24.41-.35.61.02.15.05.31.07.45.06-.2.13-.41.19-.59Z"/>
      <path class="cls-1" d="M240.05,20.6h-.15c.13.01.25.03.33.06-.11-.02-.11-.04-.18-.06Z"/>
      <polygon class="cls-1" points="326.54 303.53 326.63 303.67 327.1 303.25 326.54 303.53"/>
      <path class="cls-1" d="M279.6,24.08c.06.07.2.16.48.26-.02-.05-.22-.15-.48-.26Z"/>
      <path class="cls-1" d="M296.19,27.92l2.25.88c-.96-.41-1.68-.68-2.25-.88Z"/>
      <path class="cls-1" d="M308.5,32.3c.2-.05.27-.12.34-.18h-.02s-.32.18-.32.18Z"/>
      <path class="cls-1" d="M127.96,94.73c-.09.15-.18.3-.24.44-.51,1.07-.14.36.24-.44Z"/>
      <path class="cls-1" d="M168.94,49.03c-.47.47-.94.93-1.46,1.38.94-.58,1.66-1.05,1.46-1.38Z"/>
      <path class="cls-1" d="M107.43,159.41s0,0-.01,0c-.01.15-.02.27-.04.42l.05-.41Z"/>
      <path class="cls-1" d="M165.17,52.14c.96-.56,1.67-1.14,2.3-1.73-.75.51-1.64,1.1-2.3,1.73Z"/>
      <path class="cls-1" d="M356.26,61.94l.45.43s.07-.04.13-.03l-.58-.41Z"/>
      <path class="cls-1" d="M356.85,62.35l.56.43c-.23-.22-.43-.41-.56-.43Z"/>
      <path class="cls-1" d="M358.57,63.68l-1.17-.9c.36.36.8.81,1.17.9Z"/>
      <path class="cls-1" d="M343.04,50.84l-.3.08c.12.02.22,0,.3-.08Z"/>
      <path class="cls-1" d="M338.7,47.88c1.03.72,2.27,2.23,3.79,3.11l.25-.06c-.88-.17-2.8-2.74-4.03-3.04Z"/>
      <path class="cls-1" d="M320.93,34.37c1.33.69,2.62,1.46,3.93,2.18-.58-.58-1.35-1.36.5-.49-4.72-3.25.79,1.02-4.43-1.69Z"/>
      <path class="cls-1" d="M308.22,28.64c2.3.77.1-.36.27-.45-1.52-.31-1.9-.36-.27.45Z"/>
      <path class="cls-1" d="M209.21,26.38l.05-.65c-1.76.64.05.23-.05.65Z"/>
      <path class="cls-1" d="M192.55,36.15c.59-.14,1.17-.29,1.77-.4l.55-.84c-.78.39-1.57.78-2.32,1.23Z"/>
      <polygon class="cls-1" points="180.5 37.42 181.18 36.95 178.54 38.64 180.5 37.42"/>
      <path class="cls-1" d="M101.02,178.61l.73-.59c-.14-1.26-1.01-1.5-.73.59Z"/>
      <path class="cls-1" d="M121.55,248.36c.02.9.9,2.79,1.88,3.68-.82-1.43-1.42-2.98-1.88-3.68Z"/>
      <path class="cls-1" d="M311.7,317.1l-1.31.74c.85-.39,1.71-.75,2.54-1.2-.41.15-.81.33-1.23.45Z"/>
    </g>
    <g>
      <path class="cls-1" d="M357.09,118.41c-6.77.93-24.95,6.39-37.52,23.33-12.57,16.93-29.16,31.09-32.53,33.85-3.37,2.76-11.32,11.89-8.74,16.98,2.58,5.09,14.62-1.36,21.24-6.13,5.82-4.19,14.96-16.09,20.84-16.16,4.27-.06,9.19,1.99,4.18,11.51-5.84,11.09-20.25,19.89-28.36,22.86-8.11,2.98-32.73,12.42-39.39,16.02-6.65,3.6-11.1,8.97-11.92,12.78-.83,3.81,3.77,4.11,10.03.96,6.26-3.15,24.52-9.08,30.7-10.55,1.93-.46,31.18-8.22,35.91-10.71,4.74-2.49,47.31-39.79,53.65-43.67,6.78-4.15,11.81-8.92,28.6-17.94-.47-17.43-1.67-12.68-7.99-29.26-1.78-.53-9.32-18.88-9.55-18.6-9,11.15-19.56,13.4-29.15,14.72Z"/>
      <path class="cls-1" d="M283.72,176.89s2.88-2.69,6.49-5.71c3.61-3.02,7.07-6.64,7.07-6.64-21.17-3.62-29.13,2.35-31.46,5.3-2.22,2.81.62,4.43,1.66,4.54,10.45,1.13,16.24,2.51,16.24,2.51Z"/>
      <path class="cls-1" d="M241.46,193.61c6.8-.04,13.4-.45,22.15.52,8.75.97,14.43,1.29,14.43,1.29,0,0-5.74-4.08,1.74-13.95,0,0-10.22.03-15.78-.53-5.56-.56-16.11.45-21.28,3.68-4.4,2.75-7.7,9.02-1.27,8.98Z"/>
      <path class="cls-1" d="M237.24,218.05c5.75-1.06,31.84-4.19,31.84-4.19,0,0,10.59-4.3,28.26-11.2,18.09-7.06,30.42-24.48,27.58-28.6-2.84-4.11-7.05-1.72-8.9-.61-1.85,1.11-8.41,7.51-11.12,10.11-2.94,2.83-6.82,5.55-6.82,5.55-13.67,9.68-35.57,11.35-38.59,11.88-3.03.53-12.39,1.5-21.44,4.89-9.05,3.39-10.84,8.14-10.84,10.8,0,2.62,4.28,2.43,10.02,1.37Z"/>
    </g>
  </g>
  <text class="cls-2" transform="translate(110.39 396.14)"><tspan class="cls-6" x="0" y="0">P</tspan><tspan x="33.95" y="0">neumati</tspan><tspan class="cls-5" x="242.94" y="0">k</tspan><tspan x="271.13" y="0">e</tspan></text>
  <g>
    <path class="cls-1" d="M363.28,429.34l-4.19,1.45c-8.53,1.59-17.11,3.47-25.75,4.4-52.44,5.64-102.37-7.39-154.48-5.34-5.89.23-11.88,1.2-17.75,1.63-.64.05-2.96.23-2.96-.26,8.03-1.51,16.34-2.81,24.51-3.49,56.32-4.75,110.43,10.14,166.89,3.76,4.58-.52,9.12-1.83,13.74-2.14Z"/>
    <g>
      <path class="cls-4" d="M363.33,430.06c.21-.11.07-.31-.51-.22l-.38.39.9-.17Z"/>
      <path class="cls-4" d="M359.3,429.88c-.67.28-1.41.72-.9.97.62-.46.81-.34,1.48-.86.58-.13,1.04-.03.96.11.2-.12.92-.04,1.21-.29-.8-.2-1.78-.08-2.76.31-.23-.04-.03-.17,0-.24Z"/>
      <path class="cls-4" d="M301.07,432.15l.37.06c-.1-.03-.23-.05-.37-.06Z"/>
      <path class="cls-4" d="M264.99,429.44c.28.01.39-.01.41-.04-.26,0-.47,0-.41.04Z"/>
      <path class="cls-4" d="M258.86,428.52c.13.02.24.04.36.05-.14-.04-.27-.07-.36-.05Z"/>
      <path class="cls-4" d="M301.07,432.15l-.96-.15c-.07.11.49.11.96.15Z"/>
      <path class="cls-4" d="M351.49,432.15c.2-.05.36-.11.51-.18-.16.04-.32.08-.49.12,0,.02-.01.04-.02.06Z"/>
      <path class="cls-4" d="M317.01,432.3h.29c.09-.03.17-.08.24-.14l-.54.14Z"/>
      <path class="cls-4" d="M329.23,432.08c-.28,0-.36.31-.46.45.15-.13.35-.2.6-.24,0-.06-.04-.12-.13-.21Z"/>
      <path class="cls-4" d="M348.6,431.26l.34-.07c-.09.02-.24.05-.34.07Z"/>
      <path class="cls-4" d="M308.26,432.08s-.06-.09-.11-.11c0,.04.04.07.11.11Z"/>
      <path class="cls-4" d="M349.23,431.24s.01.03.01.05c.06-.04.08-.07-.01-.05Z"/>
      <path class="cls-4" d="M363.3,429.42l-.18.08c0,.06,0,.12.02.17l.17-.25Z"/>
      <path class="cls-4" d="M247.61,427.22s.03,0,.05,0c.3-.01.13-.02-.05,0Z"/>
      <path class="cls-4" d="M172.28,431.61c-1.19-.15,1.86-.54.08-.66.17.1-1.55.64-.08.66Z"/>
      <path class="cls-4" d="M351.17,432.15c-.17.02-.34.05-.51.07.23-.02.39-.05.51-.07Z"/>
      <path class="cls-4" d="M172.36,430.95h0s-.18-.01-.18-.01c.08,0,.12,0,.18.01Z"/>
      <path class="cls-4" d="M221.52,425.82c.05.05.15.1.26.14,0-.03-.07-.07-.26-.14Z"/>
      <path class="cls-4" d="M240.92,427.34l-.48-.07c.19.04.34.06.48.07Z"/>
      <path class="cls-4" d="M211.41,425.98c-.26-.02-.35-.07-.71-.03.03.02.07.03.11.04.13-.04.3-.06.6,0Z"/>
      <path class="cls-4" d="M200.88,426c.06.02.13.04.2.06.1,0,.23-.02.33-.02l-.53-.03Z"/>
      <path class="cls-4" d="M317.79,435.04c.23.07.38.16.49.25-.17-.21,1.36-.36-.49-.25Z"/>
      <path class="cls-4" d="M351.46,431.98c-.05.09-.13.14-.29.17.12-.02.24-.05.35-.07.02-.05.02-.09-.05-.11Z"/>
      <path class="cls-4" d="M210.95,428.36l-1.66-.06c.46.03,1.07.05,1.66.06Z"/>
      <path class="cls-4" d="M242.81,431.44h.38c-.15-.02-.28-.03-.38,0Z"/>
      <path class="cls-4" d="M204.36,428.32c-.3-.11-.61-.18-.94-.21-.07.03-.15.05-.19.08.38.03.75.08,1.13.12Z"/>
      <path class="cls-4" d="M318.29,435.29h0s0,0,0,0Z"/>
      <path class="cls-4" d="M329.14,433.83c-1.57.13-.7.45-1.02.71-1.87.28-.89-.22-1.55-.36-1.16.21-2.04.65-2.91.71-.07-.06-.24-.07-.05-.17-1.22.39-3.69.19-5.12.66-.11-.03-.17-.06-.19-.09.24.19.29.39.25.53-.71.04-1.31.31-1.59.07.44-.01.47-.12.67-.21l-.74.15c-.68-.34,1.01-.18,1-.45-1.44.19-3.12.58-4.24.52-.24-.35,2.59-.24,1.1-.5l1.72.06c-1.33-.51,1.04,0-.18-.57-2.26,0-2.52.32-4.77.23-.5.21.17.3-.33.51-3.21.4-2.54-.89-4.89-.37-.61.25-.85.73-2.53.48l.57-.41c-2.19-.06-1.25.58-3.55.26.41-.16,1.72-.11,1.39-.16-1.48-.35-1.05.22-2.2.2l-.23-.37c-2.33,0-4.91.28-7.5.2.15-.1.59-.2,0-.34-3.26.03-6.95-.3-10.08-.74l-1.22.24c-.28-.02-.51-.17-.2-.22-1.22-.2-.08.2-.67.28-.7-.02-.91-.24-.46-.31-2.18.15-6.19.18-8.44-.35l.45-.06c-1.76-.26-2.05.49-3.67.07l.32-.03c-3.84-.42-8.11-.54-11-1.26-.6.41-3.79-.54-4.09.07-2.17-.51-1.53-.57-4.6-1.06-.82-.1-1.27.28-2.29.26v-.33s-1.41.22-1.41.22l-.7-.46h-.97c.38.05.8.22.73.31-1.51.01-3.63-.56-3.65-.73l-3.57-.04c.09-.13.69-.12,1.16-.16-1.92.17-.31-.38-2.07-.22.23.09-.14.19-.19.25-.85-.27-2.82-.44-4.28-.48l.3-.2c-2.62-.29-5.56-.36-8.51-.57,1.05.18.78.56-.09.54l-.32-.38c-.58.18.9.2-.27.38-1.1-.12-.71-.45-.07-.52l-1.35.02c-.07-.11.25-.14.34-.27-.57.18-2.29-.52-3.12-.2l-.07-.11c-2.96-.19-4.31-.13-6.73-.25-.06.3-1,.18-1.73.38-1.76-.22-3.73-.5-5.87-.55-1.51.1-.45.24-1.13.4-.1-.28-2.24-.33-1.12-.49-2.57-.05-3.28-.07-6.53.13.35.12.75.17.54.26-.59.04-1.34-.13-1.25-.26l.16-.03c-1.83.19-3.93-.03-5.94-.23-2.01-.14-3.94-.25-5.39.06l.16-.03-3,.37c-1.39-.02.82-.23-.21-.37-3.24.53-5.19.2-7.83.76-2.16-.61-7.29.88-10.08.59l.17.18c-.69.25-.87-.04-1.39-.04.08.14.78.11.35.25-.56.07-1.09.12-1.61.14-.26,0-.51,0-.73,0-.1,0-.2-.02-.22-.03,0,.01,0-.03,0,.03-.03.09-.06.19-.1.28-.04.15-.08.26-.16.39-.12.23-.22.26-.22.26l.07,1.21c4.96-.93,10.19-1.43,15.23-1.96,2.26-.24,1.15-1.16,4.06-1.03l-.77.45c4.5-1,9.33-.79,13.8-1.45-.26.1-.26.21-.7.23.96.2,3.5-.22,3.51-.41.7,0,.17.19.61.28.96.13,2.38-.39,2.89-.15.09.04-.26.09-.44.12.62-.14,2.89-.04,2.29-.33,1.69.1,3.23-.22,4.58-.07.88-.34,2.89.18,3.17-.3-.12.49,2.96.41,4.03.19-.36.14.93.16.51.36,1.22,0,2.34-.08,2.13-.33,2.23.61,4.53-.33,5.77.45,1.81-.07,3.56-.12,5.27-.15,1.7,0,3.36.02,4.99.05-.14.48-3.61-.15-3.49.37,3.1-.03,4.91-.35,7.97-.06.79.11-.46.19-.74.25,3.1-.04,5.97.45,8.73.37-.01.04-.31.07-.59.09.54.02,1.25.16,1.21-.06l-.53.02c-.84-.38,2.2-.52,2.31-.68-.97.56,2.7.36,1.18,1.05.36-.01.81-.08.74-.23.53.09.69.18.14.31,1.95.04,1.28-.25,3.03-.11-.01.11-.37.12-.56.23.91-.14,1.82-.27,3.29-.06-.09.06.07.15-.37.12,2.55.17,4.39-.21,7.17.23-.86.39.94.23,1.05.65h1.51s-.59-.24-.59-.24c1.32.12,2.51-.08,3.63.15l-.99.08,2.48.13-1.39-.27c1.35-.09-.1-.52,1.64-.26-.36.01,1.32.11,1.99.41h0c.66-.07,1.35-.15,2.31.03.24.15-.24.43-.08.52.67-.28,3.1.16,3.94-.13-.28.06-.31.27-.22.32l.56-.23c.6.14.69.19.58.35,1.83.2-.54-.55,1.62-.16-.17,0-.09.06-.45.07,2.18.28,4.25.14,6.25.43.57.45-1.77-.03-1.11.36,2.91.15,6.05-.03,8.86.22l-.52-.08c.43-.55,2.08.41,3.52.23-.35.02-.48.29-.38.23,1.92.2,3.95.12,6.88.05l-.37.13c1.13.18,2.99.2,4.22.32.37-.13,1.07-.08.65-.31,3.76,1.04,7.24-.27,10.59.51-.4,0-.96.11-.64.12l2.87-.09c-.23-.25-.38-.16-.98-.36.36-.14,1.17-.24,1.88-.23-1.29.15,0,.41.57.53-.09-.07.1-.16.05-.24,1.5.42.25-.5,2.29-.23l-.11.13c.76-.08,1.47-.26,2.29-.23.35.28-.81.15-.86.38,1.16-.03,2.28-.58,3.33-.3-.49.09-1.2.1-1.69.18,1.15.32,1.28.23,2.13.28h-.08s1.97.12,1.97.12l-.5-.08c1.43-.75,2.95-.26,4.88-.83-1.87.56-.3.28-.43.62.5.07,1.27.13,1.05.23.91-.31,1.55.13,2.84-.32.06.1.99-.04.8.23,1.2-.14-.3-.17-.2-.3.91-.24,2.01-.15,3.2-.16,1.19-.02,2.49-.06,3.79-.42,2.27-.41,2.66-.8,4.76-1.17.73.1-.55.43-.55.43,1.17.05,2.04-.04,3.11-.32-.21.12.03.17.38.24.87-.16.53-.46,1.7-.5-.18.15-.4.38-.8.56,1.02-.26,1.99-.64,3.02-.93.31.13-.58.39-.93.58,1.17-.3,3.03-.74,3.34-1.09l-.77.04c.43-.09.27.2-.04.31-.97.41-1.48.18-1.55.08l.74-.21c-.88-.46-2.98.67-4.52.86l.56-.54-1.5.6c-.35-.08-.6-.29.14-.46-1.11-.08-.94.28-1.91.12-.11-.03-.06-.05.03-.08l-1.05.23c.2-.11-.21-.3.45-.29-1.94-.08-3.05.61-3.81.34l.16-.04c-2.64.39-.23.35-2.19.92l-1.41-.69-.24.35c-.28.01-.82.04-.73-.1-1,.32.18.13-.39.39-1.34-.2-3.64.33-3.97-.17-.46.27,1.28.13-.13.37-.43-.54-1.63.18-2.85-.02.36-.31,1.51-.21.29-.41-.71.53-2.36,0-3.37.15-.03.42-2.21.24-3.92.38.11-.13-3.23-.17-4.82-.29l.05-.07c-.31.39-1.95.36-3.15.43.05-.24.26-.31.91-.43-.37.01-.75,0-1.12,0-.27.12-.62.18-1.35.22l.29-.29c-1.5,0-3.02.3-4.94.07-.12.27,1.52.79-.53.94-.07-.15-.14-.41.39-.46-.18.02-.63.11-.98.04l.82-.24c-.88-.13-.46.2-1.17.17.02-.21-.52-.16-.41-.33.18-.02.61.1.88.02-.79-.05-1.74-.19-2.05-.36.07.12,0,.29-.59.3-1.5-.04-.5-.28-1.37-.42-.37.13-1.32-.06-1.35.26-.44-.02-.51-.17-.68-.26-.78.11-3.62-.11-2.76.26l.2.03s-.08,0-.13,0h0s0,0,0,0c-2.55.22-5.27-.4-7.79-.44v-.11c-1.5.03-3.34-.13-4.43.03-.44-.03-1.04-.26-.84-.37-1.15,0-1.29.13-2.94-.17,1.17-.1-.39-.19,1.19-.05-1.48-.2-1.81-.4-3.43-.23.56-.23-1.1-.43-1.81-.4l1.03.27c-.8-.02-1.49-.1-2.2-.17l.41-.33c-3.02-.66-5.56.33-7.82-.6-.83.18,1.64.31.9.54-1.4-.16-2.82-.8-3.26-.83-1.91-.36-1.84.37-3.84.07.25.15.46.51-1.05.5-1.4-.17-1.68-.68-.79-.71.34.02.5.07.48.11.46,0,1.06-.01.51-.2l-.19.11c-.69-.19-2.62-.34-2.15-.51-1.07.03-.47.17.31.3-1.79-.34-2.81-.24-4.66-.52.29.1.55.27.25.24-2.71-.39-1.22.14-3.07.04-1.03-.28.41-.43-1.46-.42-1.12-.22-.21-.36.25-.42-1.71.11-3.15-.42-4.11-.54l.9-.03c-.54.02-.97-.02-1.42-.05l.49.3c-.52-.09-.96-.12-.94-.23-.55.12.38.46-.71.6-.69-.19-2.13-.03-2.35-.39,2.19.29-.22-.36,1.65-.26-.36.01-.8-.03-1.32-.11-.08-.04.08-.06.22-.07-2.08-.47-.99.3-3.17.13.29-.17-.48-.4-.84-.38.88.07.4.35-.42.44-1.39-.25-1.53,0-2.26-.07l.83.13c-.3.17-.99.1-1.97.09-.07-.15.89-.04.55-.13-1.1.26-2.42-.52-3.94-.4-.69-.18-.04-.36-.65-.49-1.71.13-1.82-.37-3.61-.27.5.28.59.23-.68.41l2.93-.02-1.9.27c.88.05,1.87-.06,2.4.01-.91.16-.81.1-.4.34-1.18-.45-2.41.09-3.78-.24l.08-.63c-2.08-.4-3.75.11-6.46-.18l.87.15c-.38.22-1.68-.03-2.57.04.09-.21-.46-.31-.83-.45.04.16-2-.08-2.26.33l-1.21-.32c-2.2-.18-2.53.51-4.64.39.64-.22-.32-.4,1.11-.52-.71-.03-1.34-.06-1.36.08-.41-.14-1.97.27-2.61.07-.3.09-.4.31-1.19.29-.09-.04,0-.1,0-.1,0,.1-1.24.13-.55.37-2.18-.68-6.08-.02-7.99-.49-1.54.11-3.4.23-4.8.28.09-.07,0-.11.27-.09-1.94-.15-1.17.64-3.37.48-1.14-.29,1.16-.23.45-.33-.34-.71-2.65.25-4.15-.07l.36-.06c-1.15-.17-2.74.44-4.59.51,0,0,.09-.07,0-.11-1.24.43-3.62.7-5.37,1,.52-.33.79-.22.43-.47-.79.12.27.42-1.3.66-.53-.1-1.69-.1-1.87-.38l1.49-.18c-.81-.3-1.94.23-2.73.26l.08-.18c-2.28.33-2.26.76-4.71,1.07l.27.09c-1.28.6-1.16-.07-2.44.43l-.47-.36c-.87.24-3.02.89-4.58,1.24.84-.46,2.66-.93,3.78-1.29-.88.13-2.97.51-3.38.79.34-.1.77-.28,1.13-.27-1.02.51-2.39.9-4.13,1.21.1-.55-1.73-.17-3.44.11l-.7.11v.72c0,.2.09.46.19.59.08.11.19.21.3.29.13.08.3.16.38.18.21.07.36.09.51.12.3.05.55.07.78.1.47.05.84.11,1.1.21,3.14-.51,6.22-.44,9.81-.88-1.34-.5,1.05-.13.76-.76.83-.13,1.15-.15,1.23-.12l2.57.15c.61.14-.78.21-.69.35,1.82-.1.79.21,2,.29-.26-.22.61-.39,1.65-.35l-1.48-.21c2.53-.52,2.21.42,4.79.01l-.81.23c1.32-.15,4.9-.1,6.19-.66.24.07.55.24-.04.3,3.17-.02,7.08-.53,9.55-.21l-.24.16c.59-.04,1.04-.29,1.78-.12-.04.07-.24.16.03.17.31-.06,1.58-.24,2.37-.12l-.68.16c3.09.32,4.77-.27,7.38-.29-.03.46,2.41.73,3.62.89l-.05.06c3.6.28,6.15-.08,9.51,0,2.04.68,7.01.7,10.32,1.3-.5-.13.11-.36.71-.36.77.16,2.19-.15,2.03.28l-.28-.03c.55.47,2.17.5,3.42.61l.26-.55c3.21,1.12,8.63.47,10.36,1.37.81-.07,1.79.02,2.59-.05l-.07.3c2.19.28,3.28.42,6,.59l-.57.17c1.53.16,2.01-.7,3.43-.6l.39.49c2.68.22,5.35.87,8.03.67-.05.06-.14.19-.57.17,1.26.11,4.85.68,4.44.03,0,.41,2.76.25,4.22.19l-.25.28c1.25-.28,1.3-.4,3.01-.4.4.06.34.26-.19.15,1.34.24,1.07-.22,2.69.04l-.62.15c1.39.11,1.28,0,2.06-.18.88-.07,2.62.24,2.82.52.2-.15.97-.33,1.78-.22.11.11-.2.16-.35.18,2.31.3,3.47-.2,5.05.16.03.1.13.15.26.19-1.84-.09-3.33-.16-3.19-.18-.01.28,1.48.39.27.72,1.21-.16,3.27-.52,4.72-.33.07.03.14.06.19.1l-.15.02c.33.04.64.03.92,0,.46.06.76.12,1.2.13.17.23,1.71.15,2.45.18-.05-.3.92-.24.01-.5.12.02-.14.03-.64.04-.11,0-.24,0-.32.03.01,0,.03-.02.05-.03-.49,0-1.13,0-1.85-.01.59-.14,1.21-.26,2.03-.08.39-.19.81-.38,1.05-.47,1.01.44,2.97.7,3.24.97,1.14-.07,2.48-.06,3.71-.14,1.23-.09,2.36-.23,3.07-.53.65-.08.74.15.99.24-.37.06-.82.06-1.02.14,1.29-.16,3.83-.1,4.13-.51,1.63.16-.91.38,1.33.28l-.3.13c2.21.29,3.99-.1,5.83-.4,1.84-.34,3.73-.57,6.19-.37-.34-.02-.51-.03-.58-.09,2.78-.06,5.64-.39,8.47-.7,2.84-.32,5.66-.76,8.42-.91,1.56-.14,1.69-.42,2.59-.77l.39.26,1.54-.65c2.22-.68,4.07.06,6.84-1l-.41-.14c1.04-.16,3.23-.76,3.11-.48.1-.06.29-.29.72-.25l.06.16,2.47-.77c.96-.11,1.02.03,1.1.17.12.12.29.22,1.68-.24,1-.42,2.75-1.48,2.33-1.45-.42.14-1.09.27-1.18.12l.91-.41c0-.53.56-1.27-1.85-.8l-1.5.84-.59-.05,1.34-.48c-.82.04-1.31.43-1.7.71-.02-.12-.3-.17-.64-.15l-1.55.78c-.23-.15.66-.52-.46-.42-.72.36.82.29-.42.68-.84-.07-.64-.3-1.54.07-.16-.1.03-.22.39-.35-.8.31-2.19.49-2.56.83-.88-.12-2.79.61-2.79.13-.24.16-1.39.64-2.15.8,1.29-.81-2.86.49-2.6-.18-.94.69-3.68.87-5.46,1.42.1-.06.28-.17.45-.16-1.03.11-1.36,0-2.03,0-.07.44-1.66.75-2.5,1.12-1.31-.25.71-.58.26-.93.11.34-2.15.6-1.69.83-1-.15-.85-.04-1.39-.35-.12.54-.9.17-1.67.56-1.43-.14-.41-.46-1.94-.17-.75-.1.61-.4.61-.4ZM292.25,435.55h0c.32,0,.59,0,.76,0-.16,0-.38,0-.76,0ZM289.14,435.43c.38.02.85.04,1.35.07.1.11-.02.21-.33.19.17-.06-.56-.15-1.02-.26ZM295.66,437.77c-.5.03-.66-.03-.73-.09.23,0,.51-.01.87-.02.02,0,.04-.03.06-.04-.05.06-.1.11-.2.15Z"/>
      <path class="cls-4" d="M296.56,437.39c.07,0,.11-.02.2-.02-.1-.03-.2-.05-.29-.07-.06.03-.12.06-.18.09.09,0,.18,0,.27,0Z"/>
      <path class="cls-4" d="M301.51,432.22h-.07c.05,0,.1.02.14.04-.04-.02-.04-.03-.07-.04Z"/>
      <polygon class="cls-4" points="246.29 431.6 246.29 431.68 246.56 431.64 246.29 431.6"/>
      <path class="cls-4" d="M318.66,433.68s.1.05.23.07c0-.02-.11-.05-.23-.07Z"/>
      <path class="cls-4" d="M326.1,433.65l1.05.09c-.46-.06-.79-.08-1.05-.09Z"/>
      <path class="cls-4" d="M331.82,433.6c.07-.06.09-.1.11-.14h-.01s-.09.14-.09.14Z"/>
      <path class="cls-4" d="M241.17,429.39c-.08,0-.15,0-.22,0-.52.02-.17.02.22,0Z"/>
      <path class="cls-4" d="M268.12,430.85c-.29.03-.58.06-.88.07.48.06.85.1.88-.07Z"/>
      <path class="cls-4" d="M211.13,428.37h0c-.06,0-.12,0-.19,0h.18Z"/>
      <path class="cls-4" d="M266,430.81c.47.1.88.12,1.25.11-.39-.05-.85-.12-1.25-.11Z"/>
      <path class="cls-4" d="M356.54,431.27l.27-.04s0-.04.02-.05l-.29.09Z"/>
      <path class="cls-4" d="M356.83,431.18l.29-.09c-.14.03-.26.05-.29.09Z"/>
      <path class="cls-4" d="M357.74,430.9l-.61.19c.22-.04.49-.08.61-.19Z"/>
      <path class="cls-4" d="M349,432.34l-.07.12s.07-.07.07-.12Z"/>
      <path class="cls-4" d="M346.71,432.58c.55-.02,1.4.11,2.15-.03l.06-.09c-.34.19-1.72-.11-2.22.12Z"/>
      <path class="cls-4" d="M337.04,432.02h1.92c-.34-.11-.79-.24.07-.32-2.44-.22.52.24-2,.32Z"/>
      <path class="cls-4" d="M331.09,432.14c1.03-.11-.02-.17.03-.24-.65.14-.81.17-.03.24Z"/>
      <path class="cls-4" d="M288.11,431.24l.12-.27c-.8,0-.01.11-.12.27Z"/>
      <polygon class="cls-4" points="279.79 432.06 280.55 432.29 280.94 432.07 279.79 432.06"/>
      <polygon class="cls-4" points="275.09 429.73 275.44 429.72 274.11 429.71 275.09 429.73"/>
      <path class="cls-4" d="M202.75,425.68l.25.33c.54-.07.65-.46-.25-.33Z"/>
      <path class="cls-4" d="M171.51,428.21c-.36-.12-1.25-.11-1.76.14.7-.08,1.42-.05,1.76-.14Z"/>
      <polygon class="cls-4" points="237.79 433.57 237.16 433.62 238.34 433.63 237.79 433.57"/>
    </g>
  </g>
  <text class="cls-3" transform="translate(131.1 484.71)"><tspan x="0" y="0">guided by the spirit</tspan></text>
</svg>