<?xml version="1.0" encoding="UTF-8"?>
<svg id="Layer_1" xmlns="http://www.w3.org/2000/svg" version="1.1" viewBox="0 0 256 256">
  <!-- Generator: Adobe Illustrator 29.0.1, SVG Export Plug-In . SVG Version: 2.1.0 Build 192)  -->
  <defs>
    <style>
      .st0 {
        fill: #D2C2A9;
      }
    </style>
  </defs>
  <g>
    <path class="st0" d="M40.76,169.64c3.69-.51,13.59-3.48,20.43-12.7,6.84-9.22,15.88-16.93,17.71-18.43s6.16-6.48,4.76-9.25c-1.41-2.77-7.96.74-11.57,3.34-3.17,2.28-8.15,8.76-11.35,8.8-2.32.03-5.01-1.08-2.28-6.27,3.18-6.04,11.03-10.83,15.44-12.45s17.82-6.77,21.45-8.73c3.62-1.96,6.04-4.89,6.49-6.96.45-2.07-2.05-2.24-5.46-.52-3.41,1.71-13.35,4.94-16.72,5.74-1.05.25-16.98,4.48-19.56,5.83-2.58,1.35-25.76,21.67-29.21,23.78-3.69,2.26-6.43,4.86-15.58,9.77.25,9.49.91,6.9,4.35,15.93.97.29,5.08,10.28,5.2,10.13,4.9-6.07,10.65-7.3,15.87-8.02Z"/>
    <path class="st0" d="M80.72,137.8s-1.57,1.47-3.53,3.11-3.85,3.61-3.85,3.61c11.53,1.97,15.86-1.28,17.13-2.89,1.21-1.53-.34-2.41-.9-2.47-5.69-.61-8.84-1.37-8.84-1.37Z"/>
    <path class="st0" d="M103.73,128.7c-3.7.02-7.3.25-12.06-.28-4.77-.53-7.86-.7-7.86-.7,0,0,3.13,2.22-.95,7.6,0,0,5.56-.01,8.59.29,3.03.3,8.77-.24,11.59-2.01,2.4-1.5,4.19-4.91.69-4.89Z"/>
    <path class="st0" d="M106.02,115.39c-3.13.58-17.34,2.28-17.34,2.28,0,0-5.77,2.34-15.39,6.1-9.85,3.84-16.57,13.33-15.02,15.57s3.84.93,4.84.33c1.01-.6,4.58-4.09,6.06-5.51,1.6-1.54,3.71-3.02,3.71-3.02,7.45-5.27,19.37-6.18,21.02-6.47,1.65-.29,6.75-.82,11.68-2.66,4.93-1.85,5.9-4.43,5.9-5.88,0-1.43-2.33-1.32-5.46-.74Z"/>
  </g>
  <g>
    <path class="st0" d="M212.44,52.71c.36.18.49-.22-.27-.92l-.94-.14,1.21,1.06Z"/>
    <path class="st0" d="M208.45,46.91c-1.08-.65-2.43-1.26-2.25-.32,1.26.43,1.3.8,2.71,1.22.77.7,1.1,1.45.83,1.47.36.16,1,1.26,1.65,1.41-.29-.65-.73-1.29-1.27-1.9-.54-.62-1.21-1.19-1.99-1.66-.18-.36.19-.21.33-.23Z"/>
    <path class="st0" d="M115.8,13.43h.66c-.18-.02-.41-.02-.66,0Z"/>
    <path class="st0" d="M57.58,36.56c.38-.3.5-.47.49-.53-.33.3-.61.55-.49.53Z"/>
    <path class="st0" d="M48.89,43.13c.18-.15.33-.27.5-.41-.22.13-.42.27-.5.41Z"/>
    <path class="st0" d="M115.8,13.43h-1.71c-.09.2.88.05,1.71,0Z"/>
    <path class="st0" d="M197.09,38.79c.29.19.55.33.8.44-.24-.16-.47-.32-.7-.48-.03.02-.06.03-.1.04Z"/>
    <path class="st0" d="M143.73,13.36l.51.07c.16-.05.31-.11.46-.18l-.97.11Z"/>
    <path class="st0" d="M164.69,18.16c-.46-.18-.77.25-1.02.4.32-.11.69-.09,1.11,0,.04-.09.01-.22-.09-.41Z"/>
    <path class="st0" d="M194.5,34.32l.53.29c-.14-.08-.37-.2-.53-.29Z"/>
    <path class="st0" d="M128.37,12.18c-.04-.07-.11-.14-.2-.18,0,.06.08.12.2.18Z"/>
    <path class="st0" d="M225.52,73.15s.05-.03.08-.04c-.1-.08-.15-.1-.08.04Z"/>
    <path class="st0" d="M213.43,51.83l.24.24c.09-.03.19-.07.26-.13l-.5-.11Z"/>
    <path class="st0" d="M35.03,57.55s.04-.04.06-.06c.28-.45.1-.21-.06.06Z"/>
    <path class="st0" d="M59.51,221.16c-1.42-1.56,3.09,1.49.84-.72.13.33-2.78-1.02-.84.72Z"/>
    <path class="st0" d="M196.71,38.4c-.22-.17-.45-.35-.68-.53.3.26.51.42.68.53Z"/>
    <path class="st0" d="M60.35,220.44h0s-.23-.23-.23-.23c.1.09.15.15.23.23Z"/>
    <path class="st0" d="M15.5,99.1c.11-.07.21-.23.32-.4-.05,0-.14.09-.32.4Z"/>
    <path class="st0" d="M29.28,67.84l-.48.7c.21-.27.35-.5.48-.7Z"/>
    <path class="st0" d="M13.2,116.74c-.08.45-.16.6-.14,1.24.03-.06.05-.11.08-.19-.05-.23-.06-.54.07-1.05Z"/>
    <path class="st0" d="M12.95,135.19c.03-.1.05-.23.08-.35-.02-.18-.04-.39-.06-.58l-.02.93Z"/>
    <path class="st0" d="M239.86,124.99c.14-.4.29-.64.44-.84-.35.29-.51-2.34-.44.84Z"/>
    <path class="st0" d="M197.26,38.56c-.16.03-.32-.01-.55-.16.17.12.33.24.49.35.09-.03.14-.07.07-.19Z"/>
    <path class="st0" d="M17.08,117.84l-.31,2.82c.12-.79.23-1.81.31-2.82Z"/>
    <path class="st0" d="M176.29,228.53l.56-.34c-.23.1-.43.21-.56.34Z"/>
    <path class="st0" d="M16.67,129.07c-.17.51-.27,1.05-.33,1.61.04.12.07.25.13.33l.2-1.93Z"/>
    <path class="st0" d="M240.31,124.15s0,0,0,0c0,0,0,0,0,0Z"/>
    <path class="st0" d="M237.01,105.72c.53,2.64.89,1.12,1.38,1.61.69,3.17-.24,1.56-.41,2.7.24.98.57,1.83.87,2.62.27.8.49,1.54.56,2.29-.1.12-.1.42-.28.09.19.52.33,1.17.44,1.9.05.36.11.75.16,1.14.03.39.06.8.09,1.2.11,1.63.28,3.3.65,4.53-.06.19-.11.28-.16.33.33-.41.66-.49.9-.41.03,1.23.44,2.28.02,2.74,0-.75-.17-.81-.31-1.16l.2,1.28c-.61,1.16-.23-1.75-.69-1.74.11,1.24.31,2.6.46,3.88.1,1.28.13,2.5.01,3.45-.62.37-.04-4.48-.67-1.95l.16-1.47.1-1.48c-.93,2.25.05-1.79-.95.28-.02.96-.04,1.72-.05,2.36,0,.65.01,1.19.03,1.73.02,1.08.13,2.17-.15,4.08.26.89.52-.25.78.64.04,1.39-.06,2.35-.23,3.06-.18.71-.44,1.18-.67,1.61-.47.85-.89,1.51-.76,3.57.24,1.09.9,1.62,0,4.4l-.5-1.09c-.37,1.84-.21,2.41-.16,3,.07.58.08,1.19-.59,3.06-.1-.75.44-2.93.24-2.39-1.1,2.36-.03,1.84-.47,3.76l-.69.24c-.25.97-.48,1.96-.71,2.98-.24,1.02-.43,2.07-.73,3.11-.57,2.08-1.08,4.25-1.89,6.32-.08-.29.02-1.07-.53-.17-.82,2.68-2.09,5.38-3.39,8.03-.71,1.29-1.44,2.57-2.16,3.81-.35.63-.73,1.23-1.12,1.81-.39.58-.76,1.16-1.14,1.72l-.57,2.05c-.24.41-.67.63-.48.14-1.3,1.66.23.26-.14,1.22-.61,1.03-1.1,1.17-.83.45-1.47,3.43-5.23,9.25-8.13,11.93l.35-.7c-2.09,2.2-1.43,3.3-3.65,5.13l.29-.47c-2.33,2.35-4.7,4.91-7.15,7.11-.6.56-1.19,1.11-1.79,1.63-.62.5-1.22.98-1.82,1.44-1.2.9-2.31,1.76-3.45,2.35-.15.59-1.5,1.51-2.78,2.42-1.26.94-2.54,1.71-2.41,2.29-1.71.85-2.36,1.08-3.16,1.44-.81.33-1.79.76-4.14,1.99-1.21.71-1.49,1.62-2.98,2.57l-.3-.46-1.82,1.65c-.47.02-.95,0-1.43-.02l-1.41.84c.6-.25,1.36-.38,1.34-.2-1.1.67-2.56,1.26-3.75,1.66-1.21.37-2.17.5-2.25.39l-2.7,1.39c-.9.47-1.84.85-2.76,1.28.05-.25.98-.67,1.68-1.08-2.84,1.63-.75-.34-3.35,1.15.41-.02-.09.38-.12.51-.74.12-1.92.4-3.21.76-1.29.35-2.66.88-3.85,1.24l.36-.48c-1.09.26-2.2.54-3.34.85-.57.15-1.14.31-1.72.46-.58.13-1.17.27-1.76.4-1.19.27-2.38.57-3.6.82-1.22.22-2.46.43-3.71.62,1.81-.11,1.51.61.04.9l-.67-.48c-.9.51,1.56-.02-.32.72-1.89.16-1.34-.51-.3-.81l-2.25.45c-.15-.16.37-.31.48-.54-.9.45-3.97-.12-5.27.53l-.14-.17c-1.25.07-2.33.15-3.32.23-.98.06-1.87.07-2.72.12-.86.04-1.68.07-2.55.11-.87.03-1.78-.01-2.8-.04-.1.5-1.7.33-2.95.69-1.51-.21-3.09-.48-4.74-.73-1.65-.27-3.37-.63-5.18-.84-2.57-.14-.8.31-1.99.41-.11-.49-3.7-1.09-1.78-1.08-2.16-.32-3.52-.64-5.03-.93-.76-.14-1.55-.28-2.5-.45-.94-.2-2.03-.44-3.39-.73.53.34,1.16.61.78.66-.99-.2-2.16-.81-1.95-.98l.27.03c-3.08-.58-6.4-2.04-9.45-3.61-1.55-.73-3-1.58-4.4-2.24-.7-.34-1.38-.64-2.04-.89-.64-.29-1.27-.52-1.87-.69l.27.08-2.4-.94-1.2-.47-1.17-.53c-2.01-1.24,1.4.4.02-.71-1.29-.52-2.41-1.05-3.42-1.6-.99-.59-1.87-1.18-2.72-1.76-1.73-1.13-3.23-2.35-5.24-3.46-.26-.39-.61-.8-1.04-1.21-.41-.44-.89-.89-1.42-1.35-.53-.46-1.11-.94-1.73-1.41-.61-.48-1.26-.96-1.88-1.49-1.25-1.05-2.56-2.09-3.72-3.14-1.12-1.09-2.11-2.15-2.81-3.13l-.03.42c-1.1-.63-.95-1.15-1.5-1.87-.09.26.7,1.17.06.74-1.82-1.85-3.72-3.71-5.37-5.81-.84-1.04-1.72-2.05-2.5-3.14-.78-1.1-1.56-2.2-2.34-3.3-.4-.54-.77-1.11-1.12-1.69l-1.07-1.72c-.71-1.15-1.44-2.28-2.07-3.47-.65-1.17-1.31-2.35-1.96-3.51-.6-1.19-1.2-2.38-1.8-3.57-.91-1.71-1.47-2.04-2.07-2.5-.59-.47-1.16-1.1-1.88-3.47l1.14,1.01c-.25-.42-.51-.85-.74-1.28l-.66-1.33c-.43-.89-.85-1.8-1.25-2.71-.8-1.83-1.42-3.74-2.12-5.61-.6-1.91-1.19-3.81-1.78-5.69-.5-1.91-1.1-3.78-1.67-5.62.23.42.39.4.58,1.12.03-1.67-1.21-5.87-1.57-5.85-.15-1.19.27-.33.33-1.09.01-1.64-1.21-3.96-.86-4.88.06-.16.18.44.26.73-.33-1.03-.48-4.92-.87-3.86-.07-1.45-.18-2.82-.31-4.13-.11-1.31-.28-2.54-.12-3.7-.56-1.5.17-4.95-.53-5.44.81.22.78-5.04.64-6.89.19.63.39-1.56.66-.82.12-2.08.28-3.98-.19-3.67.74-1.85.76-3.78.95-5.5.17-1.72.26-3.25,1.13-4.17.82-6.15,2.32-11.74,4.12-17.05.17.12.12.54-.04,1.11-.16.56-.42,1.27-.64,1.99-.45,1.42-.88,2.79-.44,2.8.34-1.28.62-2.43.87-3.52.29-1.08.57-2.09.86-3.09.54-2.03,1.3-3.98,2.47-6.34.66-1.2,0,.85-.06,1.33.87-2.51,2.15-4.74,3.25-6.97.61-1.08,1.22-2.14,1.8-3.21.29-.53.57-1.06.84-1.6.29-.52.58-1.04.85-1.57.06.05-.15.52-.35.96.48-.8,1.26-1.76.9-1.86l-.4.82c-1.25.98,1.05-3.73.93-4.03-.05,1.88,2.94-3.68,2.56-.86.3-.54.6-1.26.32-1.29.59-.7.87-.85.56.06.44-.71.71-1.19.89-1.56.2-.36.31-.6.41-.83.21-.46.42-.88,1.36-2.07.13.12-.19.64-.22,1.01.68-1.41,1.33-2.87,3.16-4.68-.02.19.28.05-.22.63,1.42-1.67,2.46-3.25,3.71-4.73.61-.76,1.23-1.52,1.93-2.29.7-.78,1.54-1.49,2.47-2.27-.51,1.53,1.37-.94,2.01-.62.57-.65,1.19-1.26,1.81-1.86l-1.01.43c1.75-1.44,2.94-3.16,4.63-4.18-.4.41-.78.83-1.15,1.27,1.05-.96,2.19-1.8,3.29-2.71l-2.08,1.26c1.63-1.67-.72-.52,1.82-2.21-.45.44,1.81-1.41,3.05-1.72h0c.81-.8,1.65-1.65,3.14-2.47.48-.07.11.82.42.77.31-.55,1.43-1.26,2.58-2.01,1.15-.75,2.31-1.55,2.8-2.12-.34.35-.19.66-.02.65l.6-.84c1-.38,1.17-.39,1.15-.06,2.82-1.44-1.29-.26,2.2-1.74-.24.17-.09.17-.6.52,3.44-1.58,6.44-3.51,9.76-4.61,1.2.22-2.73,1.33-1.43,1.4,4.5-2.14,9.4-4.45,14.11-5.64l-.9.16c.41-1.07,3.62-.48,5.89-1.47-.58.18-.65.68-.52.54,1.64-.27,3.28-.66,5.13-1.16.93-.21,1.92-.44,2.98-.69,1.06-.22,2.19-.54,3.44-.73l-.59.31c1.97.03,5.13-.49,7.25-.45.61-.28,1.82-.31,1.07-.62.83.13,1.63.19,2.43.23.8.07,1.59.09,2.37.09,1.56,0,3.09-.14,4.6-.17,1.51-.04,3.01-.15,4.48-.04,1.47.11,2.92.31,4.33.72-.69-.06-1.66.07-1.11.12,1.64.02,3.27.23,4.91.36-.33-.46-.61-.33-1.6-.79.65-.16,2.07-.16,3.29,0-2.26,0-.07.63.83,1.04-.14-.15.21-.23.15-.37,2.42,1.18.57-.74,3.96.38l-.23.18c1.33.1,2.56.16,3.95.52.47.6-1.42-.1-1.6.26,1.94.43,4.07-.03,5.69.97-.85-.11-2.03-.44-2.89-.48.9.48,1.39.73,1.85.91.45.18.86.28,1.55.52l-.13-.05c1.06.39,2.12.76,3.16,1.17-.25-.14-.51-.27-.78-.39,1.38-.25,2.6.14,3.91.57.66.22,1.34.45,2.06.67.72.24,1.49.44,2.35.56-3.33-.47-.66.22-1.09.63.75.45,1.89,1.08,1.49,1.09.81.09,1.4.4,2.06.74.65.36,1.39.73,2.54.89.02.2,1.54.71,1.03.96,1.93.71-.31-.47-.07-.6,3.17.77,6.36,3.91,10.69,5.51,1.78.87,2.86,1.34,3.95,1.75.54.21,1.08.42,1.68.69.59.28,1.24.64,2.04,1.12.85.95-1.19-.07-1.19-.07,1.47,1.39,2.76,2.16,4.36,3.17-.39-.12-.16.23.17.74,1.21.9,1.18.13,2.59,1.56-.39-.06-.93-.09-1.62-.39.74.49,1.51.94,2.29,1.4.75.49,1.5.99,2.25,1.54.17.55-1.14-.38-1.75-.66,1.64,1.26,4.22,3.29,4.97,3.43l-.84-1.05c.56.51,0,.56-.47.26-1.59-.89-1.81-1.81-1.77-2.01l1.06.78c-.17-.83-1.2-1.67-2.42-2.53-1.23-.85-2.73-1.61-3.74-2.47l1.33.1-2.52-1.2c-.35-.5-.41-1.08.7-.37-1.3-1.45-1.52-.78-2.61-2.08-.11-.16-.02-.14.13-.07l-1.65-.9c.39.08.04-.61.92.14-.63-.57-1.23-1.04-1.82-1.4-.59-.35-1.14-.63-1.64-.87-.99-.49-1.74-.84-2.13-1.42l.26.11c-1.01-.59-1.58-.83-1.89-.92-.31-.09-.37-.03-.4.05-.06.18-.03.46-1.7-.12l-1.38-2.34-.66.25c-.41-.24-1.25-.7-.99-.82-1.77-.48.16.35-.93.19-.92-.73-2.35-1.43-3.6-2-1.25-.55-2.28-1.05-2.35-1.55-.92.04,1.89,1.19-.48.45-.13-.57-.8-.83-1.65-1.09-.86-.24-1.92-.46-2.82-1.05.78-.21,2.56.76.74-.42-.75.15-1.69-.27-2.66-.79-.98-.51-2.02-1.05-2.9-1.27-.14.29-1.09.05-2.36-.36-1.27-.39-2.91-.86-4.38-1.18.26-.21-5.37-1.76-8.09-2.48l.1-.09c-.33.27-1.2.25-2.24.13-1.04-.13-2.27-.35-3.32-.39.14-.37.54-.49,1.69-.49-.65-.11-1.31-.18-1.96-.27-.49.15-1.12.18-2.4.08l.55-.42c-.65-.08-1.31-.13-1.99-.16-.68,0-1.37,0-2.08-.01-.71,0-1.44-.03-2.21-.09-.38-.03-.77-.07-1.17-.12-.4-.03-.81-.07-1.23-.13-.2.45,2.6,1.37-.95,1.54-.12-.25-.24-.68.7-.75-.31.02-1.09.17-1.7.04l1.44-.36c-1.53-.24-.82.32-2.04.24.03-.35-.9-.28-.72-.56.31-.02,1.07.18,1.54.06-1.38-.12-3.06-.38-3.61-.62.12.2,0,.47-1.02.53-2.63.06-.9-.41-2.45-.58-.63.23-2.32.08-2.34.61-.77.04-.92-.19-1.23-.32-.67.17-2.26.24-3.48.42-1.22.19-2.07.38-1.28.58h.35c-.06.01-.14.03-.22.05h.01s-.01,0-.01,0c-1.09.25-2.21.42-3.35.54-1.13.14-2.27.3-3.42.41-2.3.2-4.58.56-6.72,1.11l-.03-.17c-1.28.33-2.68.78-4,1.16-1.31.4-2.54.76-3.38,1.25-.74.23-1.85.24-1.59-.06-1.88.75-2.06.91-4.88,1.66,1.8-.99-.75-.02,1.88-.93-2.51.76-3.19.68-5.65,2.13.72-.79-2.04.24-3.14.85l1.82-.42c-1.27.61-2.41,1.05-3.58,1.5l.38-.81c-1.32.36-2.47.95-3.56,1.53-1.08.6-2.1,1.2-3.03,1.88-1.87,1.33-3.66,2.41-5.7,3.01-1,1.1,2.65-1.28,1.8-.19-2.14,1.22-4.8,1.83-5.47,2.26-1.5.82-2.04,1.45-2.58,2.1-.27.32-.54.65-.94,1.01-.4.36-.92.75-1.65,1.25.49-.11,1.15.1-.82,1.85-2,1.42-2.96,1.13-1.82.05.46-.37.73-.49.76-.42.59-.54,1.37-1.25.45-.84l-.13.36c-.56.29-1.51.95-2.27,1.45-.75.51-1.29.89-1.1.49-1.31,1.37-.39.79.74-.02-1.31.91-2.27,1.71-3.22,2.53-.97.8-1.88,1.68-3.15,2.73.46-.27.98-.41.6-.06-1.84,1.54-2.16,1.98-2.31,2.31-.15.33-.12.55-1.21,1.76-1.51,1.1-.09-1.02-2.17,1.52-1.55,1.29-.71-.08-.27-.77-.45.61-.93,1.15-1.41,1.65-.46.52-.93.98-1.39,1.4-.91.85-1.77,1.54-2.36,2.17l.91-1.31c-.54.79-1.07,1.36-1.57,1.97.29-.15.61-.28.91-.42-.68.64-1.14,1.29-1.27,1.15-.38.92,1-.13.12,1.59-.92.84-2.16,3.06-2.82,3.09,2.51-2.97-.73-.01,1.23-2.66-.34.54-.83,1.14-1.46,1.84-.13.08-.02-.18.12-.4-2.6,2.73-.49,1.77-2.74,4.9.02-.58-1.02.39-1.28.97.85-1.31.84-.33.28,1-1.54,1.94-1.29,2.36-2,3.42l.89-1.18c0,.29-.17.69-.45,1.21-.27.52-.6,1.17-.99,1.93-.29,0,.62-1.43.23-.96-.43,1.94-2.7,3.42-3.52,5.99-.75,1-.58-.16-1.21.74-1.01,2.83-1.79,2.74-2.79,5.75.76-.66.73-.84.21,1.34l1.83-4.83-.79,3.27c.65-1.4,1.06-3.11,1.57-3.9-.39,1.56-.37,1.38.23.85-.72.83-1.07,1.83-1.4,2.87-.32,1.05-.69,2.11-1.31,3.18l-.95-.47c-.88,1.64-1.4,3.22-1.83,4.95-.21.87-.42,1.78-.69,2.74-.26.97-.62,1.98-.99,3.13.21-.48.38-.96.61-1.42.19.73-.76,2.86-1.02,4.4-.3-.23-.69.67-1.08,1.26.27-.02-.82,3.43-.23,4-.3.66-.64,1.32-.91,2-.87,3.79.14,4.51-.43,8.16-.23-1.16-.7.49-.65-2.03-.17,1.23-.38,2.34-.14,2.39-.15.35-.16,1.22-.16,2.13.03.92.04,1.89-.18,2.44.11.54.46.73.32,2.11-.08.15-.17-.02-.17-.02.15.02.11,2.18.56,1-1.29,3.76-.2,10.61-.8,13.95.07.67.14,1.38.21,2.1.08.72.2,1.45.3,2.17.21,1.45.37,2.86.56,4.08-.13-.14-.18.02-.21-.45.21,3.4,1.3,1.91,1.57,5.75-.08,1.01-.26.53-.41-.06-.15-.59-.23-1.28-.25-.65-.55.37-.26,1.5.12,2.88.4,1.37.85,2.99.88,4.32l-.22-.59c.13,2.02,1.57,4.61,2.51,7.71,0,0-.14-.12-.17.03.61.97,1.25,2.45,2.01,3.99.74,1.55,1.39,3.25,2.1,4.63-.8-.72-.77-1.21-.97-.49.6,1.26.53-.65,1.73,1.85.13.92.68,2.87.38,3.3-.4-.78-.71-1.6-1.07-2.41-.02.75.3,1.54.72,2.29.44.75.94,1.46,1.19,2.11l-.33-.04c1.81,3.63,2.54,3.31,4.55,7.13l-.03-.5c1.75,1.71.67,1.9,2.33,3.65l-.23.98c.24.31.58.73.97,1.23.41.48.89,1.03,1.39,1.61,1.01,1.15,2.03,2.47,2.94,3.53-.71-.46-1.53-1.36-2.39-2.31-.85-.96-1.74-1.97-2.42-2.74.85,1.3,3.02,4.34,3.75,4.8-.41-.47-.99-1.03-1.25-1.6,1.49,1.29,3.25,3.06,5.09,5.52-.73.23.5,1.82,1.99,3.66,1.44,1.88,3.35,3.81,3.72,5.01.52.46,1.01.93,1.5,1.41.51.46,1.01.92,1.51,1.4,1,.95,1.95,1.97,2.96,2.96,1.03.98,2.08,1.97,3.17,3,.54.52,1.11,1.01,1.72,1.49.6.49,1.21.98,1.85,1.47-1.12-2.24,1.49,1.13,1.84.02,1.2.86,1.68,1.16,1.74,1.31,1.09,1.04,2.18,2.1,3.29,3.13.36.42.03.28-.39.06-.41-.23-.92-.54-.93-.4,1.3,1,1.56,1.23,1.64,1.47.1.23.06.4.9,1.11-.16-.57,1.26.14,2.76,1.28l-1.95-1.84c1.04.49,1.73.92,2.26,1.31.53.39.91.72,1.28,1.07.74.69,1.5,1.39,3.65,2.28l-1.43-.42c2.13,1.04,7.79,4.04,10.28,4.11.33.29.72.79-.27.43,5.16,2.4,12.02,3.69,16.11,5.26l-.48.14c1.04.2,1.88.05,3.1.58-.09.09-.48.16,0,.29.57.04,2.83.17,4.15.64l-1.22.03c1.32.42,2.52.62,3.64.76,1.12.15,2.15.22,3.15.28,2.02.03,3.92-.03,6.21.15-.05.39,1,.74,2.33,1.03,1.33.29,2.95.54,4.03.61l-.08.11c1.61.08,3.1.12,4.52.09,1.42-.08,2.77-.19,4.1-.31,1.33-.09,2.64-.33,3.98-.52,1.34-.2,2.73-.35,4.19-.61.93.11,2.18.11,3.62.04,1.44-.09,3.05-.35,4.73-.58,1.69-.2,3.42-.63,5.11-.92,1.7-.28,3.31-.67,4.78-.92-.91.09,0-.63.99-.97,1.4-.15,3.52-1.61,3.52-.84l-.48.13c1.2.35,3.91-.61,6-1.41l.03-1.01c1.48-.18,3.13-.59,4.75-1.28,1.62-.67,3.31-1.37,4.84-2.23,1.54-.83,3.01-1.58,4.28-2.24,1.26-.66,2.35-1.13,3.2-1.24,1.14-.85,2.62-1.77,3.69-2.7l.2.47c1.7-.96,2.99-1.68,4.29-2.58.65-.45,1.33-.91,2.09-1.43.38-.27.78-.55,1.2-.85.41-.33.85-.67,1.32-1.05l-.57.89c2.19-1.65,1.89-3.21,3.8-4.8l1.05.1c1.81-1.53,3.76-2.92,5.52-4.52.89-.79,1.79-1.57,2.61-2.43.8-.88,1.56-1.78,2.25-2.74.03.13.09.38-.43.96,1.64-1.51,6.2-6.09,4.88-6.14.6.44,3.15-3.76,4.45-5.96l.17.62c.74-2.14.64-2.29,2.23-4.83.46-.55.69-.29.04.41,1.55-1.82.62-1.8,2.4-4.07l-.31,1.07c1.34-2.04,1.13-1.95,1.46-3.31.58-1.43,2.4-3.93,2.96-4.05-.09-.42.19-1.78.95-3,.24-.1.1.42.02.68.54-.87.95-1.66,1.28-2.39.32-.74.54-1.43.76-2.07.43-1.29.84-2.41,1.61-3.61.17,0,.32-.13.45-.33-1.26,2.99-2.41,5.34-2.32,5.11.41.2,1.57-2.18,1.28,0,.28-1.04.61-2.47,1.03-3.9.38-1.45.79-2.94,1.37-4.1.09-.1.17-.2.27-.26l-.05.27c.26-.54.41-1.04.51-1.54.33-.75.55-1.22.81-1.97.44-.17,1.2-2.79,1.55-4.06-.51-.04.03-1.66-.8-.24.09-.19,0,.26-.23,1.09-.05.19-.11.41-.13.54,0-.03,0-.06-.01-.1-.26.82-.61,1.88-1,3.09.09-1.06.22-2.15.95-3.43-.1-.73-.24-1.54-.27-1.98.58-.75,1.19-1.94,1.73-2.98.55-1.04.92-1.96,1.2-2.14.16-.99.36-2.07.56-3.16.22-1.09.33-2.22.48-3.3.13-1.08.23-2.11.26-3.04,0-.93-.07-1.76-.22-2.41.03-1.13.44-1.25.64-1.65,0,.66-.11,1.43-.02,1.8.01-.57.07-1.27.14-2.01.03-.37.07-.75.1-1.13.02-.38.03-.76.05-1.13.05-1.46.02-2.72-.28-3.01.52-2.82.51,1.64.65-2.28l.18.54c.33-1.92.43-3.67.39-5.35-.11-1.68-.33-3.27-.54-4.89-.24-1.61-.55-3.24-.7-5-.15-1.76-.33-3.64-.21-5.81-.02.6-.03.9-.12,1.03-.03-.61-.06-1.22-.11-1.83-.08-.61-.15-1.22-.23-1.83-.17-1.22-.34-2.45-.55-3.67-.27-1.21-.53-2.43-.8-3.65-.14-.61-.27-1.22-.42-1.82l-.5-1.81c-.33-1.2-.67-2.4-1-3.6-.38-1.18-.75-2.37-1.1-3.55-.18-.59-.33-1.19-.52-1.77-.19-.58-.37-1.17-.56-1.75-.36-1.17-.69-2.34-1-3.51-.89-2.59-1.39-2.71-2.33-4.11l.26-.76c-.58-.78-1.19-1.54-1.79-2.31-.54-.86-.92-1.71-1.24-2.58-.34-.86-.65-1.72-.98-2.62-.33-.89-.68-1.81-1.16-2.77-.5-.93-1.16-1.88-2.01-2.86l.03.75c-.46-.79-1.23-2.02-1.89-3-.68-.97-1.16-1.75-.9-1.74-.16-.12-.65-.28-.9-.98l.2-.21c-.49-.57-.97-1.15-1.48-1.71l-1.55-1.65c-.97-1.45-.67-1.51-.5-1.72.08-.11.13-.25-.03-.62-.17-.37-.52-.99-1.35-1.97-1.32-1.4-4.12-3.61-3.8-2.94.48.59,1.12,1.61.95,1.83l-1.22-1.22c-.83.31-2.29-.11-.06,3.44l2.26,1.89.25.99c-.48-.65-1.02-1.26-1.55-1.87.61,1.28,1.39,1.77,2.16,2.41-.03.32.1.73.38,1.23l2.35,1.79c-.07.47-1.26-.66-.31,1,1.05.89-.13-1.48,1.32.21.47,1.36-.01,1.2,1.17,2.36-.05.31-.36.1-.8-.38.51.53,1.09,1.29,1.59,2,.49.71.96,1.34,1.35,1.54.18.74.84,1.76,1.37,2.64.5.89.84,1.65.46,1.77.38.3,1.76,1.94,2.42,3.09-1.01-.84-.39.23.2,1.57.61,1.33,1.32,2.86.72,2.78.8.61,1.51,2.06,2.25,3.7.37.82.75,1.67,1.12,2.51.35.85.7,1.66,1.09,2.36-.12-.14-.37-.42-.43-.7.55,1.7.48,2.28.73,3.4.73,0,1.71,2.61,2.57,3.93,0,2.29-1.18-1.04-1.6-.2.25-.13.68.73,1.05,1.53.34.81.65,1.55.79,1.12.02,1.73.17,1.45-.18,2.43.91.08.56,1.46,1.34,2.71.07,2.47-.68.78.12,3.33,0,1.28-.79-.96-.79-.96ZM233.13,168.07s0,0,0,0c.19-.52.35-.95.45-1.24-.09.26-.22.62-.44,1.24ZM231.1,173.03c.28-.59.63-1.32.96-2.12.22-.11.33.16.1.64.01-.31-.6.8-1.06,1.47ZM238.45,163.52c-.21.85-.4,1.1-.53,1.18.12-.39.26-.86.43-1.47,0-.03-.01-.09-.03-.12.06.11.12.23.13.4Z"/>
    <path class="st0" d="M238.32,161.84c.03-.12.03-.19.07-.35-.09.16-.18.31-.26.46.02.12.04.23.05.34.05-.15.1-.31.14-.45Z"/>
    <path class="st0" d="M116.58,13.42h-.12c.1.01.19.02.25.05-.08-.02-.08-.03-.13-.05Z"/>
    <polygon class="st0" points="181.45 225.61 181.51 225.72 181.87 225.4 181.45 225.61"/>
    <path class="st0" d="M146.24,16.03c.05.05.15.12.36.2-.01-.04-.17-.11-.36-.2Z"/>
    <path class="st0" d="M158.68,18.91l1.69.66c-.72-.31-1.26-.51-1.69-.66Z"/>
    <path class="st0" d="M167.92,22.2c.15-.04.2-.09.25-.13h-.02s-.24.13-.24.13Z"/>
    <path class="st0" d="M32.51,69.02c-.07.11-.13.22-.18.33-.38.8-.11.27.18-.33Z"/>
    <path class="st0" d="M63.25,34.74c-.36.35-.71.7-1.1,1.04.71-.44,1.24-.79,1.1-1.04Z"/>
    <path class="st0" d="M17.12,117.53s0,0,0,0c0,.11-.02.21-.03.32l.03-.31Z"/>
    <path class="st0" d="M60.43,37.08c.72-.42,1.26-.86,1.73-1.3-.56.38-1.23.83-1.73,1.3Z"/>
    <path class="st0" d="M203.74,44.43l.34.33s.06-.03.1-.02l-.44-.3Z"/>
    <path class="st0" d="M204.17,44.73l.42.32c-.17-.17-.33-.31-.42-.32Z"/>
    <path class="st0" d="M205.47,45.73l-.88-.68c.27.27.6.61.88.68Z"/>
    <path class="st0" d="M193.82,36.1l-.23.06c.09.02.16,0,.23-.06Z"/>
    <path class="st0" d="M190.57,33.88c.77.54,1.71,1.67,2.84,2.33l.18-.05c-.66-.13-2.1-2.06-3.03-2.28Z"/>
    <path class="st0" d="M177.24,23.75c.99.52,1.96,1.09,2.94,1.64-.44-.44-1.01-1.02.38-.37-3.54-2.44.59.77-3.32-1.27Z"/>
    <path class="st0" d="M167.71,19.45c1.72.57.08-.27.2-.34-1.14-.23-1.42-.27-.2.34Z"/>
    <path class="st0" d="M93.45,17.76l.04-.49c-1.32.48.04.17-.04.49Z"/>
    <path class="st0" d="M80.95,25.09c.44-.11.88-.22,1.33-.3l.41-.63c-.59.29-1.17.59-1.74.93Z"/>
    <polygon class="st0" points="71.92 26.03 72.43 25.68 70.45 26.95 71.92 26.03"/>
    <path class="st0" d="M12.31,131.92l.55-.44c-.11-.94-.76-1.13-.55.44Z"/>
    <path class="st0" d="M27.71,184.23c.02.68.68,2.09,1.41,2.76-.62-1.07-1.07-2.23-1.41-2.76Z"/>
    <path class="st0" d="M170.32,235.79l-.98.56c.64-.29,1.28-.56,1.9-.9-.31.11-.61.24-.92.34Z"/>
  </g>
  <g>
    <path class="st0" d="M204.36,86.78c-5.08.7-18.72,4.8-28.14,17.49-9.42,12.7-21.87,23.32-24.4,25.39-2.53,2.07-8.49,8.92-6.55,12.73,1.94,3.81,10.97-1.02,15.93-4.59,4.36-3.14,11.22-12.06,15.63-12.12,3.2-.04,6.9,1.49,3.14,8.63-4.38,8.32-15.19,14.91-21.27,17.15-6.08,2.23-24.55,9.32-29.54,12.02-4.99,2.7-8.32,6.73-8.94,9.59-.62,2.86,2.83,3.08,7.52.72,4.69-2.36,18.39-6.81,23.02-7.91,1.45-.34,23.38-6.17,26.93-8.03,3.55-1.87,35.48-29.84,40.24-32.75,5.09-3.11,8.86-6.69,21.45-13.45-.35-13.07-1.25-9.51-5.99-21.94-1.33-.4-6.99-14.16-7.16-13.95-6.75,8.36-14.67,10.05-21.86,11.04Z"/>
    <path class="st0" d="M149.33,130.64s2.16-2.02,4.87-4.28c2.7-2.27,5.3-4.98,5.3-4.98-15.87-2.72-21.85,1.76-23.6,3.98-1.66,2.11.46,3.32,1.25,3.41,7.84.85,12.18,1.88,12.18,1.88Z"/>
    <path class="st0" d="M117.64,143.17c5.1-.03,10.05-.34,16.62.39,6.57.73,10.82.97,10.82.97,0,0-4.31-3.06,1.31-10.46,0,0-7.66.02-11.83-.4-4.17-.42-12.08.34-15.96,2.76-3.3,2.06-5.77,6.77-.95,6.74Z"/>
    <path class="st0" d="M114.48,161.5c4.31-.8,23.88-3.14,23.88-3.14,0,0,7.94-3.23,21.2-8.4,13.57-5.3,22.82-18.36,20.69-21.45-2.13-3.08-5.29-1.29-6.67-.46-1.38.83-6.31,5.63-8.34,7.58-2.21,2.12-5.11,4.16-5.11,4.16-10.26,7.26-26.67,8.51-28.94,8.91-2.27.4-9.29,1.12-16.08,3.67-6.79,2.54-8.13,6.1-8.13,8.1,0,1.97,3.21,1.82,7.52,1.02Z"/>
  </g>
</svg>